{
.appVersion = "1330";
DisplayStrings = (
"/H.ss01"
);
classes = (
{
code = "";
name = DevaIMatras;
},
{
automatic = 1;

glyphs = (
{
glyphname = A;
layers = (
{
anchors = (
{
name = bottom;
position = "{328, 0}";
},
{
name = ogonek;
position = "{565, 1}";
},
{
name = top;
position = "{330, 610}";
}
);
layerId = "52F4C6DE-93AC-450D-9CD0-4DAC5691B9C2";
paths = (
{
closed = 1;
nodes = (
"56 310 OFFCURVE",
"74 258 OFFCURVE",
"74 191 CURVE SMOOTH",
"74 135 OFFCURVE",
"61 90 OFFCURVE",
"59 39 CURVE",
"64 27 OFFCURVE",
"81 -5 OFFCURVE",
"107 -12 CURVE SMOOTH",
"121 -16 OFFCURVE",
"201 -6 OFFCURVE",
"255 1 CURVE",
"289 66 LINE",
"223 87 LINE",
"223 408 OFFCURVE",
"223 457 OFFCURVE",
"247 503 CURVE",
"202 503 LINE",
"141 471 OFFCURVE",
"80 408 OFFCURVE",
"61 374 CURVE"
);
},
{
closed = 1;
nodes = (
"274 239 LINE",
"419 231 LINE",
"419 312 LINE",
"274 304 LINE"
);
},
{
closed = 1;
nodes = (
"261 508 LINE",
"261 66 LINE",
"289 66 LINE",
"303 93 OFFCURVE",
"315 115 OFFCURVE",
"315 123 CURVE SMOOTH",
"315 508 LINE"
);
},
{
closed = 1;
nodes = (
"189 503 LINE",
"191 497 LINE",
"228 499 LINE",
"399 473 LINE",
"399 39 LINE",
"404 27 OFFCURVE",
"422 -4 OFFCURVE",
"447 -12 CURVE SMOOTH",
"463 -17 OFFCURVE",
"557 -5 OFFCURVE",
"611 1 CURVE",
"611 66 LINE",
"561 89 LINE",
"561 520 LINE SMOOTH",
"561 532 OFFCURVE",
"506 594 OFFCURVE",
"499 595 CURVE SMOOTH",
"434 607 OFFCURVE",
"219 632 OFFCURVE",
"47 645 CURVE",
"39 532 LINE"
);
}
);
width = 635;
},
{
anchors = (
{
name = bottom;
position = "{266, 0}";
},
{
name = ogonek;
position = "{461, 0}";
},
{
name = top;
position = "{268, 591}";
}
);
layerId = "4F39836F-1187-466E-8FAB-7EBF43C51BB4";
paths = (
{
closed = 1;
nodes = (
"102 427 OFFCURVE",
"106 354 OFFCURVE",
"106 191 CURVE SMOOTH",
"106 117 OFFCURVE",
"101 64 OFFCURVE",
"100 12 CURVE",
"100 8 OFFCURVE",
"117 -10 OFFCURVE",
"121 -10 CURVE SMOOTH",
"126 -10 OFFCURVE",
"166 -6 OFFCURVE",
"190 -2 CURVE",
"204 15 LINE",
"130 18 LINE",
"130 339 OFFCURVE",
"129 530 OFFCURVE",
"133 585 CURVE",
"115 585 LINE",
"111 566 OFFCURVE",
"105 520 OFFCURVE",
"102 491 CURVE"
);
},
{
closed = 1;
nodes = (
"204 270 LINE",
"423 268 LINE",
"423 295 LINE",
"204 293 LINE"
);
},
{
closed = 1;
nodes = (
"188 573 LINE",
"188 15 LINE",
"204 15 LINE",
"218 35 OFFCURVE",
"218 37 OFFCURVE",
"218 48 CURVE SMOOTH",
"218 573 LINE"
);
},
{
closed = 1;
nodes = (
"110 572 LINE",
"112 569 LINE",
"127 569 LINE",
"407 552 LINE",
"407 12 LINE SMOOTH",
"407 8 OFFCURVE",
"425 -10 OFFCURVE",
"428 -10 CURVE SMOOTH",
"435 -10 OFFCURVE",
"492 0 OFFCURVE",
"504 2 CURVE",
"504 19 LINE",
"437 22 LINE",
"437 554 LINE SMOOTH",
"437 558 OFFCURVE",
"419 576 OFFCURVE",
"416 576 CURVE SMOOTH",
"346 582 OFFCURVE",
"204 589 OFFCURVE",
"47 602 CURVE",
"45 581 LINE"
);
}
);
width = 541;
},
{
anchors = (
{
name = bottom;
position = "{293, 0}";
},
{
name = ogonek;
position = "{528, 0}";
},
{
name = top;
position = "{297, 603}";
}
);
layerId = "555729A4-F539-4650-9C4F-3880CB033E7B";
paths = (
{
closed = 1;
nodes = (
"85 357 OFFCURVE",
"98 274 OFFCURVE",
"98 191 CURVE SMOOTH",
"98 117 OFFCURVE",
"92 76 OFFCURVE",
"89 24 CURVE",
"89 17 OFFCURVE",
"117 -9 OFFCURVE",
"123 -9 CURVE SMOOTH",
"130 -9 OFFCURVE",
"221 3 OFFCURVE",
"249 7 CURVE",
"268 44 LINE",
"182 59 LINE",
"182 380 OFFCURVE",
"182 475 OFFCURVE",
"191 529 CURVE",
"164 529 LINE",
"132 487 OFFCURVE",
"112 463 OFFCURVE",
"90 421 CURVE"
);
},
{
closed = 1;
nodes = (
"242 252 LINE",
"434 246 LINE",
"434 299 LINE",
"242 293 LINE"
);
},
{
closed = 1;
nodes = (
"237 525 LINE",
"237 44 LINE",
"268 44 LINE",
"282 71 OFFCURVE",
"289 93 OFFCURVE",
"289 101 CURVE SMOOTH",
"289 525 LINE"
);
},
{
closed = 1;
nodes = (
"151 519 LINE",
"153 513 LINE",
"186 515 LINE",
"409 489 LINE",
"409 25 LINE SMOOTH",
"409 19 OFFCURVE",
"435 -9 OFFCURVE",
"441 -9 CURVE SMOOTH",
"449 -9 OFFCURVE",
"533 1 OFFCURVE",
"564 6 CURVE",
"564 45 LINE",
"502 60 LINE",
"502 534 LINE SMOOTH",
"502 540 OFFCURVE",
"476 566 OFFCURVE",
"470 568 CURVE SMOOTH",
"416 583 OFFCURVE",
"202 609 OFFCURVE",
"55 620 CURVE",
"48 546 LINE"
);
}
);
width = 594;
}
);
leftKerningGroup = A;
leftMetricsKey = A;
rightKerningGroup = H;
rightMetricsKey = A;
unicode = 0041;
},
{
glyphname = AE;
layers = (
{
anchors = (
{
name = top;
position = "{485, 590}";
}
);
layerId = "52F4C6DE-93AC-450D-9CD0-4DAC5691B9C2";
paths = (
{
closed = 1;
nodes = (
"606 583 OFFCURVE",
"599 559 OFFCURVE",
"599 548 CURVE SMOOTH",
"599 66 LINE",
"627 66 LINE",
"641 93 OFFCURVE",
"653 115 OFFCURVE",
"653 123 CURVE SMOOTH",
"653 610 LINE",
"616 610 LINE"
);
},
{
closed = 1;
nodes = (
"643 267 LINE",
"749 261 LINE",
"755 363 LINE",
"636 357 LINE"
);
},
{
closed = 1;
nodes = (
"634 527 LINE",
"742 512 LINE",
"754 411 LINE",
"836 411 LINE",
"849 610 LINE",
"637 610 LINE"
);
},
{
closed = 1;
nodes = (
"56 310 OFFCURVE",
"74 258 OFFCURVE",
"74 191 CURVE SMOOTH",
"74 135 OFFCURVE",
"61 90 OFFCURVE",
"59 39 CURVE",
"64 27 OFFCURVE",
"81 -5 OFFCURVE",
"107 -12 CURVE SMOOTH",
"121 -16 OFFCURVE",
"201 -6 OFFCURVE",
"255 1 CURVE",
"289 66 LINE",
"223 87 LINE",
"223 408 OFFCURVE",
"223 457 OFFCURVE",
"247 503 CURVE",
"202 503 LINE",
"141 471 OFFCURVE",
"80 408 OFFCURVE",
"61 374 CURVE"
);
},
{
closed = 1;
nodes = (
"274 239 LINE",
"419 231 LINE",
"419 312 LINE",
"274 304 LINE"
);
},
{
closed = 1;
nodes = (
"261 508 LINE",
"261 66 LINE",
"289 66 LINE",
"303 93 OFFCURVE",
"315 115 OFFCURVE",
"315 123 CURVE SMOOTH",
"315 508 LINE"
);
},
{
closed = 1;
nodes = (
"189 503 LINE",
"191 497 LINE",
"228 499 LINE",
"399 473 LINE",
"399 39 LINE",
"407 19 OFFCURVE",
"431 -14 OFFCURVE",
"456 -14 CURVE SMOOTH",
"515 -14 OFFCURVE",
"700 -6 OFFCURVE",
"824 0 CURVE",
"820 195 LINE",
"738 195 LINE",
"720 64 LINE",
"561 82 LINE",
"561 520 LINE SMOOTH",
"561 532 OFFCURVE",
"506 594 OFFCURVE",
"499 595 CURVE SMOOTH",
"434 607 OFFCURVE",
"219 632 OFFCURVE",
"47 645 CURVE",
"39 532 LINE"
);
}
);
width = 875;
},
{
anchors = (
{
name = top;
position = "{448, 561}";
}
);
layerId = "4F39836F-1187-466E-8FAB-7EBF43C51BB4";
paths = (
{
closed = 1;
nodes = (
"497 564 OFFCURVE",
"495 540 OFFCURVE",
"495 529 CURVE SMOOTH",
"495 15 LINE",
"513 18 LINE",
"527 38 OFFCURVE",
"525 37 OFFCURVE",
"525 48 CURVE SMOOTH",
"525 591 LINE",
"507 591 LINE"
);
},
{
closed = 1;
nodes = (
"511 293 LINE",
"634 289 LINE",
"638 321 LINE",
"511 318 LINE"
);
},
{
closed = 1;
nodes = (
"516 569 LINE",
"683 560 LINE",
"690 469 LINE",
"709 469 LINE",
"715 591 LINE",
"516 591 LINE"
);
},
{
closed = 1;
nodes = (
"102 427 OFFCURVE",
"106 354 OFFCURVE",
"106 191 CURVE SMOOTH",
"106 117 OFFCURVE",
"101 64 OFFCURVE",
"100 12 CURVE",
"100 8 OFFCURVE",
"117 -10 OFFCURVE",
"121 -10 CURVE SMOOTH",
"126 -10 OFFCURVE",
"166 -6 OFFCURVE",
"190 -2 CURVE",
"204 15 LINE",
"130 18 LINE",
"130 339 OFFCURVE",
"129 530 OFFCURVE",
"133 585 CURVE",
"115 585 LINE",
"111 566 OFFCURVE",
"105 520 OFFCURVE",
"102 491 CURVE"
);
},
{
closed = 1;
nodes = (
"204 270 LINE",
"423 268 LINE",
"423 295 LINE",
"204 293 LINE"
);
},
{
closed = 1;
nodes = (
"188 573 LINE",
"188 15 LINE",
"204 15 LINE",
"218 35 OFFCURVE",
"218 37 OFFCURVE",
"218 48 CURVE SMOOTH",
"218 573 LINE"
);
},
{
closed = 1;
nodes = (
"110 572 LINE",
"112 569 LINE",
"127 569 LINE",
"407 552 LINE",
"407 12 LINE SMOOTH",
"407 8 OFFCURVE",
"424 -10 OFFCURVE",
"427 -10 CURVE SMOOTH",
"497 -10 OFFCURVE",
"573 -5 OFFCURVE",
"723 0 CURVE",
"720 122 LINE",
"701 122 LINE",
"691 21 LINE",
"437 22 LINE",
"437 554 LINE SMOOTH",
"437 558 OFFCURVE",
"419 576 OFFCURVE",
"416 576 CURVE SMOOTH",
"346 582 OFFCURVE",
"204 589 OFFCURVE",
"47 602 CURVE",
"45 581 LINE"
);
}
);
width = 771;
},
{
anchors = (
{
name = top;
position = "{467, 566}";
}
);
layerId = "555729A4-F539-4650-9C4F-3880CB033E7B";
paths = (
{
closed = 1;
nodes = (
"571 567 OFFCURVE",
"557 532 OFFCURVE",
"557 517 CURVE SMOOTH",
"557 44 LINE",
"588 44 LINE",
"602 71 OFFCURVE",
"609 93 OFFCURVE",
"609 101 CURVE SMOOTH",
"609 603 LINE",
"584 603 LINE"
);
},
{
closed = 1;
nodes = (
"562 283 LINE",
"704 275 LINE",
"710 342 LINE",
"562 334 LINE"
);
},
{
closed = 1;
nodes = (
"584 550 LINE",
"712 538 LINE",
"723 428 LINE",
"777 428 LINE",
"790 603 LINE",
"587 603 LINE"
);
},
{
closed = 1;
nodes = (
"85 357 OFFCURVE",
"98 274 OFFCURVE",
"98 191 CURVE SMOOTH",
"98 117 OFFCURVE",
"92 76 OFFCURVE",
"89 24 CURVE",
"89 17 OFFCURVE",
"117 -9 OFFCURVE",
"123 -9 CURVE SMOOTH",
"130 -9 OFFCURVE",
"221 3 OFFCURVE",
"249 7 CURVE",
"268 44 LINE",
"182 59 LINE",
"182 380 OFFCURVE",
"182 475 OFFCURVE",
"191 529 CURVE",
"164 529 LINE",
"132 487 OFFCURVE",
"112 463 OFFCURVE",
"90 421 CURVE"
);
},
{
closed = 1;
nodes = (
"242 252 LINE",
"434 246 LINE",
"434 299 LINE",
"242 293 LINE"
);
},
{
closed = 1;
nodes = (
"237 525 LINE",
"237 44 LINE",
"268 44 LINE",
"282 71 OFFCURVE",
"289 93 OFFCURVE",
"289 101 CURVE SMOOTH",
"289 525 LINE"
);
},
{
closed = 1;
nodes = (
"151 519 LINE",
"153 513 LINE",
"186 515 LINE",
"409 489 LINE",
"409 24 LINE SMOOTH",
"409 17 OFFCURVE",
"434 -9 OFFCURVE",
"443 -9 CURVE SMOOTH",
"554 -9 OFFCURVE",
"626 -5 OFFCURVE",
"795 0 CURVE",
"791 179 LINE",
"737 179 LINE",
"721 45 LINE",
"502 65 LINE",
"502 534 LINE SMOOTH",
"502 540 OFFCURVE",
"476 566 OFFCURVE",
"470 568 CURVE SMOOTH",
"416 583 OFFCURVE",
"202 609 OFFCURVE",
"55 620 CURVE",
"48 546 LINE"
);
}
);
width = 846;
}
);
leftKerningGroup = A;
leftMetricsKey = A;
rightKerningGroup = E;
rightMetricsKey = E;
unicode = 00C6;
},
{
glyphname = B;
layers = (
{
background = {
paths = (
{
closed = 1;
nodes = (
"377 0 LINE SMOOTH",
"476 0 OFFCURVE",
"559 40 OFFCURVE",
"559 174 CURVE SMOOTH",
"559 252 OFFCURVE",
"508 303 OFFCURVE",
"437 316 CURVE",
"437 322 LINE",
"467 337 OFFCURVE",
"530 366 OFFCURVE",
"530 455 CURVE SMOOTH",
"530 573 OFFCURVE",
"475 610 OFFCURVE",
"376 610 CURVE SMOOTH",
"25 610 LINE",
"25 545 LINE",
"85 521 LINE",
"85 89 LINE",
"25 65 LINE",
"25 0 LINE"
);
},
{
closed = 1;
nodes = (
"256 260 LINE",
"317 260 LINE SMOOTH",
"360 260 OFFCURVE",
"387 256 OFFCURVE",
"387 186 CURVE SMOOTH",
"387 106 OFFCURVE",
"371 75 OFFCURVE",
"331 80 CURVE SMOOTH",
"256 90 LINE"
);
},
{
closed = 1;
nodes = (
"256 521 LINE",
"318 529 LINE SMOOTH",
"351 533 OFFCURVE",
"361 500 OFFCURVE",
"361 432 CURVE SMOOTH",
"361 362 OFFCURVE",
"338 347 OFFCURVE",
"295 347 CURVE SMOOTH",
"256 347 LINE"
);
}
);
};
layerId = "52F4C6DE-93AC-450D-9CD0-4DAC5691B9C2";
paths = (
{
closed = 1;
nodes = (
"75 522 LINE",
"75 55 LINE",
"78 42 OFFCURVE",
"100 8 OFFCURVE",
"123 4 CURVE SMOOTH",
"206 -10 OFFCURVE",
"274 -14 OFFCURVE",
"378 -14 CURVE SMOOTH",
"397 -14 OFFCURVE",
"554 66 OFFCURVE",
"568 97 CURVE SMOOTH",
"582 128 OFFCURVE",
"591 162 OFFCURVE",
"591 199 CURVE SMOOTH",
"591 271 OFFCURVE",
"552 318 OFFCURVE",
"465 338 CURVE",
"465 344 LINE",
"513 392 OFFCURVE",
"561 438 OFFCURVE",
"561 463 CURVE SMOOTH",
"561 596 OFFCURVE",
"506 625 OFFCURVE",
"407 625 CURVE SMOOTH",
"316 625 LINE",
"294 537 LINE",
"349 544 LINE SMOOTH",
"382 548 OFFCURVE",
"398 535 OFFCURVE",
"398 452 CURVE SMOOTH",
"398 413 OFFCURVE",
"387 355 OFFCURVE",
"374 355 CURVE SMOOTH",
"296 355 LINE",
"296 290 LINE",
"367 264 LINE SMOOTH",
"402 251 OFFCURVE",
"419 243 OFFCURVE",
"419 188 CURVE SMOOTH",
"419 142 OFFCURVE",
"400 54 OFFCURVE",
"384 59 CURVE SMOOTH",
"242 105 LINE",
"242 572 LINE",
"237 584 OFFCURVE",
"219 615 OFFCURVE",
"194 623 CURVE SMOOTH",
"178 628 OFFCURVE",
"79 616 OFFCURVE",
"25 610 CURVE",
"25 545 LINE"
);
},
{
closed = 1;
nodes = (
"287 598 OFFCURVE",
"280 574 OFFCURVE",
"280 563 CURVE SMOOTH",
"280 66 LINE",
"308 66 LINE",
"322 93 OFFCURVE",
"334 115 OFFCURVE",
"334 123 CURVE SMOOTH",
"334 625 LINE",
"297 625 LINE"
);
}
);
width = 612;
},
{
layerId = "4F39836F-1187-466E-8FAB-7EBF43C51BB4";
paths = (
{
closed = 1;
nodes = (
"104 569 LINE",
"104 22 LINE SMOOTH",
"104 18 OFFCURVE",
"121 0 OFFCURVE",
"124 0 CURVE SMOOTH",
"156 -4 OFFCURVE",
"285 -10 OFFCURVE",
"319 -10 CURVE SMOOTH",
"339 -10 OFFCURVE",
"415 42 OFFCURVE",
"434 90 CURVE SMOOTH",
"443 113 OFFCURVE",
"446 134 OFFCURVE",
"446 161 CURVE SMOOTH",
"446 240 OFFCURVE",
"416 293 OFFCURVE",
"330 308 CURVE",
"330 313 LINE",
"361 344 OFFCURVE",
"405 419 OFFCURVE",
"406 457 CURVE SMOOTH",
"409 565 OFFCURVE",
"355 601 OFFCURVE",
"262 601 CURVE SMOOTH",
"211 601 LINE",
"211 574 LINE",
"269 575 LINE SMOOTH",
"353 576 OFFCURVE",
"381 524 OFFCURVE",
"376 452 CURVE SMOOTH",
"373 406 OFFCURVE",
"305 315 OFFCURVE",
"292 315 CURVE SMOOTH",
"201 315 LINE",
"201 297 LINE",
"306 286 LINE SMOOTH",
"384 278 OFFCURVE",
"422 235 OFFCURVE",
"416 131 CURVE SMOOTH",
"412 66 OFFCURVE",
"332 14 OFFCURVE",
"311 15 CURVE SMOOTH",
"134 26 LINE",
"134 579 LINE SMOOTH",
"134 583 OFFCURVE",
"116 601 OFFCURVE",
"113 601 CURVE SMOOTH",
"106 601 OFFCURVE",
"49 591 OFFCURVE",
"37 589 CURVE",
"37 572 LINE"
);
},
{
closed = 1;
nodes = (
"194 574 OFFCURVE",
"192 550 OFFCURVE",
"192 539 CURVE SMOOTH",
"192 15 LINE",
"208 15 LINE",
"222 35 OFFCURVE",
"222 37 OFFCURVE",
"222 48 CURVE SMOOTH",
"222 601 LINE",
"204 601 LINE"
);
}
);
width = 490;
},
{
layerId = "555729A4-F539-4650-9C4F-3880CB033E7B";
paths = (
{
closed = 1;
nodes = (
"92 543 LINE",
"92 38 LINE SMOOTH",
"92 31 OFFCURVE",
"120 6 OFFCURVE",
"126 5 CURVE SMOOTH",
"175 -2 OFFCURVE",
"290 -8 OFFCURVE",
"357 -8 CURVE SMOOTH",
"389 -8 OFFCURVE",
"482 60 OFFCURVE",
"497 87 CURVE SMOOTH",
"508 107 OFFCURVE",
"511 139 OFFCURVE",
"511 174 CURVE SMOOTH",
"511 250 OFFCURVE",
"465 306 OFFCURVE",
"389 319 CURVE",
"389 325 LINE",
"436 372 OFFCURVE",
"471 427 OFFCURVE",
"471 447 CURVE SMOOTH",
"471 576 OFFCURVE",
"416 612 OFFCURVE",
"317 612 CURVE SMOOTH",
"276 612 LINE",
"268 556 LINE",
"330 561 LINE SMOOTH",
"364 564 OFFCURVE",
"373 546 OFFCURVE",
"373 450 CURVE SMOOTH",
"373 386 OFFCURVE",
"353 330 OFFCURVE",
"338 330 CURVE SMOOTH",
"265 330 LINE",
"265 283 LINE",
"352 269 LINE SMOOTH",
"393 262 OFFCURVE",
"413 242 OFFCURVE",
"413 186 CURVE SMOOTH",
"413 83 OFFCURVE",
"393 43 OFFCURVE",
"373 45 CURVE SMOOTH",
"185 66 LINE",
"185 578 LINE SMOOTH",
"185 584 OFFCURVE",
"159 612 OFFCURVE",
"153 612 CURVE SMOOTH",
"144 612 OFFCURVE",
"61 602 OFFCURVE",
"30 597 CURVE",
"30 558 LINE"
);
},
{
closed = 1;
nodes = (
"254 576 OFFCURVE",
"240 541 OFFCURVE",
"240 526 CURVE SMOOTH",
"240 53 LINE",
"275 53 LINE",
"289 80 OFFCURVE",
"292 93 OFFCURVE",
"292 101 CURVE SMOOTH",
"292 612 LINE",
"267 612 LINE"
);
}
);
width = 543;
}
);
leftKerningGroup = H;
leftMetricsKey = H;
rightKerningGroup = B;
unicode = 0042;
},
{
glyphname = C;
layers = (
{
anchors = (
{
name = bottom;
position = "{248, 0}";
},
{
name = top;
position = "{262, 610}";
}
);
background = {
paths = (
{
closed = 1;
nodes = (
"238 622 OFFCURVE",
"99 541 OFFCURVE",
"53 487 CURVE",
"37 443 OFFCURVE",
"21 373 OFFCURVE",
"21 285 CURVE SMOOTH",
"21 77 OFFCURVE",
"103 -12 OFFCURVE",
"265 -12 CURVE SMOOTH",
"280 -12 OFFCURVE",
"409 2 OFFCURVE",
"459 14 CURVE",
"454 217 LINE",
"375 217 LINE",
"356 94 LINE",
"312 94 LINE SMOOTH",
"239 94 OFFCURVE",
"199 142 OFFCURVE",
"199 309 CURVE SMOOTH",
"199 429 OFFCURVE",
"215 515 OFFCURVE",
"232 526 CURVE SMOOTH",
"238 530 OFFCURVE",
"245 531 OFFCURVE",
"257 531 CURVE SMOOTH",
"280 531 OFFCURVE",
"326 523 OFFCURVE",
"353 514 CURVE",
"368 393 LINE",
"449 393 LINE",
"461 601 LINE",
"405 608 OFFCURVE",
"301 622 OFFCURVE",
"281 622 CURVE SMOOTH"
);
}
);
};
layerId = "52F4C6DE-93AC-450D-9CD0-4DAC5691B9C2";
paths = (
{
closed = 1;
nodes = (
"164 555 LINE",
"116 525 OFFCURVE",
"72 492 OFFCURVE",
"51 467 CURVE",
"33 423 OFFCURVE",
"21 360 OFFCURVE",
"21 285 CURVE SMOOTH",
"21 77 OFFCURVE",
"103 -12 OFFCURVE",
"266 -12 CURVE SMOOTH",
"280 -12 OFFCURVE",
"404 2 OFFCURVE",
"450 14 CURVE",
"450 108 LINE",
"305 108 LINE SMOOTH",
"235 108 OFFCURVE",
"199 151 OFFCURVE",
"199 309 CURVE SMOOTH",
"199 392 OFFCURVE",
"203 457 OFFCURVE",
"208 520 CURVE"
);
},
{
closed = 1;
nodes = (
"275 106 LINE",
"289 133 OFFCURVE",
"301 155 OFFCURVE",
"301 163 CURVE SMOOTH",
"301 620 LINE",
"264 622 LINE",
"254 595 OFFCURVE",
"247 573 OFFCURVE",
"247 562 CURVE SMOOTH",
"247 106 LINE"
);
},
{
closed = 1;
nodes = (
"461 603 LINE",
"412 611 OFFCURVE",
"328 625 OFFCURVE",
"281 625 CURVE SMOOTH",
"275 625 OFFCURVE",
"269 624 OFFCURVE",
"264 622 CURVE",
"257 533 LINE",
"264 534 OFFCURVE",
"269 534 OFFCURVE",
"281 534 CURVE SMOOTH",
"294 534 OFFCURVE",
"335 524 OFFCURVE",
"353 516 CURVE",
"368 395 LINE",
"449 395 LINE"
);
}
);
width = 488;
},
{
anchors = (
{
name = bottom;
position = "{235, 0}";
},
{
name = top;
position = "{261, 591}";
}
);
background = {
anchors = (
{
name = bottom;
position = "{256, 0}";
},
{
name = center;
position = "{255, 307}";
},
{
name = ogonek;
position = "{291, 0}";
},
{
name = top;
position = "{270, 591}";
},
{
name = topright;
position = "{311, 591}";
}
);
paths = (
{
closed = 1;
nodes = (
"133 533 LINE",
"116 513 OFFCURVE",
"105 499 OFFCURVE",
"90 475 CURVE",
"66 426 OFFCURVE",
"55 358 OFFCURVE",
"55 280 CURVE SMOOTH",
"55 130 OFFCURVE",
"103 -10 OFFCURVE",
"275 -10 CURVE SMOOTH",
"314 -10 OFFCURVE",
"402 46 OFFCURVE",
"433 101 CURVE",
"457 149 OFFCURVE",
"475 225 OFFCURVE",
"475 305 CURVE SMOOTH",
"475 488 OFFCURVE",
"412 601 OFFCURVE",
"250 601 CURVE SMOOTH",
"240 601 OFFCURVE",
"221 593 OFFCURVE",
"200 582 CURVE",
"212 556 LINE",
"230 567 OFFCURVE",
"244 572 OFFCURVE",
"254 572 CURVE SMOOTH",
"401 572 OFFCURVE",
"445 458 OFFCURVE",
"445 295 CURVE SMOOTH",
"445 228 OFFCURVE",
"424 132 OFFCURVE",
"408 110 CURVE",
"377 62 OFFCURVE",
"307 20 OFFCURVE",
"273 20 CURVE SMOOTH",
"178 20 OFFCURVE",
"85 60 OFFCURVE",
"85 301 CURVE SMOOTH",
"85 424 OFFCURVE",
"119 483 OFFCURVE",
"145 524 CURVE"
);
},
{
closed = 1;
nodes = (
"190 555 OFFCURVE",
"189 531 OFFCURVE",
"189 520 CURVE SMOOTH",
"189 28 LINE",
"204 28 LINE",
"211 39 OFFCURVE",
"218 50 OFFCURVE",
"218 61 CURVE SMOOTH",
"218 582 LINE",
"200 582 LINE"
);
}
);
};
layerId = "4F39836F-1187-466E-8FAB-7EBF43C51BB4";
paths = (
{
closed = 1;
nodes = (
"133 533 LINE",
"116 513 OFFCURVE",
"105 499 OFFCURVE",
"90 475 CURVE",
"66 426 OFFCURVE",
"55 358 OFFCURVE",
"55 280 CURVE SMOOTH",
"55 106 OFFCURVE",
"125 -10 OFFCURVE",
"272 -10 CURVE SMOOTH",
"294 -10 OFFCURVE",
"343 -5 OFFCURVE",
"379 0 CURVE",
"379 20 LINE",
"277 20 LINE SMOOTH",
"154 20 OFFCURVE",
"85 96 OFFCURVE",
"85 301 CURVE SMOOTH",
"85 424 OFFCURVE",
"119 483 OFFCURVE",
"145 524 CURVE"
);
},
{
closed = 1;
nodes = (
"204 28 LINE",
"211 39 OFFCURVE",
"218 50 OFFCURVE",
"218 61 CURVE SMOOTH",
"218 582 LINE",
"200 582 LINE",
"190 555 OFFCURVE",
"189 531 OFFCURVE",
"189 520 CURVE SMOOTH",
"189 28 LINE"
);
},
{
closed = 1;
nodes = (
"378 587 LINE",
"350 592 OFFCURVE",
"279 601 OFFCURVE",
"250 601 CURVE SMOOTH",
"240 601 OFFCURVE",
"221 593 OFFCURVE",
"200 582 CURVE",
"212 560 LINE",
"230 569 OFFCURVE",
"244 573 OFFCURVE",
"254 573 CURVE SMOOTH",
"279 573 OFFCURVE",
"333 567 OFFCURVE",
"346 564 CURVE",
"353 461 LINE",
"372 461 LINE"
);
}
);
width = 419;
},
{
anchors = (
{
name = bottom;
position = "{232, 0}";
},
{
name = top;
position = "{258, 603}";
}
);
background = {
anchors = (
{
name = bottom;
position = "{272, 0}";
},
{
name = center;
position = "{265, 287}";
},
{
name = ogonek;
position = "{308, 0}";
},
{
name = top;
position = "{273, 603}";
},
{
name = topright;
position = "{278, 603}";
}
);
paths = (
{
closed = 1;
nodes = (
"136 563 LINE",
"110 541 OFFCURVE",
"84 516 OFFCURVE",
"70 494 CURVE",
"52 449 OFFCURVE",
"40 375 OFFCURVE",
"40 283 CURVE SMOOTH",
"40 79 OFFCURVE",
"130 -9 OFFCURVE",
"306 -9 CURVE SMOOTH",
"336 -9 OFFCURVE",
"443 62 OFFCURVE",
"477 108 CURVE",
"489 153 OFFCURVE",
"502 226 OFFCURVE",
"502 318 CURVE SMOOTH",
"502 524 OFFCURVE",
"408 611 OFFCURVE",
"246 611 CURVE SMOOTH",
"243 611 OFFCURVE",
"236 610 OFFCURVE",
"231 608 CURVE",
"244 548 LINE",
"254 549 OFFCURVE",
"254 549 OFFCURVE",
"262 549 CURVE SMOOTH",
"372 549 OFFCURVE",
"403 457 OFFCURVE",
"403 300 CURVE SMOOTH",
"403 198 OFFCURVE",
"394 138 OFFCURVE",
"384 94 CURVE",
"379 86 OFFCURVE",
"314 51 OFFCURVE",
"298 51 CURVE SMOOTH",
"177 51 OFFCURVE",
"139 111 OFFCURVE",
"139 303 CURVE SMOOTH",
"139 415 OFFCURVE",
"150 474 OFFCURVE",
"162 544 CURVE"
);
},
{
closed = 1;
nodes = (
"218 572 OFFCURVE",
"204 537 OFFCURVE",
"204 522 CURVE SMOOTH",
"204 44 LINE",
"235 44 LINE",
"249 71 OFFCURVE",
"256 93 OFFCURVE",
"256 101 CURVE SMOOTH",
"256 608 LINE",
"231 608 LINE"
);
}
);
};
layerId = "555729A4-F539-4650-9C4F-3880CB033E7B";
paths = (
{
closed = 1;
nodes = (
"136 563 LINE",
"110 541 OFFCURVE",
"84 515 OFFCURVE",
"70 494 CURVE",
"52 449 OFFCURVE",
"40 369 OFFCURVE",
"40 277 CURVE SMOOTH",
"40 78 OFFCURVE",
"131 -9 OFFCURVE",
"220 -9 CURVE SMOOTH",
"235 -9 OFFCURVE",
"371 4 OFFCURVE",
"407 14 CURVE",
"407 66 LINE",
"267 65 LINE SMOOTH",
"198 65 OFFCURVE",
"139 109 OFFCURVE",
"139 312 CURVE SMOOTH",
"139 415 OFFCURVE",
"150 472 OFFCURVE",
"162 544 CURVE"
);
},
{
closed = 1;
nodes = (
"235 63 LINE",
"249 90 OFFCURVE",
"256 112 OFFCURVE",
"256 120 CURVE SMOOTH",
"256 609 LINE",
"231 609 LINE",
"218 573 OFFCURVE",
"204 538 OFFCURVE",
"204 523 CURVE SMOOTH",
"204 63 LINE"
);
},
{
closed = 1;
nodes = (
"421 602 LINE",
"361 607 OFFCURVE",
"266 612 OFFCURVE",
"246 612 CURVE SMOOTH",
"241 612 OFFCURVE",
"237 611 OFFCURVE",
"231 609 CURVE",
"221 542 LINE",
"228 543 OFFCURVE",
"238 544 OFFCURVE",
"251 544 CURVE SMOOTH",
"272 544 OFFCURVE",
"318 537 OFFCURVE",
"343 531 CURVE",
"355 429 LINE",
"409 429 LINE"
);
}
);
width = 447;
}
);
leftKerningGroup = O;
leftMetricsKey = O;
rightKerningGroup = C;
unicode = 0043;
},
{
glyphname = D;
layers = (
{
anchors = (
{
name = center;
position = "{176, 308}";
},
{
name = top;
position = "{294, 610}";
}
);
layerId = "52F4C6DE-93AC-450D-9CD0-4DAC5691B9C2";
paths = (
{
closed = 1;
nodes = (
"75 522 LINE",
"75 55 LINE",
"78 42 OFFCURVE",
"100 8 OFFCURVE",
"123 4 CURVE SMOOTH",
"206 -10 OFFCURVE",
"261 -14 OFFCURVE",
"365 -14 CURVE SMOOTH",
"395 -14 OFFCURVE",
"563 91 OFFCURVE",
"579 135 CURVE SMOOTH",
"596 182 OFFCURVE",
"602 233 OFFCURVE",
"602 321 CURVE SMOOTH",
"602 556 OFFCURVE",
"497 625 OFFCURVE",
"396 625 CURVE SMOOTH",
"315 625 LINE",
"294 539 LINE",
"359 544 LINE SMOOTH",
"410 548 OFFCURVE",
"427 445 OFFCURVE",
"427 312 CURVE SMOOTH",
"427 233 OFFCURVE",
"425 161 OFFCURVE",
"416 114 CURVE SMOOTH",
"408 76 OFFCURVE",
"396 55 OFFCURVE",
"377 61 CURVE SMOOTH",
"242 105 LINE",
"242 572 LINE",
"237 584 OFFCURVE",
"219 615 OFFCURVE",
"194 623 CURVE SMOOTH",
"178 628 OFFCURVE",
"79 616 OFFCURVE",
"25 610 CURVE",
"25 545 LINE"
);
},
{
closed = 1;
nodes = (
"287 598 OFFCURVE",
"280 574 OFFCURVE",
"280 563 CURVE SMOOTH",
"280 66 LINE",
"308 66 LINE",
"322 93 OFFCURVE",
"334 115 OFFCURVE",
"334 123 CURVE SMOOTH",
"334 625 LINE",
"297 625 LINE"
);
}
);
width = 623;
},
{
anchors = (
{
name = center;
position = "{155, 308}";
},
{
name = top;
position = "{254, 591}";
}
);
layerId = "4F39836F-1187-466E-8FAB-7EBF43C51BB4";
paths = (
{
closed = 1;
nodes = (
"104 569 LINE",
"104 22 LINE SMOOTH",
"104 18 OFFCURVE",
"121 0 OFFCURVE",
"124 0 CURVE SMOOTH",
"156 -4 OFFCURVE",
"235 -10 OFFCURVE",
"268 -10 CURVE SMOOTH",
"291 -10 OFFCURVE",
"384 41 OFFCURVE",
"417 107 CURVE SMOOTH",
"439 151 OFFCURVE",
"457 222 OFFCURVE",
"457 308 CURVE SMOOTH",
"457 533 OFFCURVE",
"359 601 OFFCURVE",
"261 601 CURVE SMOOTH",
"211 601 LINE",
"211 573 LINE",
"256 575 LINE SMOOTH",
"331 578 OFFCURVE",
"427 529 OFFCURVE",
"427 297 CURVE SMOOTH",
"427 220 OFFCURVE",
"410 149 OFFCURVE",
"389 111 CURVE SMOOTH",
"361 60 OFFCURVE",
"281 15 OFFCURVE",
"266 16 CURVE SMOOTH",
"134 26 LINE",
"134 579 LINE SMOOTH",
"134 583 OFFCURVE",
"116 601 OFFCURVE",
"113 601 CURVE SMOOTH",
"106 601 OFFCURVE",
"49 591 OFFCURVE",
"37 589 CURVE",
"37 572 LINE"
);
},
{
closed = 1;
nodes = (
"194 574 OFFCURVE",
"192 550 OFFCURVE",
"192 539 CURVE SMOOTH",
"192 15 LINE",
"208 15 LINE",
"222 35 OFFCURVE",
"222 37 OFFCURVE",
"222 48 CURVE SMOOTH",
"222 601 LINE",
"204 601 LINE"
);
}
);
width = 512;
},
{
anchors = (
{
name = center;
position = "{160, 308}";
},
{
name = top;
position = "{275, 603}";
}
);
layerId = "555729A4-F539-4650-9C4F-3880CB033E7B";
paths = (
{
closed = 1;
nodes = (
"92 543 LINE",
"92 38 LINE SMOOTH",
"92 31 OFFCURVE",
"120 6 OFFCURVE",
"126 5 CURVE SMOOTH",
"185 -3 OFFCURVE",
"285 -8 OFFCURVE",
"345 -8 CURVE SMOOTH",
"391 -8 OFFCURVE",
"490 97 OFFCURVE",
"496 120 CURVE SMOOTH",
"509 170 OFFCURVE",
"518 239 OFFCURVE",
"518 318 CURVE SMOOTH",
"518 544 OFFCURVE",
"408 612 OFFCURVE",
"307 612 CURVE SMOOTH",
"279 612 LINE",
"272 557 LINE",
"326 561 LINE SMOOTH",
"384 565 OFFCURVE",
"419 451 OFFCURVE",
"419 312 CURVE SMOOTH",
"419 223 OFFCURVE",
"416 151 OFFCURVE",
"404 104 CURVE SMOOTH",
"395 65 OFFCURVE",
"380 44 OFFCURVE",
"356 47 CURVE SMOOTH",
"185 66 LINE",
"185 578 LINE SMOOTH",
"185 584 OFFCURVE",
"159 612 OFFCURVE",
"153 612 CURVE SMOOTH",
"144 612 OFFCURVE",
"61 602 OFFCURVE",
"30 597 CURVE",
"30 558 LINE"
);
},
{
closed = 1;
nodes = (
"254 576 OFFCURVE",
"240 541 OFFCURVE",
"240 526 CURVE SMOOTH",
"240 46 LINE",
"271 46 LINE",
"285 73 OFFCURVE",
"292 95 OFFCURVE",
"292 103 CURVE SMOOTH",
"292 612 LINE",
"267 612 LINE"
);
}
);
width = 558;
}
);
leftKerningGroup = H;
leftMetricsKey = H;
rightKerningGroup = O;
rightMetricsKey = O;
unicode = 0044;
},
{
glyphname = Eth;
layers = (
{
color = 1;
layerId = "52F4C6DE-93AC-450D-9CD0-4DAC5691B9C2";
paths = (
{
closed = 1;
nodes = (
"75 522 LINE",
"75 55 LINE",
"78 42 OFFCURVE",
"100 8 OFFCURVE",
"123 4 CURVE SMOOTH",
"206 -10 OFFCURVE",
"261 -14 OFFCURVE",
"365 -14 CURVE SMOOTH",
"395 -14 OFFCURVE",
"563 91 OFFCURVE",
"579 135 CURVE SMOOTH",
"596 182 OFFCURVE",
"602 233 OFFCURVE",
"602 321 CURVE SMOOTH",
"602 556 OFFCURVE",
"497 625 OFFCURVE",
"396 625 CURVE SMOOTH",
"315 625 LINE",
"294 539 LINE",
"359 544 LINE SMOOTH",
"410 548 OFFCURVE",
"427 445 OFFCURVE",
"427 312 CURVE SMOOTH",
"427 237 OFFCURVE",
"425 167 OFFCURVE",
"417 120 CURVE SMOOTH",
"410 78 OFFCURVE",
"397 54 OFFCURVE",
"377 61 CURVE SMOOTH",
"242 105 LINE",
"242 572 LINE",
"237 584 OFFCURVE",
"219 615 OFFCURVE",
"194 623 CURVE SMOOTH",
"178 628 OFFCURVE",
"79 616 OFFCURVE",
"25 610 CURVE",
"25 545 LINE"
);
},
{
closed = 1;
nodes = (
"287 598 OFFCURVE",
"280 574 OFFCURVE",
"280 563 CURVE SMOOTH",
"280 66 LINE",
"308 66 LINE",
"322 93 OFFCURVE",
"334 115 OFFCURVE",
"334 123 CURVE SMOOTH",
"334 625 LINE",
"297 625 LINE"
);
},
{
closed = 1;
nodes = (
"306 255 LINE",
"393 255 LINE",
"394 364 LINE",
"299 354 LINE"
);
},
{
closed = 1;
nodes = (
"111 354 LINE",
"15 354 LINE",
"15 245 LINE",
"111 255 LINE"
);
}
);
width = 623;
},
{
color = 1;
layerId = "4F39836F-1187-466E-8FAB-7EBF43C51BB4";
paths = (
{
closed = 1;
nodes = (
"104 569 LINE",
"104 22 LINE SMOOTH",
"104 18 OFFCURVE",
"121 0 OFFCURVE",
"124 0 CURVE SMOOTH",
"156 -4 OFFCURVE",
"235 -10 OFFCURVE",
"268 -10 CURVE SMOOTH",
"291 -10 OFFCURVE",
"384 41 OFFCURVE",
"417 107 CURVE SMOOTH",
"439 151 OFFCURVE",
"457 222 OFFCURVE",
"457 308 CURVE SMOOTH",
"457 533 OFFCURVE",
"359 601 OFFCURVE",
"261 601 CURVE SMOOTH",
"211 601 LINE",
"211 573 LINE",
"256 575 LINE SMOOTH",
"331 578 OFFCURVE",
"427 529 OFFCURVE",
"427 297 CURVE SMOOTH",
"427 220 OFFCURVE",
"410 149 OFFCURVE",
"389 111 CURVE SMOOTH",
"361 60 OFFCURVE",
"281 15 OFFCURVE",
"266 16 CURVE SMOOTH",
"134 26 LINE",
"134 579 LINE SMOOTH",
"134 583 OFFCURVE",
"116 601 OFFCURVE",
"113 601 CURVE SMOOTH",
"106 601 OFFCURVE",
"49 591 OFFCURVE",
"37 589 CURVE",
"37 572 LINE"
);
},
{
closed = 1;
nodes = (
"194 574 OFFCURVE",
"192 550 OFFCURVE",
"192 539 CURVE SMOOTH",
"192 15 LINE",
"208 15 LINE",
"222 35 OFFCURVE",
"222 37 OFFCURVE",
"222 48 CURVE SMOOTH",
"222 601 LINE",
"204 601 LINE"
);
},
{
closed = 1;
nodes = (
"206 299 LINE",
"349 297 LINE",
"349 319 LINE",
"206 317 LINE"
);
},
{
closed = 1;
nodes = (
"112 317 LINE",
"43 319 LINE",
"43 297 LINE",
"112 299 LINE"
);
}
);
width = 512;
},
{
color = 1;
layerId = "555729A4-F539-4650-9C4F-3880CB033E7B";
paths = (
{
closed = 1;
nodes = (
"92 543 LINE",
"92 38 LINE SMOOTH",
"92 31 OFFCURVE",
"120 6 OFFCURVE",
"126 5 CURVE SMOOTH",
"185 -3 OFFCURVE",
"285 -8 OFFCURVE",
"345 -8 CURVE SMOOTH",
"391 -8 OFFCURVE",
"490 97 OFFCURVE",
"496 120 CURVE SMOOTH",
"509 170 OFFCURVE",
"518 239 OFFCURVE",
"518 318 CURVE SMOOTH",
"518 544 OFFCURVE",
"408 612 OFFCURVE",
"307 612 CURVE SMOOTH",
"279 612 LINE",
"272 557 LINE",
"326 561 LINE SMOOTH",
"384 565 OFFCURVE",
"419 451 OFFCURVE",
"419 312 CURVE SMOOTH",
"419 223 OFFCURVE",
"416 151 OFFCURVE",
"404 104 CURVE SMOOTH",
"395 65 OFFCURVE",
"380 44 OFFCURVE",
"356 47 CURVE SMOOTH",
"185 66 LINE",
"185 578 LINE SMOOTH",
"185 584 OFFCURVE",
"159 612 OFFCURVE",
"153 612 CURVE SMOOTH",
"144 612 OFFCURVE",
"61 602 OFFCURVE",
"30 597 CURVE",
"30 558 LINE"
);
},
{
closed = 1;
nodes = (
"254 576 OFFCURVE",
"240 541 OFFCURVE",
"240 526 CURVE SMOOTH",
"240 46 LINE",
"271 46 LINE",
"285 73 OFFCURVE",
"292 95 OFFCURVE",
"292 103 CURVE SMOOTH",
"292 612 LINE",
"267 612 LINE"
);
},
{
closed = 1;
nodes = (
"251 283 LINE",
"366 278 LINE",
"367 331 LINE",
"251 326 LINE"
);
},
{
closed = 1;
nodes = (
"155 326 LINE",
"32 331 LINE",
"32 278 LINE",
"155 283 LINE"
);
}
);
width = 558;
}
);
leftKerningGroup = H;
rightKerningGroup = O;
rightMetricsKey = O;
unicode = 00D0;
},
{
glyphname = E;
layers = (
{
anchors = (
{
name = bottom;
position = "{274, 0}";
},
{
name = ogonek;
position = "{459, 0}";
},
{
name = top;
position = "{303, 610}";
}
);
layerId = "52F4C6DE-93AC-450D-9CD0-4DAC5691B9C2";
paths = (
{
closed = 1;
nodes = (
"75 522 LINE",
"75 39 LINE",
"83 19 OFFCURVE",
"107 -14 OFFCURVE",
"132 -14 CURVE SMOOTH",
"191 -14 OFFCURVE",
"381 -6 OFFCURVE",
"505 0 CURVE",
"501 195 LINE",
"419 195 LINE",
"401 64 LINE",
"242 82 LINE",
"242 572 LINE",
"237 584 OFFCURVE",
"219 615 OFFCURVE",
"194 623 CURVE SMOOTH",
"178 628 OFFCURVE",
"79 616 OFFCURVE",
"25 610 CURVE",
"25 545 LINE"
);
},
{
closed = 1;
nodes = (
"287 583 OFFCURVE",
"280 559 OFFCURVE",
"280 548 CURVE SMOOTH",
"280 66 LINE",
"308 66 LINE",
"322 93 OFFCURVE",
"334 115 OFFCURVE",
"334 123 CURVE SMOOTH",
"334 610 LINE",
"297 610 LINE"
);
},
{
closed = 1;
nodes = (
"324 267 LINE",
"430 261 LINE",
"436 363 LINE",
"317 357 LINE"
);
},
{
closed = 1;
nodes = (
"315 527 LINE",
"423 512 LINE",
"435 411 LINE",
"517 411 LINE",
"530 610 LINE",
"318 610 LINE"
);
}
);
width = 556;
},
{
anchors = (
{
name = bottom;
position = "{258, 0}";
},
{
name = ogonek;
position = "{396, 0}";
},
{
name = top;
position = "{257, 591}";
}
);
background = {
components = (
{
name = H;
transform = "{1, 0, 0, 1, -5, 0}";
}
);
};
layerId = "4F39836F-1187-466E-8FAB-7EBF43C51BB4";
paths = (
{
closed = 1;
nodes = (
"104 569 LINE",
"104 12 LINE SMOOTH",
"104 8 OFFCURVE",
"121 -10 OFFCURVE",
"124 -10 CURVE SMOOTH",
"194 -7 OFFCURVE",
"270 -5 OFFCURVE",
"420 0 CURVE",
"417 122 LINE",
"398 122 LINE",
"388 21 LINE",
"134 22 LINE",
"134 579 LINE SMOOTH",
"134 583 OFFCURVE",
"116 601 OFFCURVE",
"113 601 CURVE SMOOTH",
"106 601 OFFCURVE",
"49 591 OFFCURVE",
"37 589 CURVE",
"37 572 LINE"
);
},
{
closed = 1;
nodes = (
"194 564 OFFCURVE",
"192 540 OFFCURVE",
"192 529 CURVE SMOOTH",
"192 15 LINE",
"210 18 LINE",
"224 38 OFFCURVE",
"222 37 OFFCURVE",
"222 48 CURVE SMOOTH",
"222 591 LINE",
"204 591 LINE"
);
},
{
closed = 1;
nodes = (
"208 293 LINE",
"331 289 LINE",
"335 321 LINE",
"208 318 LINE"
);
},
{
closed = 1;
nodes = (
"213 569 LINE",
"380 560 LINE",
"387 469 LINE",
"406 469 LINE",
"412 591 LINE",
"213 591 LINE"
);
}
);
width = 468;
},
{
anchors = (
{
name = bottom;
position = "{292, 0}";
},
{
name = ogonek;
position = "{454, 0}";
},
{
name = top;
position = "{291, 603}";
}
);
layerId = "555729A4-F539-4650-9C4F-3880CB033E7B";
paths = (
{
closed = 1;
nodes = (
"92 543 LINE",
"92 24 LINE SMOOTH",
"92 17 OFFCURVE",
"117 -9 OFFCURVE",
"126 -9 CURVE SMOOTH",
"237 -7 OFFCURVE",
"309 -5 OFFCURVE",
"478 0 CURVE",
"474 179 LINE",
"420 179 LINE",
"404 45 LINE",
"185 65 LINE",
"185 578 LINE SMOOTH",
"185 584 OFFCURVE",
"159 612 OFFCURVE",
"153 612 CURVE SMOOTH",
"144 612 OFFCURVE",
"61 602 OFFCURVE",
"30 597 CURVE",
"30 558 LINE"
);
},
{
closed = 1;
nodes = (
"254 567 OFFCURVE",
"240 532 OFFCURVE",
"240 517 CURVE SMOOTH",
"240 44 LINE",
"271 44 LINE",
"285 71 OFFCURVE",
"292 93 OFFCURVE",
"292 101 CURVE SMOOTH",
"292 603 LINE",
"267 603 LINE"
);
},
{
closed = 1;
nodes = (
"245 283 LINE",
"387 275 LINE",
"393 342 LINE",
"245 334 LINE"
);
},
{
closed = 1;
nodes = (
"267 550 LINE",
"395 538 LINE",
"406 428 LINE",
"460 428 LINE",
"473 603 LINE",
"270 603 LINE"
);
}
);
width = 529;
}
);
leftKerningGroup = H;
leftMetricsKey = H;
rightKerningGroup = E;
unicode = 0045;
},
{
glyphname = F;
layers = (
{
layerId = "52F4C6DE-93AC-450D-9CD0-4DAC5691B9C2";
paths = (
{
closed = 1;
nodes = (
"315 527 LINE",
"423 512 LINE",
"435 411 LINE",
"517 411 LINE",
"530 610 LINE",
"318 610 LINE"
);
},
{
closed = 1;
nodes = (
"242 572 LINE",
"237 584 OFFCURVE",
"219 615 OFFCURVE",
"194 623 CURVE SMOOTH",
"178 628 OFFCURVE",
"79 616 OFFCURVE",
"25 610 CURVE",
"25 545 LINE",
"75 522 LINE",
"75 39 LINE",
"80 27 OFFCURVE",
"98 -4 OFFCURVE",
"122 -12 CURVE SMOOTH",
"139 -17 OFFCURVE",
"199 -9 OFFCURVE",
"274 1 CURVE",
"308 66 LINE",
"242 89 LINE"
);
},
{
closed = 1;
nodes = (
"324 249 LINE",
"430 233 LINE",
"447 345 LINE",
"317 339 LINE"
);
},
{
closed = 1;
nodes = (
"287 583 OFFCURVE",
"280 559 OFFCURVE",
"280 548 CURVE SMOOTH",
"280 66 LINE",
"308 66 LINE",
"322 93 OFFCURVE",
"334 115 OFFCURVE",
"334 123 CURVE SMOOTH",
"334 610 LINE",
"297 610 LINE"
);
}
);
width = 544;
},
{
layerId = "4F39836F-1187-466E-8FAB-7EBF43C51BB4";
paths = (
{
closed = 1;
nodes = (
"208 569 LINE",
"380 560 LINE",
"387 469 LINE",
"406 469 LINE",
"412 591 LINE",
"208 591 LINE"
);
},
{
closed = 1;
nodes = (
"134 579 LINE SMOOTH",
"134 583 OFFCURVE",
"116 601 OFFCURVE",
"113 601 CURVE SMOOTH",
"106 601 OFFCURVE",
"49 591 OFFCURVE",
"37 589 CURVE",
"37 572 LINE",
"104 569 LINE",
"104 12 LINE SMOOTH",
"104 8 OFFCURVE",
"121 -10 OFFCURVE",
"124 -10 CURVE SMOOTH",
"130 -10 OFFCURVE",
"170 -6 OFFCURVE",
"194 -2 CURVE",
"208 15 LINE",
"134 18 LINE"
);
},
{
closed = 1;
nodes = (
"203 283 LINE",
"335 277 LINE",
"339 311 LINE",
"203 308 LINE"
);
},
{
closed = 1;
nodes = (
"194 564 OFFCURVE",
"192 540 OFFCURVE",
"192 529 CURVE SMOOTH",
"192 15 LINE",
"208 15 LINE",
"218 29 OFFCURVE",
"222 37 OFFCURVE",
"222 48 CURVE SMOOTH",
"222 591 LINE",
"204 591 LINE"
);
}
);
width = 434;
},
{
background = {
paths = (
{
closed = 1;
nodes = (
"245 287 LINE",
"387 279 LINE",
"393 342 LINE",
"245 334 LINE"
);
}
);
};
layerId = "555729A4-F539-4650-9C4F-3880CB033E7B";
paths = (
{
closed = 1;
nodes = (
"267 550 LINE",
"395 538 LINE",
"406 428 LINE",
"460 428 LINE",
"473 603 LINE",
"270 603 LINE"
);
},
{
closed = 1;
nodes = (
"185 578 LINE SMOOTH",
"185 584 OFFCURVE",
"159 612 OFFCURVE",
"153 612 CURVE SMOOTH",
"144 612 OFFCURVE",
"61 602 OFFCURVE",
"30 597 CURVE",
"30 558 LINE",
"92 543 LINE",
"92 24 LINE SMOOTH",
"92 17 OFFCURVE",
"120 -9 OFFCURVE",
"126 -9 CURVE SMOOTH",
"130 -9 OFFCURVE",
"224 3 OFFCURVE",
"252 7 CURVE",
"271 44 LINE",
"185 59 LINE"
);
},
{
closed = 1;
nodes = (
"245 262 LINE",
"391 249 LINE",
"399 323 LINE",
"245 315 LINE"
);
},
{
closed = 1;
nodes = (
"254 567 OFFCURVE",
"240 532 OFFCURVE",
"240 517 CURVE SMOOTH",
"240 44 LINE",
"271 44 LINE",
"285 71 OFFCURVE",
"292 93 OFFCURVE",
"292 101 CURVE SMOOTH",
"292 603 LINE",
"267 603 LINE"
);
}
);
width = 488;
}
);
leftKerningGroup = H;
leftMetricsKey = H;
rightKerningGroup = F;
unicode = 0046;
},
{
glyphname = G;
layers = (
{
anchors = (
{
name = bottom;
position = "{291, 0}";
},
{
name = top;
position = "{302, 610}";
}
);
layerId = "52F4C6DE-93AC-450D-9CD0-4DAC5691B9C2";
paths = (
{
closed = 1;
nodes = (
"164 555 LINE",
"116 525 OFFCURVE",
"72 492 OFFCURVE",
"51 467 CURVE",
"33 423 OFFCURVE",
"21 364 OFFCURVE",
"21 267 CURVE SMOOTH",
"21 156 OFFCURVE",
"45 106 OFFCURVE",
"92 61 CURVE SMOOTH",
"124 31 OFFCURVE",
"267 -12 OFFCURVE",
"302 -12 CURVE SMOOTH",
"322 -12 OFFCURVE",
"484 63 OFFCURVE",
"514 95 CURVE",
"520 126 OFFCURVE",
"527 232 OFFCURVE",
"522 296 CURVE",
"499 320 OFFCURVE",
"399 336 OFFCURVE",
"343 341 CURVE",
"322 222 LINE",
"386 209 LINE",
"386 179 OFFCURVE",
"383 146 OFFCURVE",
"379 114 CURVE",
"342 115 OFFCURVE",
"286 128 OFFCURVE",
"257 139 CURVE SMOOTH",
"211 156 OFFCURVE",
"199 177 OFFCURVE",
"199 309 CURVE SMOOTH",
"199 400 OFFCURVE",
"203 457 OFFCURVE",
"208 520 CURVE"
);
},
{
closed = 1;
nodes = (
"275 108 LINE",
"289 135 OFFCURVE",
"301 157 OFFCURVE",
"301 165 CURVE SMOOTH",
"301 620 LINE",
"264 622 LINE",
"254 595 OFFCURVE",
"247 573 OFFCURVE",
"247 562 CURVE SMOOTH",
"247 108 LINE"
);
},
{
closed = 1;
nodes = (
"512 603 LINE",
"422 618 OFFCURVE",
"337 625 OFFCURVE",
"284 625 CURVE SMOOTH",
"276 625 OFFCURVE",
"270 623 OFFCURVE",
"264 622 CURVE",
"251 532 LINE",
"260 533 OFFCURVE",
"269 534 OFFCURVE",
"279 534 CURVE SMOOTH",
"319 534 OFFCURVE",
"371 528 OFFCURVE",
"403 516 CURVE",
"418 395 LINE",
"499 395 LINE"
);
}
);
width = 555;
},
{
anchors = (
{
name = bottom;
position = "{261, 0}";
},
{
name = top;
position = "{264, 591}";
}
);
layerId = "4F39836F-1187-466E-8FAB-7EBF43C51BB4";
paths = (
{
closed = 1;
nodes = (
"133 533 LINE",
"116 513 OFFCURVE",
"105 499 OFFCURVE",
"90 475 CURVE",
"66 426 OFFCURVE",
"55 358 OFFCURVE",
"55 280 CURVE SMOOTH",
"55 174 OFFCURVE",
"82 105 OFFCURVE",
"111 65 CURVE SMOOTH",
"141 23 OFFCURVE",
"213 -10 OFFCURVE",
"268 -10 CURVE SMOOTH",
"299 -10 OFFCURVE",
"366 -2 OFFCURVE",
"389 5 CURVE",
"394 39 OFFCURVE",
"403 209 OFFCURVE",
"402 235 CURVE",
"392 243 OFFCURVE",
"324 255 OFFCURVE",
"286 259 CURVE",
"282 233 LINE",
"371 218 LINE",
"371 183 OFFCURVE",
"366 57 OFFCURVE",
"361 22 CURVE",
"316 16 OFFCURVE",
"250 10 OFFCURVE",
"199 34 CURVE SMOOTH",
"152 56 OFFCURVE",
"85 103 OFFCURVE",
"85 301 CURVE SMOOTH",
"85 424 OFFCURVE",
"119 483 OFFCURVE",
"145 524 CURVE"
);
},
{
closed = 1;
nodes = (
"204 26 LINE",
"211 37 OFFCURVE",
"218 48 OFFCURVE",
"218 59 CURVE SMOOTH",
"218 582 LINE",
"200 582 LINE",
"190 555 OFFCURVE",
"189 531 OFFCURVE",
"189 520 CURVE SMOOTH",
"189 26 LINE"
);
},
{
closed = 1;
nodes = (
"401 583 LINE",
"372 589 OFFCURVE",
"283 601 OFFCURVE",
"250 601 CURVE SMOOTH",
"240 601 OFFCURVE",
"220 593 OFFCURVE",
"200 582 CURVE",
"212 560 LINE",
"230 569 OFFCURVE",
"244 573 OFFCURVE",
"254 573 CURVE SMOOTH",
"288 573 OFFCURVE",
"349 564 OFFCURVE",
"369 560 CURVE",
"376 457 LINE",
"395 457 LINE"
);
}
);
width = 466;
},
{
anchors = (
{
name = bottom;
position = "{258, 0}";
},
{
name = top;
position = "{281, 603}";
}
);
layerId = "555729A4-F539-4650-9C4F-3880CB033E7B";
paths = (
{
closed = 1;
nodes = (
"136 563 LINE",
"110 541 OFFCURVE",
"84 515 OFFCURVE",
"70 494 CURVE",
"52 449 OFFCURVE",
"40 369 OFFCURVE",
"40 277 CURVE SMOOTH",
"40 171 OFFCURVE",
"61 106 OFFCURVE",
"95 61 CURVE SMOOTH",
"132 12 OFFCURVE",
"241 -9 OFFCURVE",
"283 -9 CURVE SMOOTH",
"309 -9 OFFCURVE",
"425 39 OFFCURVE",
"448 60 CURVE",
"455 78 OFFCURVE",
"457 228 OFFCURVE",
"452 282 CURVE",
"440 299 OFFCURVE",
"361 311 OFFCURVE",
"305 314 CURVE",
"292 225 LINE",
"366 205 LINE",
"367 177 OFFCURVE",
"364 90 OFFCURVE",
"360 70 CURVE",
"316 68 OFFCURVE",
"253 71 OFFCURVE",
"224 81 CURVE SMOOTH",
"191 92 OFFCURVE",
"139 113 OFFCURVE",
"139 312 CURVE SMOOTH",
"139 415 OFFCURVE",
"150 472 OFFCURVE",
"162 544 CURVE"
);
},
{
closed = 1;
nodes = (
"235 76 LINE",
"249 106 OFFCURVE",
"256 125 OFFCURVE",
"256 133 CURVE SMOOTH",
"256 609 LINE",
"231 609 LINE",
"218 573 OFFCURVE",
"204 538 OFFCURVE",
"204 523 CURVE SMOOTH",
"204 76 LINE"
);
},
{
closed = 1;
nodes = (
"441 602 LINE",
"381 607 OFFCURVE",
"266 612 OFFCURVE",
"246 612 CURVE SMOOTH",
"241 612 OFFCURVE",
"237 611 OFFCURVE",
"231 609 CURVE",
"221 542 LINE",
"228 543 OFFCURVE",
"238 544 OFFCURVE",
"251 544 CURVE SMOOTH",
"272 544 OFFCURVE",
"338 537 OFFCURVE",
"363 531 CURVE",
"375 429 LINE",
"429 429 LINE"
);
}
);
width = 516;
}
);
leftKerningGroup = O;
leftMetricsKey = O;
rightKerningGroup = G;
unicode = 0047;
},
{
glyphname = H;
layers = (
{
anchors = (
{
name = bottom;
position = "{330, 0}";
},
{
name = center;
position = "{329, 459}";
},
{
name = top;
position = "{329, 610}";
}
);
layerId = "52F4C6DE-93AC-450D-9CD0-4DAC5691B9C2";
paths = (
{
closed = 1;
nodes = (
"75 39 LINE",
"80 27 OFFCURVE",
"98 -4 OFFCURVE",
"123 -12 CURVE SMOOTH",
"139 -17 OFFCURVE",
"220 -5 OFFCURVE",
"274 1 CURVE",
"308 66 LINE",
"242 89 LINE",
"242 572 LINE",
"237 584 OFFCURVE",
"219 615 OFFCURVE",
"194 623 CURVE SMOOTH",
"178 628 OFFCURVE",
"79 616 OFFCURVE",
"25 610 CURVE",
"25 545 LINE",
"75 522 LINE"
);
},
{
closed = 1;
nodes = (
"417 39 LINE",
"422 27 OFFCURVE",
"440 -4 OFFCURVE",
"465 -12 CURVE SMOOTH",
"481 -17 OFFCURVE",
"580 -5 OFFCURVE",
"634 1 CURVE",
"634 66 LINE",
"584 89 LINE",
"584 572 LINE",
"579 584 OFFCURVE",
"561 615 OFFCURVE",
"536 623 CURVE SMOOTH",
"520 628 OFFCURVE",
"429 616 OFFCURVE",
"375 610 CURVE",
"375 545 LINE",
"417 522 LINE"
);
},
{
closed = 1;
nodes = (
"287 270 LINE",
"437 262 LINE",
"437 363 LINE",
"287 355 LINE"
);
},
{
closed = 1;
nodes = (
"287 583 OFFCURVE",
"280 559 OFFCURVE",
"280 548 CURVE SMOOTH",
"280 66 LINE",
"308 66 LINE",
"322 93 OFFCURVE",
"334 115 OFFCURVE",
"334 123 CURVE SMOOTH",
"334 610 LINE",
"297 610 LINE"
);
}
);
width = 658;
},
{
anchors = (
{
name = bottom;
position = "{288, 0}";
},
{
name = center;
position = "{284, 441}";
},
{
name = top;
position = "{285, 591}";
}
);
background = {
paths = (
{
closed = 1;
nodes = (
"195 0 LINE",
"195 18 LINE",
"134 27 LINE",
"134 292 LINE",
"411 292 LINE",
"411 27 LINE",
"350 18 LINE",
"350 0 LINE",
"498 0 LINE",
"498 17 LINE",
"441 25 LINE",
"441 566 LINE",
"498 574 LINE",
"498 591 LINE",
"350 591 LINE",
"350 573 LINE",
"411 564 LINE",
"411 319 LINE",
"134 319 LINE",
"134 564 LINE",
"195 573 LINE",
"195 591 LINE",
"47 591 LINE",
"47 574 LINE",
"104 566 LINE",
"104 25 LINE",
"47 17 LINE",
"47 0 LINE"
);
}
);
};
layerId = "4F39836F-1187-466E-8FAB-7EBF43C51BB4";
paths = (
{
closed = 1;
nodes = (
"104 12 LINE SMOOTH",
"104 8 OFFCURVE",
"121 -10 OFFCURVE",
"124 -10 CURVE SMOOTH",
"130 -10 OFFCURVE",
"170 -6 OFFCURVE",
"194 -2 CURVE",
"208 15 LINE",
"134 18 LINE",
"134 579 LINE SMOOTH",
"134 583 OFFCURVE",
"116 601 OFFCURVE",
"113 601 CURVE SMOOTH",
"106 601 OFFCURVE",
"49 591 OFFCURVE",
"37 589 CURVE",
"37 572 LINE",
"104 569 LINE"
);
},
{
closed = 1;
nodes = (
"411 12 LINE SMOOTH",
"411 8 OFFCURVE",
"429 -10 OFFCURVE",
"432 -10 CURVE SMOOTH",
"439 -10 OFFCURVE",
"496 0 OFFCURVE",
"508 2 CURVE",
"508 19 LINE",
"441 22 LINE",
"441 579 LINE SMOOTH",
"441 583 OFFCURVE",
"423 601 OFFCURVE",
"420 601 CURVE SMOOTH",
"413 601 OFFCURVE",
"356 591 OFFCURVE",
"344 589 CURVE",
"344 572 LINE",
"411 569 LINE"
);
},
{
closed = 1;
nodes = (
"208 293 LINE",
"427 291 LINE",
"427 320 LINE",
"208 318 LINE"
);
},
{
closed = 1;
nodes = (
"194 564 OFFCURVE",
"192 540 OFFCURVE",
"192 529 CURVE SMOOTH",
"192 15 LINE",
"208 15 LINE",
"222 35 OFFCURVE",
"222 37 OFFCURVE",
"222 48 CURVE SMOOTH",
"222 591 LINE",
"204 591 LINE"
);
}
);
width = 545;
},
{
anchors = (
{
name = bottom;
position = "{296, 0}";
},
{
name = center;
position = "{298, 448}";
},
{
name = top;
position = "{298, 603}";
}
);
background = {
paths = (
{
closed = 1;
nodes = (
"251 0 LINE",
"251 43 LINE",
"185 63 LINE",
"185 284 LINE",
"412 284 LINE",
"412 63 LINE",
"346 43 LINE",
"346 0 LINE",
"567 0 LINE",
"567 38 LINE",
"505 58 LINE",
"505 545 LINE",
"567 565 LINE",
"567 603 LINE",
"346 603 LINE",
"346 560 LINE",
"412 540 LINE",
"412 337 LINE",
"185 337 LINE",
"185 540 LINE",
"251 560 LINE",
"251 603 LINE",
"30 603 LINE",
"30 565 LINE",
"92 545 LINE",
"92 58 LINE",
"30 38 LINE",
"30 0 LINE"
);
}
);
};
layerId = "555729A4-F539-4650-9C4F-3880CB033E7B";
paths = (
{
closed = 1;
nodes = (
"92 24 LINE SMOOTH",
"92 17 OFFCURVE",
"120 -9 OFFCURVE",
"126 -9 CURVE SMOOTH",
"130 -9 OFFCURVE",
"224 3 OFFCURVE",
"252 7 CURVE",
"271 44 LINE",
"185 59 LINE",
"185 578 LINE SMOOTH",
"185 584 OFFCURVE",
"159 612 OFFCURVE",
"153 612 CURVE SMOOTH",
"144 612 OFFCURVE",
"61 602 OFFCURVE",
"30 597 CURVE",
"30 558 LINE",
"92 543 LINE"
);
},
{
closed = 1;
nodes = (
"412 25 LINE SMOOTH",
"412 19 OFFCURVE",
"438 -9 OFFCURVE",
"444 -9 CURVE SMOOTH",
"452 -9 OFFCURVE",
"536 1 OFFCURVE",
"567 6 CURVE",
"567 45 LINE",
"505 60 LINE",
"505 578 LINE SMOOTH",
"505 584 OFFCURVE",
"479 612 OFFCURVE",
"473 612 CURVE SMOOTH",
"464 612 OFFCURVE",
"381 602 OFFCURVE",
"350 597 CURVE",
"350 558 LINE",
"412 543 LINE"
);
},
{
closed = 1;
nodes = (
"245 287 LINE",
"437 279 LINE",
"437 342 LINE",
"245 334 LINE"
);
},
{
closed = 1;
nodes = (
"254 567 OFFCURVE",
"240 532 OFFCURVE",
"240 517 CURVE SMOOTH",
"240 44 LINE",
"271 44 LINE",
"285 71 OFFCURVE",
"292 93 OFFCURVE",
"292 101 CURVE SMOOTH",
"292 603 LINE",
"267 603 LINE"
);
}
);
width = 597;
}
);
leftKerningGroup = H;
rightKerningGroup = H;
unicode = 0048;
},
{
glyphname = Hbar;
layers = (
{
color = 1;
layerId = "52F4C6DE-93AC-450D-9CD0-4DAC5691B9C2";
paths = (
{
closed = 1;
nodes = (
"75 39 LINE",
"80 27 OFFCURVE",
"98 -4 OFFCURVE",
"123 -12 CURVE SMOOTH",
"139 -17 OFFCURVE",
"220 -5 OFFCURVE",
"274 1 CURVE",
"308 66 LINE",
"242 89 LINE",
"242 572 LINE",
"237 584 OFFCURVE",
"219 615 OFFCURVE",
"194 623 CURVE SMOOTH",
"178 628 OFFCURVE",
"79 616 OFFCURVE",
"25 610 CURVE",
"25 545 LINE",
"75 522 LINE"
);
},
{
closed = 1;
nodes = (
"417 39 LINE",
"422 27 OFFCURVE",
"440 -4 OFFCURVE",
"465 -12 CURVE SMOOTH",
"481 -17 OFFCURVE",
"580 -5 OFFCURVE",
"634 1 CURVE",
"634 66 LINE",
"584 89 LINE",
"584 572 LINE",
"579 584 OFFCURVE",
"561 615 OFFCURVE",
"536 623 CURVE SMOOTH",
"520 628 OFFCURVE",
"429 616 OFFCURVE",
"375 610 CURVE",
"375 545 LINE",
"417 522 LINE"
);
},
{
closed = 1;
nodes = (
"292 270 LINE",
"437 262 LINE",
"437 363 LINE",
"292 355 LINE"
);
},
{
closed = 1;
nodes = (
"287 583 OFFCURVE",
"280 559 OFFCURVE",
"280 548 CURVE SMOOTH",
"280 66 LINE",
"308 66 LINE",
"322 93 OFFCURVE",
"334 115 OFFCURVE",
"334 123 CURVE SMOOTH",
"334 610 LINE",
"297 610 LINE"
);
},
{
closed = 1;
nodes = (
"306 407 LINE",
"639 400 LINE",
"639 480 LINE",
"310 477 LINE"
);
},
{
closed = 1;
nodes = (
"198 477 LINE",
"25 484 LINE",
"25 404 LINE",
"196 407 LINE"
);
}
);
width = 658;
},
{
color = 1;
layerId = "4F39836F-1187-466E-8FAB-7EBF43C51BB4";
paths = (
{
closed = 1;
nodes = (
"104 12 LINE SMOOTH",
"104 8 OFFCURVE",
"121 -10 OFFCURVE",
"124 -10 CURVE SMOOTH",
"130 -10 OFFCURVE",
"160 -6 OFFCURVE",
"184 -2 CURVE",
"198 15 LINE",
"134 18 LINE",
"134 579 LINE SMOOTH",
"134 583 OFFCURVE",
"116 601 OFFCURVE",
"113 601 CURVE SMOOTH",
"106 601 OFFCURVE",
"49 591 OFFCURVE",
"37 589 CURVE",
"37 572 LINE",
"104 569 LINE"
);
},
{
closed = 1;
nodes = (
"411 12 LINE SMOOTH",
"411 8 OFFCURVE",
"429 -10 OFFCURVE",
"432 -10 CURVE SMOOTH",
"439 -10 OFFCURVE",
"496 0 OFFCURVE",
"508 2 CURVE",
"508 19 LINE",
"441 22 LINE",
"441 579 LINE SMOOTH",
"441 583 OFFCURVE",
"423 601 OFFCURVE",
"420 601 CURVE SMOOTH",
"413 601 OFFCURVE",
"356 591 OFFCURVE",
"344 589 CURVE",
"344 572 LINE",
"411 569 LINE"
);
},
{
closed = 1;
nodes = (
"198 293 LINE",
"427 291 LINE",
"427 320 LINE",
"198 318 LINE"
);
},
{
closed = 1;
nodes = (
"184 564 OFFCURVE",
"182 540 OFFCURVE",
"182 529 CURVE SMOOTH",
"182 15 LINE",
"198 15 LINE",
"212 35 OFFCURVE",
"212 37 OFFCURVE",
"212 48 CURVE SMOOTH",
"212 591 LINE",
"194 591 LINE"
);
},
{
closed = 1;
nodes = (
"195 432 LINE",
"479 430 LINE",
"479 452 LINE",
"195 450 LINE"
);
},
{
closed = 1;
nodes = (
"121 450 LINE",
"52 452 LINE",
"52 430 LINE",
"121 432 LINE"
);
}
);
width = 545;
},
{
color = 1;
layerId = "555729A4-F539-4650-9C4F-3880CB033E7B";
paths = (
{
closed = 1;
nodes = (
"92 24 LINE SMOOTH",
"92 17 OFFCURVE",
"120 -9 OFFCURVE",
"126 -9 CURVE SMOOTH",
"130 -9 OFFCURVE",
"224 3 OFFCURVE",
"252 7 CURVE",
"271 44 LINE",
"185 59 LINE",
"185 578 LINE SMOOTH",
"185 584 OFFCURVE",
"159 612 OFFCURVE",
"153 612 CURVE SMOOTH",
"144 612 OFFCURVE",
"61 602 OFFCURVE",
"30 597 CURVE",
"30 558 LINE",
"92 543 LINE"
);
},
{
closed = 1;
nodes = (
"412 25 LINE SMOOTH",
"412 19 OFFCURVE",
"438 -9 OFFCURVE",
"444 -9 CURVE SMOOTH",
"452 -9 OFFCURVE",
"536 1 OFFCURVE",
"567 6 CURVE",
"567 45 LINE",
"505 60 LINE",
"505 578 LINE SMOOTH",
"505 584 OFFCURVE",
"479 612 OFFCURVE",
"473 612 CURVE SMOOTH",
"464 612 OFFCURVE",
"381 602 OFFCURVE",
"350 597 CURVE",
"350 558 LINE",
"412 543 LINE"
);
},
{
closed = 1;
nodes = (
"245 287 LINE",
"437 279 LINE",
"437 342 LINE",
"245 334 LINE"
);
},
{
closed = 1;
nodes = (
"254 567 OFFCURVE",
"240 532 OFFCURVE",
"240 517 CURVE SMOOTH",
"240 44 LINE",
"271 44 LINE",
"285 71 OFFCURVE",
"292 93 OFFCURVE",
"292 101 CURVE SMOOTH",
"292 603 LINE",
"267 603 LINE"
);
},
{
closed = 1;
nodes = (
"259 424 LINE",
"555 419 LINE",
"556 472 LINE",
"259 467 LINE"
);
},
{
closed = 1;
nodes = (
"163 467 LINE",
"40 472 LINE",
"40 419 LINE",
"163 424 LINE"
);
}
);
width = 597;
}
);
leftKerningGroup = H;
rightKerningGroup = H;
unicode = 0126;
},
{
glyphname = I;
layers = (
{
anchors = (
{
name = bottom;
position = "{162, 0}";
},
{
name = ogonek;
position = "{185, 30}";
},
{
name = top;
position = "{196, 610}";
}
);
layerId = "52F4C6DE-93AC-450D-9CD0-4DAC5691B9C2";
paths = (
{
closed = 1;
nodes = (
"277 631 OFFCURVE",
"166 621 OFFCURVE",
"17 610 CURVE",
"17 545 LINE",
"120 506 LINE",
"294 506 LINE",
"296 500 LINE",
"281 452 OFFCURVE",
"282 378 OFFCURVE",
"282 318 CURVE SMOOTH",
"282 271 OFFCURVE",
"286 228 OFFCURVE",
"287 187 CURVE SMOOTH",
"288 145 OFFCURVE",
"289 106 OFFCURVE",
"282 66 CURVE",
"310 66 LINE",
"324 93 OFFCURVE",
"341 124 OFFCURVE",
"342 141 CURVE SMOOTH",
"346 235 OFFCURVE",
"336 311 OFFCURVE",
"336 405 CURVE SMOOTH",
"336 452 OFFCURVE",
"336 519 OFFCURVE",
"341 575 CURVE",
"336 587 OFFCURVE",
"318 618 OFFCURVE",
"293 626 CURVE SMOOTH"
);
},
{
closed = 1;
nodes = (
"77 39 LINE",
"82 27 OFFCURVE",
"100 -4 OFFCURVE",
"125 -12 CURVE SMOOTH",
"141 -17 OFFCURVE",
"222 -5 OFFCURVE",
"276 1 CURVE",
"310 66 LINE",
"244 89 LINE",
"244 514 LINE",
"77 562 LINE"
);
}
);
width = 394;
},
{
anchors = (
{
name = bottom;
position = "{161, 0}";
},
{
name = ogonek;
position = "{167, 5}";
},
{
name = top;
position = "{159, 610}";
}
);
layerId = "4F39836F-1187-466E-8FAB-7EBF43C51BB4";
paths = (
{
closed = 1;
nodes = (
"201 603 OFFCURVE",
"106 595 OFFCURVE",
"37 589 CURVE",
"37 572 LINE",
"107 569 LINE",
"197 569 LINE",
"199 565 LINE",
"193 495 OFFCURVE",
"192 435 OFFCURVE",
"192 388 CURVE SMOOTH",
"192 283 OFFCURVE",
"196 232 OFFCURVE",
"196 118 CURVE SMOOTH",
"196 77 OFFCURVE",
"195 39 OFFCURVE",
"191 9 CURVE",
"208 15 LINE",
"222 35 OFFCURVE",
"222 37 OFFCURVE",
"223 48 CURVE SMOOTH",
"225 90 OFFCURVE",
"219 271 OFFCURVE",
"219 362 CURVE SMOOTH",
"219 435 OFFCURVE",
"221 517 OFFCURVE",
"228 578 CURVE",
"225 585 OFFCURVE",
"216 599 OFFCURVE",
"212 600 CURVE SMOOTH"
);
},
{
closed = 1;
nodes = (
"104 12 LINE SMOOTH",
"104 8 OFFCURVE",
"121 -10 OFFCURVE",
"124 -10 CURVE SMOOTH",
"130 -10 OFFCURVE",
"170 -6 OFFCURVE",
"194 -2 CURVE",
"208 15 LINE",
"134 18 LINE",
"134 576 LINE",
"104 586 LINE"
);
}
);
width = 311;
},
{
anchors = (
{
name = bottom;
position = "{188, 0}";
},
{
name = ogonek;
position = "{215, 24}";
},
{
name = top;
position = "{189, 610}";
}
);
layerId = "555729A4-F539-4650-9C4F-3880CB033E7B";
paths = (
{
closed = 1;
nodes = (
"242 617 OFFCURVE",
"133 608 OFFCURVE",
"20 597 CURVE",
"20 558 LINE",
"120 536 LINE",
"246 536 LINE",
"248 530 LINE",
"234 490 OFFCURVE",
"234 408 OFFCURVE",
"234 355 CURVE SMOOTH",
"234 271 OFFCURVE",
"242 201 OFFCURVE",
"242 137 CURVE SMOOTH",
"242 105 OFFCURVE",
"240 74 OFFCURVE",
"234 44 CURVE",
"265 44 LINE",
"279 71 OFFCURVE",
"290 93 OFFCURVE",
"290 101 CURVE SMOOTH",
"289 186 OFFCURVE",
"286 271 OFFCURVE",
"286 356 CURVE SMOOTH",
"286 423 OFFCURVE",
"286 512 OFFCURVE",
"290 568 CURVE",
"283 582 OFFCURVE",
"269 597 OFFCURVE",
"255 607 CURVE SMOOTH"
);
},
{
closed = 1;
nodes = (
"86 24 LINE SMOOTH",
"86 17 OFFCURVE",
"114 -9 OFFCURVE",
"120 -9 CURVE SMOOTH",
"124 -9 OFFCURVE",
"218 3 OFFCURVE",
"246 7 CURVE",
"265 44 LINE",
"179 59 LINE",
"179 543 LINE",
"86 563 LINE"
);
}
);
width = 365;
}
);
leftKerningGroup = I;
rightKerningGroup = I;
unicode = 0049;
},
{
glyphname = J;
layers = (
{
anchors = (
{
name = top;
position = "{207, 610}";
}
);
background = {
paths = (
{
closed = 1;
nodes = (
"281 631 OFFCURVE",
"170 621 OFFCURVE",
"21 610 CURVE",
"21 545 LINE",
"124 506 LINE",
"298 506 LINE",
"300 500 LINE",
"285 452 OFFCURVE",
"286 378 OFFCURVE",
"286 318 CURVE SMOOTH",
"286 271 OFFCURVE",
"290 228 OFFCURVE",
"291 187 CURVE SMOOTH",
"292 145 OFFCURVE",
"293 106 OFFCURVE",
"286 66 CURVE",
"314 66 LINE",
"328 93 OFFCURVE",
"345 124 OFFCURVE",
"346 141 CURVE SMOOTH",
"352 235 OFFCURVE",
"340 311 OFFCURVE",
"340 405 CURVE SMOOTH",
"340 452 OFFCURVE",
"340 519 OFFCURVE",
"345 575 CURVE",
"340 587 OFFCURVE",
"322 618 OFFCURVE",
"297 626 CURVE SMOOTH"
);
},
{
closed = 1;
nodes = (
"81 39 LINE",
"86 27 OFFCURVE",
"104 -4 OFFCURVE",
"129 -12 CURVE SMOOTH",
"145 -17 OFFCURVE",
"226 -5 OFFCURVE",
"280 1 CURVE",
"314 66 LINE",
"248 89 LINE",
"248 514 LINE",
"81 562 LINE"
);
}
);
};
layerId = "52F4C6DE-93AC-450D-9CD0-4DAC5691B9C2";
paths = (
{
closed = 1;
nodes = (
"281 632 OFFCURVE",
"150 621 OFFCURVE",
"1 610 CURVE",
"1 545 LINE",
"124 506 LINE",
"298 506 LINE",
"300 500 LINE",
"285 452 OFFCURVE",
"286 378 OFFCURVE",
"286 318 CURVE SMOOTH",
"286 272 OFFCURVE",
"302 57 OFFCURVE",
"290 -22 CURVE SMOOTH",
"281 -83 OFFCURVE",
"181 -119 OFFCURVE",
"-15 -195 CURVE",
"0 -236 LINE",
"240 -169 OFFCURVE",
"336 -102 OFFCURVE",
"346 -31 CURVE SMOOTH",
"359 63 OFFCURVE",
"340 311 OFFCURVE",
"340 405 CURVE SMOOTH",
"340 452 OFFCURVE",
"340 519 OFFCURVE",
"345 575 CURVE",
"340 587 OFFCURVE",
"322 618 OFFCURVE",
"298 626 CURVE SMOOTH"
);
},
{
closed = 1;
nodes = (
"81 -191 LINE",
"248 -91 LINE",
"248 522 LINE",
"81 522 LINE"
);
}
);
width = 402;
},
{
anchors = (
{
name = top;
position = "{166, 591}";
}
);
background = {
paths = (
{
closed = 1;
nodes = (
"205 603 OFFCURVE",
"110 595 OFFCURVE",
"41 589 CURVE",
"41 572 LINE",
"111 569 LINE",
"201 569 LINE",
"203 565 LINE",
"197 495 OFFCURVE",
"196 435 OFFCURVE",
"196 388 CURVE SMOOTH",
"196 283 OFFCURVE",
"200 232 OFFCURVE",
"200 118 CURVE SMOOTH",
"200 77 OFFCURVE",
"199 39 OFFCURVE",
"195 9 CURVE",
"212 15 LINE",
"226 35 OFFCURVE",
"226 37 OFFCURVE",
"227 48 CURVE SMOOTH",
"231 90 OFFCURVE",
"223 271 OFFCURVE",
"223 362 CURVE SMOOTH",
"223 435 OFFCURVE",
"225 517 OFFCURVE",
"232 578 CURVE",
"229 585 OFFCURVE",
"220 599 OFFCURVE",
"216 600 CURVE SMOOTH"
);
},
{
closed = 1;
nodes = (
"108 12 LINE SMOOTH",
"108 8 OFFCURVE",
"125 -10 OFFCURVE",
"128 -10 CURVE SMOOTH",
"134 -10 OFFCURVE",
"174 -6 OFFCURVE",
"198 -2 CURVE",
"212 15 LINE",
"138 18 LINE",
"138 576 LINE",
"108 586 LINE"
);
}
);
};
layerId = "4F39836F-1187-466E-8FAB-7EBF43C51BB4";
paths = (
{
closed = 1;
nodes = (
"205 603 OFFCURVE",
"90 595 OFFCURVE",
"21 589 CURVE",
"21 572 LINE",
"111 569 LINE",
"201 569 LINE",
"203 565 LINE",
"195 478 OFFCURVE",
"196 405 OFFCURVE",
"196 355 CURVE SMOOTH",
"196 321 OFFCURVE",
"202 77 OFFCURVE",
"202 32 CURVE SMOOTH",
"202 -29 OFFCURVE",
"84 -81 OFFCURVE",
"16 -106 CURVE",
"25 -130 LINE",
"120 -98 OFFCURVE",
"210 -50 OFFCURVE",
"230 8 CURVE",
"233 52 OFFCURVE",
"223 206 OFFCURVE",
"223 362 CURVE SMOOTH",
"223 435 OFFCURVE",
"227 511 OFFCURVE",
"232 578 CURVE",
"229 585 OFFCURVE",
"220 599 OFFCURVE",
"216 600 CURVE SMOOTH"
);
},
{
closed = 1;
nodes = (
"108 -70 LINE",
"138 -61 LINE",
"138 576 LINE",
"108 586 LINE"
);
}
);
width = 315;
},
{
anchors = (
{
name = top;
position = "{191, 603}";
}
);
background = {
paths = (
{
closed = 1;
nodes = (
"250 617 OFFCURVE",
"141 608 OFFCURVE",
"28 597 CURVE",
"28 558 LINE",
"128 536 LINE",
"254 536 LINE",
"256 530 LINE",
"242 490 OFFCURVE",
"242 408 OFFCURVE",
"242 355 CURVE SMOOTH",
"242 271 OFFCURVE",
"250 201 OFFCURVE",
"250 137 CURVE SMOOTH",
"250 105 OFFCURVE",
"248 74 OFFCURVE",
"242 44 CURVE",
"273 44 LINE",
"287 71 OFFCURVE",
"298 93 OFFCURVE",
"298 101 CURVE SMOOTH",
"298 186 OFFCURVE",
"294 271 OFFCURVE",
"294 356 CURVE SMOOTH",
"294 423 OFFCURVE",
"294 512 OFFCURVE",
"298 568 CURVE",
"291 582 OFFCURVE",
"277 597 OFFCURVE",
"263 607 CURVE SMOOTH"
);
},
{
closed = 1;
nodes = (
"94 24 LINE SMOOTH",
"94 17 OFFCURVE",
"122 -9 OFFCURVE",
"128 -9 CURVE SMOOTH",
"132 -9 OFFCURVE",
"226 3 OFFCURVE",
"254 7 CURVE",
"273 44 LINE",
"187 59 LINE",
"187 543 LINE",
"94 563 LINE"
);
}
);
};
layerId = "555729A4-F539-4650-9C4F-3880CB033E7B";
paths = (
{
closed = 1;
nodes = (
"250 617 OFFCURVE",
"126 608 OFFCURVE",
"13 597 CURVE",
"13 558 LINE",
"128 536 LINE",
"254 536 LINE",
"256 530 LINE",
"242 490 OFFCURVE",
"242 408 OFFCURVE",
"242 355 CURVE SMOOTH",
"242 195 OFFCURVE",
"254 101 OFFCURVE",
"241 42 CURVE SMOOTH",
"226 -24 OFFCURVE",
"154 -49 OFFCURVE",
"19 -114 CURVE",
"34 -151 LINE",
"178 -99 OFFCURVE",
"295 -45 OFFCURVE",
"300 49 CURVE SMOOTH",
"304 127 OFFCURVE",
"294 241 OFFCURVE",
"294 356 CURVE SMOOTH",
"294 423 OFFCURVE",
"294 512 OFFCURVE",
"298 568 CURVE",
"291 582 OFFCURVE",
"277 597 OFFCURVE",
"263 607 CURVE SMOOTH"
);
},
{
closed = 1;
nodes = (
"94 -106 LINE",
"187 -50 LINE",
"187 543 LINE",
"94 543 LINE"
);
}
);
width = 376;
}
);
leftKerningGroup = J;
rightKerningGroup = J;
rightMetricsKey = I;
unicode = 004A;
},
{
glyphname = K;
layers = (
{
anchors = (
{
name = bottom;
position = "{343, 0}";
}
);
layerId = "52F4C6DE-93AC-450D-9CD0-4DAC5691B9C2";
paths = (
{
closed = 1;
nodes = (
"441 -1 OFFCURVE",
"558 -17 OFFCURVE",
"632 -13 CURVE",
"655 60 LINE",
"600 89 LINE",
"571 138 OFFCURVE",
"525 255 OFFCURVE",
"497 334 CURVE",
"615 569 LINE",
"612 584 OFFCURVE",
"594 616 OFFCURVE",
"569 624 CURVE SMOOTH",
"553 629 OFFCURVE",
"458 616 OFFCURVE",
"400 610 CURVE",
"400 545 LINE",
"446 532 LINE",
"377 330 LINE",
"350 276 LINE",
"379 179 OFFCURVE",
"410 78 OFFCURVE",
"434 16 CURVE SMOOTH"
);
},
{
closed = 1;
nodes = (
"75 39 LINE",
"80 27 OFFCURVE",
"98 -4 OFFCURVE",
"123 -12 CURVE SMOOTH",
"139 -17 OFFCURVE",
"220 -5 OFFCURVE",
"274 1 CURVE",
"308 66 LINE",
"242 89 LINE",
"242 572 LINE",
"237 584 OFFCURVE",
"219 615 OFFCURVE",
"194 623 CURVE SMOOTH",
"178 628 OFFCURVE",
"79 616 OFFCURVE",
"25 610 CURVE",
"25 545 LINE",
"75 522 LINE"
);
},
{
closed = 1;
nodes = (
"287 583 OFFCURVE",
"280 559 OFFCURVE",
"280 548 CURVE SMOOTH",
"280 66 LINE",
"308 66 LINE",
"322 93 OFFCURVE",
"334 115 OFFCURVE",
"334 123 CURVE SMOOTH",
"334 610 LINE",
"297 610 LINE"
);
},
{
closed = 1;
nodes = (
"292 289 LINE",
"437 240 LINE",
"437 357 LINE",
"292 355 LINE"
);
}
);
width = 631;
},
{
anchors = (
{
name = bottom;
position = "{254, 0}";
}
);
background = {
paths = (
{
closed = 1;
nodes = (
"414 12 LINE SMOOTH",
"414 8 OFFCURVE",
"432 -10 OFFCURVE",
"435 -10 CURVE SMOOTH",
"442 -10 OFFCURVE",
"499 0 OFFCURVE",
"511 2 CURVE",
"511 19 LINE",
"444 22 LINE",
"444 579 LINE SMOOTH",
"444 583 OFFCURVE",
"426 601 OFFCURVE",
"423 601 CURVE SMOOTH",
"416 601 OFFCURVE",
"359 591 OFFCURVE",
"347 589 CURVE",
"347 572 LINE",
"414 569 LINE"
);
}
);
};
layerId = "4F39836F-1187-466E-8FAB-7EBF43C51BB4";
paths = (
{
closed = 1;
nodes = (
"438 0 OFFCURVE",
"482 -3 OFFCURVE",
"510 -2 CURVE",
"512 17 LINE",
"456 25 LINE",
"415 86 OFFCURVE",
"340 222 OFFCURVE",
"294 310 CURVE",
"444 579 LINE",
"444 583 OFFCURVE",
"426 601 OFFCURVE",
"423 601 CURVE SMOOTH",
"416 601 OFFCURVE",
"359 591 OFFCURVE",
"347 589 CURVE",
"347 572 LINE",
"405 569 LINE",
"270 317 LINE",
"265 302 LINE",
"323 194 OFFCURVE",
"395 66 OFFCURVE",
"434 6 CURVE SMOOTH"
);
},
{
closed = 1;
nodes = (
"104 12 LINE SMOOTH",
"104 8 OFFCURVE",
"121 -10 OFFCURVE",
"124 -10 CURVE SMOOTH",
"130 -10 OFFCURVE",
"170 -6 OFFCURVE",
"194 -2 CURVE",
"208 15 LINE",
"134 18 LINE",
"134 579 LINE SMOOTH",
"134 583 OFFCURVE",
"116 601 OFFCURVE",
"113 601 CURVE SMOOTH",
"106 601 OFFCURVE",
"49 591 OFFCURVE",
"37 589 CURVE",
"37 572 LINE",
"104 569 LINE"
);
},
{
closed = 1;
nodes = (
"194 564 OFFCURVE",
"192 540 OFFCURVE",
"192 529 CURVE SMOOTH",
"192 15 LINE",
"208 15 LINE",
"222 35 OFFCURVE",
"222 37 OFFCURVE",
"222 48 CURVE SMOOTH",
"222 591 LINE",
"204 591 LINE"
);
},
{
closed = 1;
nodes = (
"208 294 LINE",
"277 292 LINE",
"277 320 LINE",
"208 318 LINE"
);
}
);
width = 498;
},
{
anchors = (
{
name = bottom;
position = "{291, 0}";
}
);
background = {
paths = (
{
closed = 1;
nodes = (
"407 25 LINE SMOOTH",
"407 19 OFFCURVE",
"433 -9 OFFCURVE",
"439 -9 CURVE SMOOTH",
"447 -9 OFFCURVE",
"531 1 OFFCURVE",
"562 6 CURVE",
"562 45 LINE",
"500 60 LINE",
"500 578 LINE SMOOTH",
"500 584 OFFCURVE",
"474 612 OFFCURVE",
"468 612 CURVE SMOOTH",
"459 612 OFFCURVE",
"376 602 OFFCURVE",
"345 597 CURVE",
"345 558 LINE",
"407 543 LINE"
);
}
);
};
layerId = "555729A4-F539-4650-9C4F-3880CB033E7B";
paths = (
{
closed = 1;
nodes = (
"444 0 OFFCURVE",
"524 -8 OFFCURVE",
"573 -5 CURVE",
"580 42 LINE",
"527 58 LINE",
"489 122 OFFCURVE",
"433 240 OFFCURVE",
"403 320 CURVE",
"501 578 LINE",
"500 584 OFFCURVE",
"474 612 OFFCURVE",
"468 612 CURVE SMOOTH",
"459 612 OFFCURVE",
"376 602 OFFCURVE",
"345 597 CURVE",
"345 558 LINE",
"395 544 LINE",
"332 320 LINE",
"319 292 LINE",
"350 205 OFFCURVE",
"397 88 OFFCURVE",
"435 16 CURVE SMOOTH"
);
},
{
closed = 1;
nodes = (
"92 24 LINE SMOOTH",
"92 17 OFFCURVE",
"120 -9 OFFCURVE",
"126 -9 CURVE SMOOTH",
"130 -9 OFFCURVE",
"224 3 OFFCURVE",
"252 7 CURVE",
"271 44 LINE",
"185 59 LINE",
"185 578 LINE SMOOTH",
"185 584 OFFCURVE",
"159 612 OFFCURVE",
"153 612 CURVE SMOOTH",
"144 612 OFFCURVE",
"61 602 OFFCURVE",
"30 597 CURVE",
"30 558 LINE",
"92 543 LINE"
);
},
{
closed = 1;
nodes = (
"254 567 OFFCURVE",
"240 532 OFFCURVE",
"240 517 CURVE SMOOTH",
"240 44 LINE",
"271 44 LINE",
"285 71 OFFCURVE",
"292 93 OFFCURVE",
"292 101 CURVE SMOOTH",
"292 603 LINE",
"267 603 LINE"
);
},
{
closed = 1;
nodes = (
"245 284 LINE",
"377 271 LINE",
"377 337 LINE",
"245 334 LINE"
);
}
);
width = 560;
}
);
leftKerningGroup = H;
leftMetricsKey = H;
rightKerningGroup = K;
unicode = 004B;
},
{
glyphname = L;
layers = (
{
anchors = (
{
name = bottom;
position = "{252, 40}";
},
{
name = center;
position = "{129, 360}";
},
{
name = top;
position = "{254, 610}";
},
{
name = topright;
position = "{270, 454}";
}
);
layerId = "52F4C6DE-93AC-450D-9CD0-4DAC5691B9C2";
paths = (
{
closed = 1;
nodes = (
"222 578 LINE",
"161 546 OFFCURVE",
"88 483 OFFCURVE",
"69 449 CURVE",
"64 385 OFFCURVE",
"85 258 OFFCURVE",
"85 191 CURVE SMOOTH",
"85 131 OFFCURVE",
"79 110 OFFCURVE",
"15 93 CURVE",
"0 7 LINE",
"13 -4 LINE",
"63 7 OFFCURVE",
"128 21 OFFCURVE",
"151 21 CURVE SMOOTH",
"175 21 OFFCURVE",
"220 16 OFFCURVE",
"438 -14 CURVE",
"488 80 LINE",
"488 90 OFFCURVE",
"484 102 OFFCURVE",
"476 110 CURVE",
"169 127 LINE",
"167 133 LINE",
"222 165 OFFCURVE",
"253 181 OFFCURVE",
"253 243 CURVE SMOOTH",
"253 341 OFFCURVE",
"245 421 OFFCURVE",
"257 552 CURVE"
);
},
{
closed = 1;
nodes = (
"321 114 LINE",
"335 141 OFFCURVE",
"347 163 OFFCURVE",
"347 171 CURVE SMOOTH",
"347 613 LINE",
"310 624 LINE",
"300 597 OFFCURVE",
"293 562 OFFCURVE",
"293 551 CURVE SMOOTH",
"293 114 LINE"
);
},
{
closed = 1;
nodes = (
"489 603 LINE",
"440 611 OFFCURVE",
"371 624 OFFCURVE",
"327 625 CURVE SMOOTH",
"321 625 OFFCURVE",
"315 625 OFFCURVE",
"310 624 CURVE",
"305 533 LINE",
"310 534 OFFCURVE",
"315 534 OFFCURVE",
"320 534 CURVE SMOOTH",
"342 533 OFFCURVE",
"364 524 OFFCURVE",
"381 516 CURVE",
"396 395 LINE",
"477 395 LINE"
);
}
);
width = 501;
},
{
anchors = (
{
name = bottom;
position = "{171, 10}";
},
{
name = center;
position = "{110, 400}";
},
{
name = top;
position = "{188, 558}";
},
{
name = topright;
position = "{305, 454}";
}
);
layerId = "4F39836F-1187-466E-8FAB-7EBF43C51BB4";
paths = (
{
closed = 1;
nodes = (
"94 562 LINE",
"85 533 OFFCURVE",
"77 501 OFFCURVE",
"72 458 CURVE",
"69 394 OFFCURVE",
"73 176 OFFCURVE",
"73 109 CURVE SMOOTH",
"73 49 OFFCURVE",
"65 37 OFFCURVE",
"5 18 CURVE",
"4 1 LINE",
"8 -4 LINE",
"58 7 OFFCURVE",
"74 12 OFFCURVE",
"105 12 CURVE SMOOTH",
"134 12 OFFCURVE",
"198 6 OFFCURVE",
"335 -5 CURVE",
"346 14 LINE",
"345 19 OFFCURVE",
"343 23 OFFCURVE",
"340 26 CURVE",
"82 38 LINE",
"80 42 LINE",
"101 60 OFFCURVE",
"102 92 OFFCURVE",
"102 154 CURVE SMOOTH",
"102 252 OFFCURVE",
"98 428 OFFCURVE",
"107 559 CURVE"
);
},
{
closed = 1;
nodes = (
"175 28 LINE",
"182 39 OFFCURVE",
"189 50 OFFCURVE",
"189 61 CURVE SMOOTH",
"189 582 LINE",
"171 582 LINE",
"161 555 OFFCURVE",
"160 531 OFFCURVE",
"160 520 CURVE SMOOTH",
"160 28 LINE"
);
},
{
closed = 1;
nodes = (
"346 587 LINE",
"318 592 OFFCURVE",
"250 601 OFFCURVE",
"221 601 CURVE SMOOTH",
"211 601 OFFCURVE",
"192 593 OFFCURVE",
"171 582 CURVE",
"183 560 LINE",
"201 570 OFFCURVE",
"215 573 OFFCURVE",
"225 573 CURVE SMOOTH",
"250 573 OFFCURVE",
"301 567 OFFCURVE",
"314 564 CURVE",
"321 461 LINE",
"340 461 LINE"
);
}
);
width = 369;
},
{
anchors = (
{
name = bottom;
position = "{224, 30}";
},
{
name = center;
position = "{98, 388}";
},
{
name = top;
position = "{221, 588}";
},
{
name = topright;
position = "{284, 454}";
}
);
layerId = "555729A4-F539-4650-9C4F-3880CB033E7B";
paths = (
{
closed = 1;
nodes = (
"142 581 LINE",
"106 543 OFFCURVE",
"86 505 OFFCURVE",
"67 458 CURVE",
"62 394 OFFCURVE",
"78 214 OFFCURVE",
"78 147 CURVE SMOOTH",
"78 87 OFFCURVE",
"60 61 OFFCURVE",
"0 44 CURVE",
"-4 1 LINE",
"7 -4 LINE",
"57 6 OFFCURVE",
"106 15 OFFCURVE",
"137 15 CURVE SMOOTH",
"166 15 OFFCURVE",
"262 3 OFFCURVE",
"400 -14 CURVE",
"429 42 LINE",
"429 52 OFFCURVE",
"426 59 OFFCURVE",
"419 66 CURVE",
"115 83 LINE",
"113 89 LINE",
"150 110 OFFCURVE",
"162 137 OFFCURVE",
"162 199 CURVE SMOOTH",
"162 297 OFFCURVE",
"151 432 OFFCURVE",
"167 563 CURVE"
);
},
{
closed = 1;
nodes = (
"251 63 LINE",
"265 90 OFFCURVE",
"272 112 OFFCURVE",
"272 120 CURVE SMOOTH",
"272 609 LINE",
"247 609 LINE",
"234 573 OFFCURVE",
"220 538 OFFCURVE",
"220 523 CURVE SMOOTH",
"220 63 LINE"
);
},
{
closed = 1;
nodes = (
"429 602 LINE",
"369 607 OFFCURVE",
"282 612 OFFCURVE",
"262 612 CURVE SMOOTH",
"257 612 OFFCURVE",
"253 611 OFFCURVE",
"247 609 CURVE",
"237 542 LINE",
"244 543 OFFCURVE",
"254 544 OFFCURVE",
"267 544 CURVE SMOOTH",
"288 544 OFFCURVE",
"326 537 OFFCURVE",
"351 531 CURVE",
"363 429 LINE",
"417 429 LINE"
);
}
);
width = 446;
}
);
leftKerningGroup = L;
rightKerningGroup = L;
unicode = 004C;
},
{
glyphname = Lslash;
layers = (
{
layerId = "52F4C6DE-93AC-450D-9CD0-4DAC5691B9C2";
paths = (
{
closed = 1;
nodes = (
"222 578 LINE",
"161 546 OFFCURVE",
"88 483 OFFCURVE",
"69 449 CURVE",
"64 385 OFFCURVE",
"85 258 OFFCURVE",
"85 191 CURVE SMOOTH",
"85 131 OFFCURVE",
"79 110 OFFCURVE",
"15 93 CURVE",
"0 7 LINE",
"13 -4 LINE",
"63 7 OFFCURVE",
"128 21 OFFCURVE",
"151 21 CURVE SMOOTH",
"175 21 OFFCURVE",
"220 16 OFFCURVE",
"438 -14 CURVE",
"488 80 LINE",
"488 90 OFFCURVE",
"484 102 OFFCURVE",
"476 110 CURVE",
"169 127 LINE",
"167 133 LINE",
"222 165 OFFCURVE",
"253 181 OFFCURVE",
"253 243 CURVE SMOOTH",
"253 341 OFFCURVE",
"245 421 OFFCURVE",
"257 552 CURVE"
);
},
{
closed = 1;
nodes = (
"321 114 LINE",
"335 141 OFFCURVE",
"347 163 OFFCURVE",
"347 171 CURVE SMOOTH",
"347 613 LINE",
"310 624 LINE",
"300 597 OFFCURVE",
"293 562 OFFCURVE",
"293 551 CURVE SMOOTH",
"293 114 LINE"
);
},
{
closed = 1;
nodes = (
"489 603 LINE",
"440 611 OFFCURVE",
"371 624 OFFCURVE",
"327 625 CURVE SMOOTH",
"321 625 OFFCURVE",
"315 625 OFFCURVE",
"310 624 CURVE",
"305 533 LINE",
"310 534 OFFCURVE",
"315 534 OFFCURVE",
"320 534 CURVE SMOOTH",
"342 533 OFFCURVE",
"364 524 OFFCURVE",
"381 516 CURVE",
"396 395 LINE",
"477 395 LINE"
);
},
{
closed = 1;
nodes = (
"313 243 LINE",
"417 263 LINE",
"417 353 LINE",
"394 364 LINE",
"318 350 LINE"
);
},
{
closed = 1;
nodes = (
"220 331 LINE",
"18 292 LINE",
"18 201 LINE",
"41 190 LINE",
"218 224 LINE"
);
}
);
width = 501;
},
{
layerId = "4F39836F-1187-466E-8FAB-7EBF43C51BB4";
paths = (
{
closed = 1;
nodes = (
"94 562 LINE",
"85 533 OFFCURVE",
"77 501 OFFCURVE",
"72 458 CURVE",
"69 394 OFFCURVE",
"73 176 OFFCURVE",
"73 109 CURVE SMOOTH",
"73 49 OFFCURVE",
"65 37 OFFCURVE",
"5 18 CURVE",
"4 1 LINE",
"8 -4 LINE",
"58 7 OFFCURVE",
"74 12 OFFCURVE",
"105 12 CURVE SMOOTH",
"134 12 OFFCURVE",
"198 6 OFFCURVE",
"335 -5 CURVE",
"346 14 LINE",
"345 19 OFFCURVE",
"343 23 OFFCURVE",
"340 26 CURVE",
"82 38 LINE",
"80 42 LINE",
"101 60 OFFCURVE",
"102 92 OFFCURVE",
"102 154 CURVE SMOOTH",
"102 252 OFFCURVE",
"98 428 OFFCURVE",
"107 559 CURVE"
);
},
{
closed = 1;
nodes = (
"175 28 LINE",
"182 39 OFFCURVE",
"189 50 OFFCURVE",
"189 61 CURVE SMOOTH",
"189 582 LINE",
"171 582 LINE",
"161 555 OFFCURVE",
"160 531 OFFCURVE",
"160 520 CURVE SMOOTH",
"160 28 LINE"
);
},
{
closed = 1;
nodes = (
"346 587 LINE",
"318 592 OFFCURVE",
"250 601 OFFCURVE",
"221 601 CURVE SMOOTH",
"211 601 OFFCURVE",
"192 593 OFFCURVE",
"171 582 CURVE",
"183 560 LINE",
"201 570 OFFCURVE",
"215 573 OFFCURVE",
"225 573 CURVE SMOOTH",
"250 573 OFFCURVE",
"301 567 OFFCURVE",
"314 564 CURVE",
"321 461 LINE",
"340 461 LINE"
);
},
{
closed = 1;
nodes = (
"184 300 LINE",
"254 344 LINE",
"255 362 LINE",
"246 365 LINE",
"184 326 LINE"
);
},
{
closed = 1;
nodes = (
"77 258 LINE",
"12 218 LINE",
"11 201 LINE",
"21 198 LINE",
"77 233 LINE"
);
}
);
width = 369;
},
{
layerId = "555729A4-F539-4650-9C4F-3880CB033E7B";
paths = (
{
closed = 1;
nodes = (
"142 581 LINE",
"106 543 OFFCURVE",
"86 505 OFFCURVE",
"67 458 CURVE",
"62 394 OFFCURVE",
"78 214 OFFCURVE",
"78 147 CURVE SMOOTH",
"78 87 OFFCURVE",
"60 61 OFFCURVE",
"0 44 CURVE",
"-4 1 LINE",
"7 -4 LINE",
"57 6 OFFCURVE",
"106 15 OFFCURVE",
"137 15 CURVE SMOOTH",
"166 15 OFFCURVE",
"262 3 OFFCURVE",
"400 -14 CURVE",
"429 42 LINE",
"429 52 OFFCURVE",
"426 59 OFFCURVE",
"419 66 CURVE",
"115 83 LINE",
"113 89 LINE",
"150 110 OFFCURVE",
"162 137 OFFCURVE",
"162 199 CURVE SMOOTH",
"162 297 OFFCURVE",
"151 432 OFFCURVE",
"167 563 CURVE"
);
},
{
closed = 1;
nodes = (
"251 63 LINE",
"265 90 OFFCURVE",
"272 112 OFFCURVE",
"272 120 CURVE SMOOTH",
"272 609 LINE",
"247 609 LINE",
"234 573 OFFCURVE",
"220 538 OFFCURVE",
"220 523 CURVE SMOOTH",
"220 63 LINE"
);
},
{
closed = 1;
nodes = (
"429 602 LINE",
"369 607 OFFCURVE",
"282 612 OFFCURVE",
"262 612 CURVE SMOOTH",
"257 612 OFFCURVE",
"253 611 OFFCURVE",
"247 609 CURVE",
"237 542 LINE",
"244 543 OFFCURVE",
"254 544 OFFCURVE",
"267 544 CURVE SMOOTH",
"288 544 OFFCURVE",
"326 537 OFFCURVE",
"351 531 CURVE",
"363 429 LINE",
"417 429 LINE"
);
},
{
closed = 1;
nodes = (
"265 288 LINE",
"340 322 LINE",
"339 372 LINE",
"325 375 LINE",
"265 348 LINE"
);
},
{
closed = 1;
nodes = (
"109 285 LINE",
"14 242 LINE",
"15 191 LINE",
"28 188 LINE",
"109 225 LINE"
);
}
);
width = 446;
}
);
leftKerningGroup = L;
rightKerningGroup = L;
unicode = 0141;
},
{
glyphname = M;
layers = (
{
layerId = "52F4C6DE-93AC-450D-9CD0-4DAC5691B9C2";
paths = (
{
closed = 1;
nodes = (
"75 40 LINE",
"80 28 OFFCURVE",
"98 -3 OFFCURVE",
"123 -11 CURVE SMOOTH",
"139 -16 OFFCURVE",
"217 -4 OFFCURVE",
"271 2 CURVE",
"308 67 LINE",
"242 90 LINE",
"242 572 LINE",
"237 584 OFFCURVE",
"219 615 OFFCURVE",
"194 623 CURVE SMOOTH",
"178 628 OFFCURVE",
"79 616 OFFCURVE",
"25 610 CURVE",
"25 545 LINE",
"75 522 LINE"
);
},
{
closed = 1;
nodes = (
"394 28 OFFCURVE",
"412 -3 OFFCURVE",
"437 -11 CURVE SMOOTH",
"453 -16 OFFCURVE",
"532 -4 OFFCURVE",
"586 2 CURVE",
"622 67 LINE",
"556 90 LINE",
"556 450 LINE SMOOTH",
"556 495 OFFCURVE",
"544 564 OFFCURVE",
"513 602 CURVE",
"480 618 OFFCURVE",
"415 625 OFFCURVE",
"374 625 CURVE SMOOTH",
"369 625 OFFCURVE",
"315 588 OFFCURVE",
"280 562 CURVE",
"304 473 LINE",
"319 478 OFFCURVE",
"332 482 OFFCURVE",
"342 482 CURVE SMOOTH",
"368 482 OFFCURVE",
"389 470 OFFCURVE",
"389 385 CURVE SMOOTH",
"389 40 LINE"
);
},
{
closed = 1;
nodes = (
"708 28 OFFCURVE",
"726 -3 OFFCURVE",
"751 -11 CURVE SMOOTH",
"767 -16 OFFCURVE",
"866 -4 OFFCURVE",
"920 2 CURVE",
"920 67 LINE",
"870 90 LINE",
"869 421 LINE",
"870 503 OFFCURVE",
"858 560 OFFCURVE",
"826 602 CURVE",
"793 618 OFFCURVE",
"715 625 OFFCURVE",
"681 625 CURVE SMOOTH",
"675 625 OFFCURVE",
"626 587 OFFCURVE",
"594 562 CURVE",
"606 472 LINE",
"622 478 OFFCURVE",
"636 482 OFFCURVE",
"647 482 CURVE SMOOTH",
"680 482 OFFCURVE",
"703 470 OFFCURVE",
"703 385 CURVE SMOOTH",
"703 40 LINE"
);
},
{
closed = 1;
nodes = (
"280 562 LINE",
"280 67 LINE",
"308 67 LINE",
"322 94 OFFCURVE",
"334 116 OFFCURVE",
"334 124 CURVE SMOOTH",
"334 562 LINE"
);
},
{
closed = 1;
nodes = (
"594 562 LINE",
"594 67 LINE",
"622 67 LINE",
"636 94 OFFCURVE",
"648 116 OFFCURVE",
"648 124 CURVE SMOOTH",
"648 562 LINE"
);
}
);
width = 935;
},
{
layerId = "4F39836F-1187-466E-8FAB-7EBF43C51BB4";
paths = (
{
closed = 1;
nodes = (
"104 12 LINE SMOOTH",
"104 8 OFFCURVE",
"121 -10 OFFCURVE",
"124 -10 CURVE SMOOTH",
"130 -10 OFFCURVE",
"170 -6 OFFCURVE",
"194 -2 CURVE",
"208 15 LINE",
"134 18 LINE",
"134 579 LINE SMOOTH",
"134 583 OFFCURVE",
"116 601 OFFCURVE",
"113 601 CURVE SMOOTH",
"106 601 OFFCURVE",
"49 591 OFFCURVE",
"37 589 CURVE",
"37 572 LINE",
"104 569 LINE"
);
},
{
closed = 1;
nodes = (
"391 8 OFFCURVE",
"409 -10 OFFCURVE",
"412 -10 CURVE SMOOTH",
"419 -10 OFFCURVE",
"457 -6 OFFCURVE",
"481 -2 CURVE",
"495 15 LINE",
"421 18 LINE",
"421 477 LINE SMOOTH",
"421 533 OFFCURVE",
"406 563 OFFCURVE",
"382 584 CURVE",
"359 597 OFFCURVE",
"331 603 OFFCURVE",
"302 600 CURVE",
"285 598 OFFCURVE",
"236 564 OFFCURVE",
"192 529 CURVE",
"205 511 LINE",
"239 539 OFFCURVE",
"280 575 OFFCURVE",
"319 575 CURVE SMOOTH",
"358 575 OFFCURVE",
"391 552 OFFCURVE",
"391 482 CURVE SMOOTH",
"391 12 LINE SMOOTH"
);
},
{
closed = 1;
nodes = (
"678 8 OFFCURVE",
"696 -10 OFFCURVE",
"699 -10 CURVE SMOOTH",
"706 -10 OFFCURVE",
"763 0 OFFCURVE",
"775 2 CURVE",
"775 19 LINE",
"708 22 LINE",
"708 477 LINE SMOOTH",
"708 533 OFFCURVE",
"693 563 OFFCURVE",
"669 584 CURVE",
"646 597 OFFCURVE",
"618 603 OFFCURVE",
"589 600 CURVE",
"572 598 OFFCURVE",
"523 564 OFFCURVE",
"479 529 CURVE",
"492 511 LINE",
"526 539 OFFCURVE",
"567 575 OFFCURVE",
"606 575 CURVE SMOOTH",
"645 575 OFFCURVE",
"678 552 OFFCURVE",
"678 482 CURVE SMOOTH",
"678 12 LINE SMOOTH"
);
},
{
closed = 1;
nodes = (
"192 529 LINE",
"192 15 LINE",
"208 15 LINE",
"222 35 OFFCURVE",
"222 37 OFFCURVE",
"222 48 CURVE SMOOTH",
"222 529 LINE"
);
},
{
closed = 1;
nodes = (
"479 529 LINE",
"479 15 LINE",
"495 15 LINE",
"509 35 OFFCURVE",
"509 37 OFFCURVE",
"509 48 CURVE SMOOTH",
"509 529 LINE"
);
}
);
width = 801;
},
{
layerId = "555729A4-F539-4650-9C4F-3880CB033E7B";
paths = (
{
closed = 1;
nodes = (
"92 24 LINE SMOOTH",
"92 17 OFFCURVE",
"120 -9 OFFCURVE",
"126 -9 CURVE SMOOTH",
"130 -9 OFFCURVE",
"224 3 OFFCURVE",
"252 7 CURVE",
"271 44 LINE",
"185 59 LINE",
"185 578 LINE SMOOTH",
"185 584 OFFCURVE",
"159 612 OFFCURVE",
"153 612 CURVE SMOOTH",
"144 612 OFFCURVE",
"61 602 OFFCURVE",
"30 597 CURVE",
"30 558 LINE",
"92 543 LINE"
);
},
{
closed = 1;
nodes = (
"392 19 OFFCURVE",
"418 -9 OFFCURVE",
"424 -9 CURVE SMOOTH",
"432 -9 OFFCURVE",
"524 3 OFFCURVE",
"552 7 CURVE",
"571 44 LINE",
"485 60 LINE",
"485 461 LINE SMOOTH",
"485 521 OFFCURVE",
"469 566 OFFCURVE",
"448 591 CURVE",
"420 608 OFFCURVE",
"381 614 OFFCURVE",
"345 612 CURVE",
"334 610 OFFCURVE",
"274 568 OFFCURVE",
"240 543 CURVE",
"278 504 LINE",
"299 521 OFFCURVE",
"322 537 OFFCURVE",
"343 537 CURVE SMOOTH",
"374 537 OFFCURVE",
"392 522 OFFCURVE",
"392 477 CURVE SMOOTH",
"392 25 LINE SMOOTH"
);
},
{
closed = 1;
nodes = (
"692 19 OFFCURVE",
"718 -9 OFFCURVE",
"724 -9 CURVE SMOOTH",
"732 -9 OFFCURVE",
"816 1 OFFCURVE",
"847 6 CURVE",
"847 45 LINE",
"785 60 LINE",
"785 461 LINE SMOOTH",
"785 521 OFFCURVE",
"769 566 OFFCURVE",
"748 591 CURVE",
"720 608 OFFCURVE",
"681 614 OFFCURVE",
"645 612 CURVE",
"634 610 OFFCURVE",
"574 568 OFFCURVE",
"540 543 CURVE",
"578 504 LINE",
"599 521 OFFCURVE",
"622 537 OFFCURVE",
"643 537 CURVE SMOOTH",
"674 537 OFFCURVE",
"692 522 OFFCURVE",
"692 477 CURVE SMOOTH",
"692 25 LINE SMOOTH"
);
},
{
closed = 1;
nodes = (
"240 543 LINE",
"240 44 LINE",
"271 44 LINE",
"285 71 OFFCURVE",
"292 93 OFFCURVE",
"292 101 CURVE SMOOTH",
"292 543 LINE"
);
},
{
closed = 1;
nodes = (
"540 543 LINE",
"540 44 LINE",
"571 44 LINE",
"585 71 OFFCURVE",
"592 93 OFFCURVE",
"592 101 CURVE SMOOTH",
"592 543 LINE"
);
}
);
width = 866;
}
);
leftKerningGroup = M;
leftMetricsKey = N;
rightKerningGroup = M;
rightMetricsKey = N;
unicode = 004D;
},
{
glyphname = N;
layers = (
{
anchors = (
{
name = bottom;
position = "{328, 0}";
},
{
name = top;
position = "{330, 610}";
}
);
layerId = "52F4C6DE-93AC-450D-9CD0-4DAC5691B9C2";
paths = (
{
closed = 1;
nodes = (
"75 40 LINE",
"80 28 OFFCURVE",
"98 -3 OFFCURVE",
"123 -11 CURVE SMOOTH",
"139 -16 OFFCURVE",
"220 -4 OFFCURVE",
"274 2 CURVE",
"308 67 LINE",
"242 90 LINE",
"242 572 LINE",
"237 584 OFFCURVE",
"219 615 OFFCURVE",
"194 623 CURVE SMOOTH",
"178 628 OFFCURVE",
"79 616 OFFCURVE",
"25 610 CURVE",
"25 545 LINE",
"75 522 LINE"
);
},
{
closed = 1;
nodes = (
"420 28 OFFCURVE",
"438 -3 OFFCURVE",
"463 -11 CURVE SMOOTH",
"479 -16 OFFCURVE",
"578 -4 OFFCURVE",
"632 2 CURVE",
"632 67 LINE",
"582 90 LINE",
"582 450 LINE SMOOTH",
"582 521 OFFCURVE",
"575 556 OFFCURVE",
"543 602 CURVE",
"512 618 OFFCURVE",
"450 625 OFFCURVE",
"398 625 CURVE SMOOTH",
"391 625 OFFCURVE",
"308 578 OFFCURVE",
"280 562 CURVE",
"308 471 LINE",
"328 478 OFFCURVE",
"346 482 OFFCURVE",
"357 482 CURVE SMOOTH",
"392 482 OFFCURVE",
"415 470 OFFCURVE",
"415 385 CURVE SMOOTH",
"415 40 LINE"
);
},
{
closed = 1;
nodes = (
"280 562 LINE",
"280 67 LINE",
"308 67 LINE",
"322 94 OFFCURVE",
"334 116 OFFCURVE",
"334 124 CURVE SMOOTH",
"334 562 LINE"
);
}
);
width = 647;
},
{
anchors = (
{
name = bottom;
position = "{292, -1}";
},
{
name = top;
position = "{285, 591}";
}
);
layerId = "4F39836F-1187-466E-8FAB-7EBF43C51BB4";
paths = (
{
closed = 1;
nodes = (
"104 12 LINE SMOOTH",
"104 8 OFFCURVE",
"121 -10 OFFCURVE",
"124 -10 CURVE SMOOTH",
"130 -10 OFFCURVE",
"170 -6 OFFCURVE",
"194 -2 CURVE",
"208 15 LINE",
"134 18 LINE",
"134 579 LINE SMOOTH",
"134 583 OFFCURVE",
"116 601 OFFCURVE",
"113 601 CURVE SMOOTH",
"106 601 OFFCURVE",
"49 591 OFFCURVE",
"37 589 CURVE",
"37 572 LINE",
"104 569 LINE"
);
},
{
closed = 1;
nodes = (
"411 8 OFFCURVE",
"429 -10 OFFCURVE",
"432 -10 CURVE SMOOTH",
"439 -10 OFFCURVE",
"496 0 OFFCURVE",
"508 2 CURVE",
"508 19 LINE",
"441 22 LINE",
"441 472 LINE SMOOTH",
"441 528 OFFCURVE",
"423 561 OFFCURVE",
"399 582 CURVE",
"376 595 OFFCURVE",
"341 603 OFFCURVE",
"312 600 CURVE",
"295 598 OFFCURVE",
"236 560 OFFCURVE",
"192 529 CURVE",
"205 511 LINE",
"239 537 OFFCURVE",
"294 575 OFFCURVE",
"328 575 CURVE SMOOTH",
"372 575 OFFCURVE",
"411 552 OFFCURVE",
"411 483 CURVE SMOOTH",
"411 12 LINE SMOOTH"
);
},
{
closed = 1;
nodes = (
"192 529 LINE",
"192 15 LINE",
"208 15 LINE",
"222 35 OFFCURVE",
"222 37 OFFCURVE",
"222 48 CURVE SMOOTH",
"222 529 LINE"
);
}
);
width = 534;
},
{
anchors = (
{
name = bottom;
position = "{319, 0}";
},
{
name = top;
position = "{315, 603}";
}
);
layerId = "555729A4-F539-4650-9C4F-3880CB033E7B";
paths = (
{
closed = 1;
nodes = (
"92 24 LINE SMOOTH",
"92 17 OFFCURVE",
"120 -9 OFFCURVE",
"126 -9 CURVE SMOOTH",
"130 -9 OFFCURVE",
"224 3 OFFCURVE",
"252 7 CURVE",
"271 44 LINE",
"185 59 LINE",
"185 578 LINE SMOOTH",
"185 584 OFFCURVE",
"159 612 OFFCURVE",
"153 612 CURVE SMOOTH",
"144 612 OFFCURVE",
"61 602 OFFCURVE",
"30 597 CURVE",
"30 558 LINE",
"92 543 LINE"
);
},
{
closed = 1;
nodes = (
"412 19 OFFCURVE",
"438 -9 OFFCURVE",
"444 -9 CURVE SMOOTH",
"452 -9 OFFCURVE",
"536 1 OFFCURVE",
"567 6 CURVE",
"567 45 LINE",
"505 60 LINE",
"505 461 LINE SMOOTH",
"505 521 OFFCURVE",
"489 566 OFFCURVE",
"468 591 CURVE",
"440 608 OFFCURVE",
"391 614 OFFCURVE",
"355 612 CURVE",
"344 610 OFFCURVE",
"274 565 OFFCURVE",
"240 543 CURVE",
"278 504 LINE",
"301 521 OFFCURVE",
"329 537 OFFCURVE",
"353 537 CURVE SMOOTH",
"394 537 OFFCURVE",
"412 522 OFFCURVE",
"412 467 CURVE SMOOTH",
"412 25 LINE SMOOTH"
);
},
{
closed = 1;
nodes = (
"240 543 LINE",
"240 44 LINE",
"271 44 LINE",
"285 71 OFFCURVE",
"292 93 OFFCURVE",
"292 101 CURVE SMOOTH",
"292 543 LINE"
);
}
);
width = 586;
}
);
leftKerningGroup = N;
leftMetricsKey = H;
rightKerningGroup = N;
unicode = 004E;
},
{
glyphname = Eng;
layers = (
{
layerId = "52F4C6DE-93AC-450D-9CD0-4DAC5691B9C2";
paths = (
{
closed = 1;
nodes = (
"75 40 LINE",
"80 28 OFFCURVE",
"98 -3 OFFCURVE",
"123 -11 CURVE SMOOTH",
"139 -16 OFFCURVE",
"220 -4 OFFCURVE",
"274 2 CURVE",
"308 67 LINE",
"242 90 LINE",
"242 572 LINE",
"237 584 OFFCURVE",
"219 615 OFFCURVE",
"194 623 CURVE SMOOTH",
"178 628 OFFCURVE",
"79 616 OFFCURVE",
"25 610 CURVE",
"25 545 LINE",
"75 522 LINE"
);
},
{
closed = 1;
nodes = (
"280 562 LINE",
"280 67 LINE",
"308 67 LINE",
"322 94 OFFCURVE",
"334 116 OFFCURVE",
"334 124 CURVE SMOOTH",
"334 562 LINE"
);
},
{
closed = 1;
nodes = (
"308 471 LINE",
"328 478 OFFCURVE",
"346 482 OFFCURVE",
"357 482 CURVE SMOOTH",
"392 482 OFFCURVE",
"413 470 OFFCURVE",
"413 385 CURVE SMOOTH",
"414 -28 LINE SMOOTH",
"414 -84 OFFCURVE",
"410 -127 OFFCURVE",
"360 -184 CURVE",
"410 -237 LINE",
"504 -215 OFFCURVE",
"582 -126 OFFCURVE",
"582 -63 CURVE SMOOTH",
"582 450 LINE SMOOTH",
"582 521 OFFCURVE",
"575 556 OFFCURVE",
"543 602 CURVE",
"512 618 OFFCURVE",
"450 625 OFFCURVE",
"398 625 CURVE SMOOTH",
"391 625 OFFCURVE",
"308 578 OFFCURVE",
"280 562 CURVE"
);
}
);
width = 647;
},
{
layerId = "4F39836F-1187-466E-8FAB-7EBF43C51BB4";
paths = (
{
closed = 1;
nodes = (
"104 12 LINE SMOOTH",
"104 8 OFFCURVE",
"121 -10 OFFCURVE",
"124 -10 CURVE SMOOTH",
"130 -10 OFFCURVE",
"170 -6 OFFCURVE",
"194 -2 CURVE",
"208 15 LINE",
"134 18 LINE",
"134 579 LINE SMOOTH",
"134 583 OFFCURVE",
"116 601 OFFCURVE",
"113 601 CURVE SMOOTH",
"106 601 OFFCURVE",
"49 591 OFFCURVE",
"37 589 CURVE",
"37 572 LINE",
"104 569 LINE"
);
},
{
closed = 1;
nodes = (
"192 529 LINE",
"192 15 LINE",
"208 15 LINE",
"222 35 OFFCURVE",
"222 37 OFFCURVE",
"222 48 CURVE SMOOTH",
"222 529 LINE"
);
},
{
closed = 1;
nodes = (
"205 511 LINE",
"239 537 OFFCURVE",
"294 575 OFFCURVE",
"328 575 CURVE SMOOTH",
"372 575 OFFCURVE",
"411 552 OFFCURVE",
"411 483 CURVE SMOOTH",
"411 -84 LINE SMOOTH",
"411 -137 OFFCURVE",
"389 -171 OFFCURVE",
"357 -204 CURVE",
"370 -219 LINE",
"411 -185 OFFCURVE",
"441 -144 OFFCURVE",
"441 -82 CURVE SMOOTH",
"441 472 LINE SMOOTH",
"441 528 OFFCURVE",
"423 561 OFFCURVE",
"399 582 CURVE",
"376 595 OFFCURVE",
"341 603 OFFCURVE",
"312 600 CURVE SMOOTH",
"295 598 OFFCURVE",
"236 560 OFFCURVE",
"192 529 CURVE"
);
}
);
width = 506;
},
{
layerId = "555729A4-F539-4650-9C4F-3880CB033E7B";
paths = (
{
closed = 1;
nodes = (
"92 24 LINE SMOOTH",
"92 17 OFFCURVE",
"120 -9 OFFCURVE",
"126 -9 CURVE SMOOTH",
"130 -9 OFFCURVE",
"224 3 OFFCURVE",
"252 7 CURVE",
"271 44 LINE",
"185 59 LINE",
"185 578 LINE SMOOTH",
"185 584 OFFCURVE",
"159 612 OFFCURVE",
"153 612 CURVE SMOOTH",
"144 612 OFFCURVE",
"61 602 OFFCURVE",
"30 597 CURVE",
"30 558 LINE",
"92 543 LINE"
);
},
{
closed = 1;
nodes = (
"240 543 LINE",
"240 44 LINE",
"271 44 LINE",
"285 71 OFFCURVE",
"292 93 OFFCURVE",
"292 101 CURVE SMOOTH",
"292 543 LINE"
);
},
{
closed = 1;
nodes = (
"278 504 LINE",
"301 521 OFFCURVE",
"329 537 OFFCURVE",
"353 537 CURVE SMOOTH",
"394 537 OFFCURVE",
"412 522 OFFCURVE",
"412 467 CURVE SMOOTH",
"412 -27 LINE SMOOTH",
"412 -82 OFFCURVE",
"400 -137 OFFCURVE",
"345 -196 CURVE",
"372 -229 LINE",
"433 -201 OFFCURVE",
"505 -122 OFFCURVE",
"505 -62 CURVE SMOOTH",
"505 461 LINE SMOOTH",
"505 521 OFFCURVE",
"489 566 OFFCURVE",
"468 591 CURVE",
"440 608 OFFCURVE",
"391 614 OFFCURVE",
"355 612 CURVE",
"344 610 OFFCURVE",
"274 565 OFFCURVE",
"240 543 CURVE"
);
}
);
width = 570;
}
);
leftKerningGroup = N;
leftMetricsKey = N;
rightKerningGroup = N;
unicode = 014A;
},
{
glyphname = Nhookleft;
layers = (
{
layerId = "52F4C6DE-93AC-450D-9CD0-4DAC5691B9C2";
paths = (
{
closed = 1;
nodes = (
"420 28 OFFCURVE",
"438 -3 OFFCURVE",
"463 -11 CURVE SMOOTH",
"479 -16 OFFCURVE",
"578 -4 OFFCURVE",
"632 2 CURVE",
"632 67 LINE",
"582 90 LINE",
"580 450 LINE SMOOTH",
"580 521 OFFCURVE",
"575 556 OFFCURVE",
"543 602 CURVE",
"512 618 OFFCURVE",
"450 625 OFFCURVE",
"398 625 CURVE SMOOTH",
"391 625 OFFCURVE",
"308 578 OFFCURVE",
"280 562 CURVE",
"308 471 LINE",
"328 478 OFFCURVE",
"346 482 OFFCURVE",
"357 482 CURVE SMOOTH",
"392 482 OFFCURVE",
"413 470 OFFCURVE",
"413 385 CURVE SMOOTH",
"415 40 LINE"
);
},
{
closed = 1;
nodes = (
"280 562 LINE",
"280 0 LINE",
"308 0 LINE",
"322 27 OFFCURVE",
"334 59 OFFCURVE",
"334 67 CURVE SMOOTH",
"334 562 LINE"
);
},
{
closed = 1;
nodes = (
"71 -237 LINE",
"165 -215 OFFCURVE",
"242 -126 OFFCURVE",
"242 -63 CURVE",
"242 572 LINE",
"237 584 OFFCURVE",
"219 615 OFFCURVE",
"194 623 CURVE SMOOTH",
"178 628 OFFCURVE",
"79 616 OFFCURVE",
"25 610 CURVE",
"25 545 LINE",
"75 522 LINE",
"75 -28 LINE SMOOTH",
"75 -84 OFFCURVE",
"71 -127 OFFCURVE",
"21 -184 CURVE"
);
}
);
width = 656;
},
{
layerId = "4F39836F-1187-466E-8FAB-7EBF43C51BB4";
paths = (
{
closed = 1;
nodes = (
"411 8 OFFCURVE",
"429 -10 OFFCURVE",
"432 -10 CURVE SMOOTH",
"439 -10 OFFCURVE",
"496 0 OFFCURVE",
"508 2 CURVE",
"508 19 LINE",
"441 22 LINE",
"441 472 LINE SMOOTH",
"441 528 OFFCURVE",
"423 561 OFFCURVE",
"399 582 CURVE",
"376 595 OFFCURVE",
"341 603 OFFCURVE",
"312 600 CURVE",
"295 598 OFFCURVE",
"236 560 OFFCURVE",
"192 529 CURVE",
"205 511 LINE",
"239 537 OFFCURVE",
"294 575 OFFCURVE",
"328 575 CURVE SMOOTH",
"372 575 OFFCURVE",
"411 552 OFFCURVE",
"411 483 CURVE SMOOTH",
"411 12 LINE SMOOTH"
);
},
{
closed = 1;
nodes = (
"192 529 LINE",
"192 0 LINE",
"208 0 LINE",
"218 20 OFFCURVE",
"222 41 OFFCURVE",
"222 52 CURVE SMOOTH",
"222 529 LINE"
);
},
{
closed = 1;
nodes = (
"63 -219 LINE",
"104 -185 OFFCURVE",
"134 -144 OFFCURVE",
"134 -82 CURVE SMOOTH",
"134 579 LINE SMOOTH",
"134 583 OFFCURVE",
"116 601 OFFCURVE",
"113 601 CURVE SMOOTH",
"106 601 OFFCURVE",
"49 591 OFFCURVE",
"37 589 CURVE",
"37 572 LINE",
"104 569 LINE",
"104 -84 LINE SMOOTH",
"104 -137 OFFCURVE",
"82 -171 OFFCURVE",
"50 -204 CURVE"
);
}
);
width = 545;
},
{
layerId = "555729A4-F539-4650-9C4F-3880CB033E7B";
paths = (
{
closed = 1;
nodes = (
"412 19 OFFCURVE",
"438 -9 OFFCURVE",
"444 -9 CURVE SMOOTH",
"452 -9 OFFCURVE",
"536 1 OFFCURVE",
"567 6 CURVE",
"567 45 LINE",
"505 60 LINE",
"505 461 LINE SMOOTH",
"505 521 OFFCURVE",
"489 566 OFFCURVE",
"468 591 CURVE",
"440 608 OFFCURVE",
"391 614 OFFCURVE",
"355 612 CURVE",
"344 610 OFFCURVE",
"274 565 OFFCURVE",
"240 543 CURVE",
"278 504 LINE",
"301 521 OFFCURVE",
"329 537 OFFCURVE",
"353 537 CURVE SMOOTH",
"394 537 OFFCURVE",
"412 522 OFFCURVE",
"412 467 CURVE SMOOTH",
"412 25 LINE SMOOTH"
);
},
{
closed = 1;
nodes = (
"240 543 LINE",
"240 0 LINE",
"271 0 LINE",
"285 27 OFFCURVE",
"292 59 OFFCURVE",
"292 67 CURVE SMOOTH",
"292 543 LINE"
);
},
{
closed = 1;
nodes = (
"52 -229 LINE",
"113 -201 OFFCURVE",
"185 -122 OFFCURVE",
"185 -62 CURVE SMOOTH",
"185 578 LINE SMOOTH",
"185 584 OFFCURVE",
"159 612 OFFCURVE",
"153 612 CURVE SMOOTH",
"144 612 OFFCURVE",
"61 602 OFFCURVE",
"30 597 CURVE",
"30 558 LINE",
"92 543 LINE",
"92 -27 LINE SMOOTH",
"92 -82 OFFCURVE",
"80 -137 OFFCURVE",
"25 -196 CURVE"
);
}
);
width = 597;
}
);
leftKerningGroup = N;
rightKerningGroup = N;
unicode = 019D;
},
{
glyphname = O;
layers = (
{
anchors = (
{
name = bottom;
position = "{303, 0}";
},
{
name = center;
position = "{290, 294}";
},
{
name = ogonek;
position = "{314, 0}";
},
{
name = top;
position = "{301, 610}";
},
{
name = topright;
position = "{329, 610}";
}
);
background = {
paths = (
{
closed = 1;
nodes = (
"362 -12 OFFCURVE",
"496 59 OFFCURVE",
"538 115 CURVE",
"560 160 OFFCURVE",
"576 232 OFFCURVE",
"576 323 CURVE SMOOTH",
"576 534 OFFCURVE",
"497 622 OFFCURVE",
"301 622 CURVE SMOOTH",
"263 622 OFFCURVE",
"97 521 OFFCURVE",
"51 467 CURVE",
"33 423 OFFCURVE",
"21 360 OFFCURVE",
"21 286 CURVE SMOOTH",
"21 77 OFFCURVE",
"120 -12 OFFCURVE",
"316 -12 CURVE SMOOTH"
);
},
{
closed = 1;
nodes = (
"371 536 OFFCURVE",
"397 481 OFFCURVE",
"397 304 CURVE SMOOTH",
"397 181 OFFCURVE",
"392 115 OFFCURVE",
"364 91 CURVE SMOOTH",
"350 79 OFFCURVE",
"322 75 OFFCURVE",
"305 75 CURVE SMOOTH",
"212 75 OFFCURVE",
"199 160 OFFCURVE",
"199 307 CURVE SMOOTH",
"199 409 OFFCURVE",
"205 477 OFFCURVE",
"211 520 CURVE",
"236 530 OFFCURVE",
"270 536 OFFCURVE",
"287 536 CURVE SMOOTH"
);
},
{
closed = 1;
nodes = (
"255 554 OFFCURVE",
"248 547 OFFCURVE",
"248 536 CURVE SMOOTH",
"248 82 LINE",
"263 82 LINE",
"274 97 OFFCURVE",
"289 121 OFFCURVE",
"289 124 CURVE SMOOTH",
"289 598 LINE",
"265 598 LINE"
);
},
{
closed = 1;
nodes = (
"234 283 OFFCURVE",
"244 293 OFFCURVE",
"244 306 CURVE SMOOTH",
"244 318 OFFCURVE",
"234 328 OFFCURVE",
"222 328 CURVE SMOOTH",
"209 328 OFFCURVE",
"199 318 OFFCURVE",
"199 306 CURVE SMOOTH",
"199 293 OFFCURVE",
"209 283 OFFCURVE",
"222 283 CURVE SMOOTH"
);
}
);
};
layerId = "52F4C6DE-93AC-450D-9CD0-4DAC5691B9C2";
paths = (
{
closed = 1;
nodes = (
"164 558 LINE",
"116 528 OFFCURVE",
"72 495 OFFCURVE",
"51 470 CURVE",
"33 426 OFFCURVE",
"21 363 OFFCURVE",
"21 286 CURVE SMOOTH",
"21 77 OFFCURVE",
"120 -12 OFFCURVE",
"316 -12 CURVE SMOOTH",
"362 -12 OFFCURVE",
"496 59 OFFCURVE",
"538 115 CURVE",
"560 160 OFFCURVE",
"576 232 OFFCURVE",
"576 323 CURVE SMOOTH",
"576 537 OFFCURVE",
"497 625 OFFCURVE",
"301 625 CURVE SMOOTH",
"290 625 OFFCURVE",
"275 618 OFFCURVE",
"264 613 CURVE",
"268 538 LINE",
"275 539 OFFCURVE",
"282 539 OFFCURVE",
"287 539 CURVE SMOOTH",
"371 539 OFFCURVE",
"397 484 OFFCURVE",
"397 304 CURVE SMOOTH",
"397 181 OFFCURVE",
"392 115 OFFCURVE",
"364 91 CURVE SMOOTH",
"350 79 OFFCURVE",
"322 75 OFFCURVE",
"305 75 CURVE SMOOTH",
"212 75 OFFCURVE",
"199 160 OFFCURVE",
"199 307 CURVE SMOOTH",
"199 370 OFFCURVE",
"203 460 OFFCURVE",
"208 523 CURVE"
);
},
{
closed = 1;
nodes = (
"254 586 OFFCURVE",
"247 562 OFFCURVE",
"247 551 CURVE SMOOTH",
"247 66 LINE",
"275 66 LINE",
"289 93 OFFCURVE",
"301 115 OFFCURVE",
"301 123 CURVE SMOOTH",
"301 613 LINE",
"264 613 LINE"
);
}
);
width = 597;
},
{
anchors = (
{
name = bottom;
position = "{256, 0}";
},
{
name = center;
position = "{255, 307}";
},
{
name = ogonek;
position = "{291, 0}";
},
{
name = top;
position = "{270, 591}";
},
{
name = topright;
position = "{299, 591}";
}
);
layerId = "4F39836F-1187-466E-8FAB-7EBF43C51BB4";
paths = (
{
closed = 1;
nodes = (
"133 533 LINE",
"116 513 OFFCURVE",
"105 499 OFFCURVE",
"90 475 CURVE",
"66 426 OFFCURVE",
"55 358 OFFCURVE",
"55 280 CURVE SMOOTH",
"55 130 OFFCURVE",
"103 -10 OFFCURVE",
"275 -10 CURVE SMOOTH",
"314 -10 OFFCURVE",
"402 46 OFFCURVE",
"433 101 CURVE",
"457 149 OFFCURVE",
"475 225 OFFCURVE",
"475 305 CURVE SMOOTH",
"475 488 OFFCURVE",
"412 601 OFFCURVE",
"250 601 CURVE SMOOTH",
"240 601 OFFCURVE",
"221 593 OFFCURVE",
"200 582 CURVE",
"212 556 LINE",
"230 567 OFFCURVE",
"244 572 OFFCURVE",
"254 572 CURVE SMOOTH",
"401 572 OFFCURVE",
"445 458 OFFCURVE",
"445 295 CURVE SMOOTH",
"445 228 OFFCURVE",
"423 132 OFFCURVE",
"407 110 CURVE",
"376 62 OFFCURVE",
"307 18 OFFCURVE",
"273 18 CURVE SMOOTH",
"178 18 OFFCURVE",
"85 60 OFFCURVE",
"85 301 CURVE SMOOTH",
"85 424 OFFCURVE",
"119 483 OFFCURVE",
"145 524 CURVE"
);
},
{
closed = 1;
nodes = (
"190 555 OFFCURVE",
"189 531 OFFCURVE",
"189 520 CURVE SMOOTH",
"189 28 LINE",
"204 28 LINE",
"211 39 OFFCURVE",
"218 50 OFFCURVE",
"218 61 CURVE SMOOTH",
"218 582 LINE",
"200 582 LINE"
);
}
);
width = 530;
},
{
anchors = (
{
name = bottom;
position = "{272, 0}";
},
{
name = center;
position = "{265, 287}";
},
{
name = ogonek;
position = "{308, 0}";
},
{
name = top;
position = "{273, 603}";
},
{
name = topright;
position = "{278, 603}";
}
);
background = {
paths = (
{
closed = 1;
nodes = (
"336 -9 OFFCURVE",
"443 62 OFFCURVE",
"477 108 CURVE",
"489 153 OFFCURVE",
"502 226 OFFCURVE",
"502 318 CURVE SMOOTH",
"502 524 OFFCURVE",
"412 611 OFFCURVE",
"236 611 CURVE SMOOTH",
"205 611 OFFCURVE",
"102 544 OFFCURVE",
"70 494 CURVE",
"52 449 OFFCURVE",
"40 375 OFFCURVE",
"40 283 CURVE SMOOTH",
"40 79 OFFCURVE",
"130 -9 OFFCURVE",
"306 -9 CURVE SMOOTH"
);
},
{
closed = 1;
nodes = (
"177 51 OFFCURVE",
"139 111 OFFCURVE",
"139 303 CURVE SMOOTH",
"139 436 OFFCURVE",
"156 520 OFFCURVE",
"189 537 CURVE SMOOTH",
"208 547 OFFCURVE",
"241 549 OFFCURVE",
"262 549 CURVE SMOOTH",
"372 549 OFFCURVE",
"403 457 OFFCURVE",
"403 300 CURVE SMOOTH",
"403 198 OFFCURVE",
"394 138 OFFCURVE",
"384 94 CURVE",
"379 86 OFFCURVE",
"314 51 OFFCURVE",
"298 51 CURVE SMOOTH"
);
}
);
};
layerId = "555729A4-F539-4650-9C4F-3880CB033E7B";
paths = (
{
closed = 1;
nodes = (
"136 564 LINE",
"110 542 OFFCURVE",
"84 517 OFFCURVE",
"70 495 CURVE",
"52 450 OFFCURVE",
"40 375 OFFCURVE",
"40 283 CURVE SMOOTH",
"40 79 OFFCURVE",
"130 -9 OFFCURVE",
"306 -9 CURVE SMOOTH",
"336 -9 OFFCURVE",
"443 62 OFFCURVE",
"477 108 CURVE",
"489 153 OFFCURVE",
"502 226 OFFCURVE",
"502 318 CURVE SMOOTH",
"502 525 OFFCURVE",
"408 612 OFFCURVE",
"246 612 CURVE SMOOTH",
"243 612 OFFCURVE",
"236 611 OFFCURVE",
"231 609 CURVE",
"244 549 LINE",
"254 550 OFFCURVE",
"254 550 OFFCURVE",
"262 550 CURVE SMOOTH",
"372 550 OFFCURVE",
"403 458 OFFCURVE",
"403 300 CURVE SMOOTH",
"403 198 OFFCURVE",
"394 138 OFFCURVE",
"384 94 CURVE",
"379 86 OFFCURVE",
"314 51 OFFCURVE",
"298 51 CURVE SMOOTH",
"177 51 OFFCURVE",
"139 111 OFFCURVE",
"139 303 CURVE SMOOTH",
"139 416 OFFCURVE",
"150 475 OFFCURVE",
"162 545 CURVE"
);
},
{
closed = 1;
nodes = (
"218 573 OFFCURVE",
"204 538 OFFCURVE",
"204 523 CURVE SMOOTH",
"204 44 LINE",
"235 44 LINE",
"249 71 OFFCURVE",
"256 93 OFFCURVE",
"256 101 CURVE SMOOTH",
"256 609 LINE",
"231 609 LINE"
);
}
);
width = 542;
}
);
leftKerningGroup = O;
rightKerningGroup = O;
unicode = 004F;
},
{
glyphname = Oslash;
layers = (
{
anchors = (
{
name = top;
position = "{301, 660}";
}
);
layerId = "52F4C6DE-93AC-450D-9CD0-4DAC5691B9C2";
paths = (
{
closed = 1;
nodes = (
"164 555 LINE",
"116 525 OFFCURVE",
"72 492 OFFCURVE",
"51 467 CURVE",
"33 423 OFFCURVE",
"21 360 OFFCURVE",
"21 286 CURVE SMOOTH",
"21 77 OFFCURVE",
"120 -12 OFFCURVE",
"316 -12 CURVE SMOOTH",
"362 -12 OFFCURVE",
"496 59 OFFCURVE",
"538 115 CURVE",
"560 160 OFFCURVE",
"576 232 OFFCURVE",
"576 323 CURVE SMOOTH",
"576 534 OFFCURVE",
"497 622 OFFCURVE",
"301 622 CURVE SMOOTH",
"292 622 OFFCURVE",
"272 614 OFFCURVE",
"264 610 CURVE",
"266 535 LINE",
"273 536 OFFCURVE",
"282 536 OFFCURVE",
"287 536 CURVE SMOOTH",
"371 536 OFFCURVE",
"397 481 OFFCURVE",
"397 304 CURVE SMOOTH",
"397 181 OFFCURVE",
"392 115 OFFCURVE",
"364 91 CURVE SMOOTH",
"350 79 OFFCURVE",
"322 75 OFFCURVE",
"305 75 CURVE SMOOTH",
"212 75 OFFCURVE",
"199 160 OFFCURVE",
"199 307 CURVE SMOOTH",
"199 367 OFFCURVE",
"203 457 OFFCURVE",
"208 520 CURVE"
);
},
{
closed = 1;
nodes = (
"254 583 OFFCURVE",
"247 559 OFFCURVE",
"247 548 CURVE SMOOTH",
"247 66 LINE",
"275 66 LINE",
"289 93 OFFCURVE",
"301 115 OFFCURVE",
"301 123 CURVE SMOOTH",
"301 610 LINE",
"264 610 LINE"
);
},
{
closed = 1;
nodes = (
"194 59 LINE",
"154 -96 LINE",
"174 -113 LINE",
"225 -108 LINE",
"265 45 LINE"
);
},
{
closed = 1;
nodes = (
"394 543 LINE",
"430 680 LINE",
"411 701 LINE",
"360 697 LINE",
"324 560 LINE"
);
}
);
width = 597;
},
{
anchors = (
{
name = top;
position = "{259, 636}";
}
);
layerId = "4F39836F-1187-466E-8FAB-7EBF43C51BB4";
paths = (
{
closed = 1;
nodes = (
"133 533 LINE",
"116 513 OFFCURVE",
"105 499 OFFCURVE",
"90 475 CURVE",
"66 426 OFFCURVE",
"55 358 OFFCURVE",
"55 280 CURVE SMOOTH",
"55 130 OFFCURVE",
"103 -10 OFFCURVE",
"275 -10 CURVE SMOOTH",
"314 -10 OFFCURVE",
"402 46 OFFCURVE",
"433 101 CURVE",
"457 149 OFFCURVE",
"475 225 OFFCURVE",
"475 305 CURVE SMOOTH",
"475 488 OFFCURVE",
"412 601 OFFCURVE",
"250 601 CURVE SMOOTH",
"240 601 OFFCURVE",
"221 593 OFFCURVE",
"200 582 CURVE",
"212 556 LINE",
"230 567 OFFCURVE",
"244 572 OFFCURVE",
"254 572 CURVE SMOOTH",
"401 572 OFFCURVE",
"445 458 OFFCURVE",
"445 295 CURVE SMOOTH",
"445 228 OFFCURVE",
"424 132 OFFCURVE",
"408 110 CURVE",
"377 62 OFFCURVE",
"307 20 OFFCURVE",
"273 20 CURVE SMOOTH",
"178 20 OFFCURVE",
"85 60 OFFCURVE",
"85 301 CURVE SMOOTH",
"85 424 OFFCURVE",
"119 483 OFFCURVE",
"145 524 CURVE"
);
},
{
closed = 1;
nodes = (
"190 555 OFFCURVE",
"189 531 OFFCURVE",
"189 520 CURVE SMOOTH",
"189 28 LINE",
"204 28 LINE",
"211 39 OFFCURVE",
"218 50 OFFCURVE",
"218 61 CURVE SMOOTH",
"218 582 LINE",
"200 582 LINE"
);
},
{
closed = 1;
nodes = (
"167 25 LINE",
"136 -93 LINE",
"143 -101 LINE",
"160 -105 LINE",
"191 12 LINE"
);
},
{
closed = 1;
nodes = (
"338 571 LINE",
"365 675 LINE",
"362 686 LINE",
"342 692 LINE",
"312 579 LINE"
);
}
);
width = 530;
},
{
anchors = (
{
name = top;
position = "{263, 648}";
}
);
layerId = "555729A4-F539-4650-9C4F-3880CB033E7B";
paths = (
{
closed = 1;
nodes = (
"136 563 LINE",
"110 541 OFFCURVE",
"84 516 OFFCURVE",
"70 494 CURVE",
"52 449 OFFCURVE",
"40 375 OFFCURVE",
"40 283 CURVE SMOOTH",
"40 79 OFFCURVE",
"130 -9 OFFCURVE",
"306 -9 CURVE SMOOTH",
"336 -9 OFFCURVE",
"443 62 OFFCURVE",
"477 108 CURVE",
"489 153 OFFCURVE",
"502 226 OFFCURVE",
"502 318 CURVE SMOOTH",
"502 524 OFFCURVE",
"408 611 OFFCURVE",
"246 611 CURVE SMOOTH",
"243 611 OFFCURVE",
"236 610 OFFCURVE",
"231 608 CURVE",
"244 548 LINE",
"254 549 OFFCURVE",
"254 549 OFFCURVE",
"262 549 CURVE SMOOTH",
"372 549 OFFCURVE",
"403 457 OFFCURVE",
"403 300 CURVE SMOOTH",
"403 198 OFFCURVE",
"394 138 OFFCURVE",
"384 94 CURVE",
"379 86 OFFCURVE",
"314 51 OFFCURVE",
"298 51 CURVE SMOOTH",
"177 51 OFFCURVE",
"139 111 OFFCURVE",
"139 303 CURVE SMOOTH",
"139 415 OFFCURVE",
"150 474 OFFCURVE",
"162 544 CURVE"
);
},
{
closed = 1;
nodes = (
"218 572 OFFCURVE",
"204 537 OFFCURVE",
"204 522 CURVE SMOOTH",
"204 44 LINE",
"235 44 LINE",
"249 71 OFFCURVE",
"256 93 OFFCURVE",
"256 101 CURVE SMOOTH",
"256 608 LINE",
"231 608 LINE"
);
},
{
closed = 1;
nodes = (
"171 42 LINE",
"135 -96 LINE",
"146 -109 LINE",
"193 -108 LINE",
"228 27 LINE"
);
},
{
closed = 1;
nodes = (
"367 559 LINE",
"398 680 LINE",
"388 697 LINE",
"341 697 LINE",
"310 577 LINE"
);
}
);
width = 542;
}
);
leftKerningGroup = O;
rightKerningGroup = O;
unicode = 00D8;
},
{
glyphname = OE;
layers = (
{
layerId = "52F4C6DE-93AC-450D-9CD0-4DAC5691B9C2";
paths = (
{
closed = 1;
nodes = (
"423 94 LINE",
"362 75 OFFCURVE",
"329 75 OFFCURVE",
"305 75 CURVE SMOOTH",
"212 75 OFFCURVE",
"199 160 OFFCURVE",
"199 307 CURVE SMOOTH",
"199 367 OFFCURVE",
"203 457 OFFCURVE",
"208 520 CURVE",
"164 555 LINE",
"116 525 OFFCURVE",
"72 492 OFFCURVE",
"51 467 CURVE",
"33 423 OFFCURVE",
"21 360 OFFCURVE",
"21 286 CURVE SMOOTH",
"21 77 OFFCURVE",
"120 -12 OFFCURVE",
"316 -12 CURVE SMOOTH",
"344 -12 OFFCURVE",
"426 0 OFFCURVE",
"492 0 CURVE"
);
},
{
closed = 1;
nodes = (
"252 580 OFFCURVE",
"245 550 OFFCURVE",
"245 539 CURVE SMOOTH",
"245 82 LINE",
"260 82 LINE",
"271 97 OFFCURVE",
"286 121 OFFCURVE",
"286 124 CURVE SMOOTH",
"286 615 LINE",
"262 615 LINE"
);
},
{
closed = 1;
nodes = (
"609 583 OFFCURVE",
"602 559 OFFCURVE",
"602 548 CURVE SMOOTH",
"602 66 LINE",
"617 66 LINE",
"631 93 OFFCURVE",
"643 115 OFFCURVE",
"643 123 CURVE SMOOTH",
"643 610 LINE",
"619 610 LINE"
);
},
{
closed = 1;
nodes = (
"639 267 LINE",
"745 261 LINE",
"751 363 LINE",
"632 357 LINE"
);
},
{
closed = 1;
nodes = (
"630 527 LINE",
"738 512 LINE",
"750 411 LINE",
"832 411 LINE",
"845 610 LINE",
"633 610 LINE"
);
},
{
closed = 1;
nodes = (
"509 625 LINE",
"301 625 LINE",
"290 625 OFFCURVE",
"269 617 OFFCURVE",
"262 615 CURVE",
"266 538 LINE",
"273 539 OFFCURVE",
"282 539 OFFCURVE",
"287 539 CURVE SMOOTH",
"334 539 OFFCURVE",
"396 534 OFFCURVE",
"425 521 CURVE"
);
},
{
closed = 1;
nodes = (
"390 537 LINE",
"390 39 LINE",
"398 19 OFFCURVE",
"467 0 OFFCURVE",
"492 0 CURVE",
"820 0 LINE",
"816 195 LINE",
"734 195 LINE",
"716 64 LINE",
"557 82 LINE",
"557 574 LINE",
"552 586 OFFCURVE",
"534 617 OFFCURVE",
"509 625 CURVE"
);
}
);
width = 871;
},
{
layerId = "4F39836F-1187-466E-8FAB-7EBF43C51BB4";
paths = (
{
closed = 1;
nodes = (
"396 27 LINE",
"357 18 OFFCURVE",
"303 15 OFFCURVE",
"273 15 CURVE SMOOTH",
"187 15 OFFCURVE",
"85 54 OFFCURVE",
"85 301 CURVE SMOOTH",
"85 424 OFFCURVE",
"119 483 OFFCURVE",
"145 524 CURVE",
"133 533 LINE",
"116 513 OFFCURVE",
"105 499 OFFCURVE",
"90 475 CURVE",
"66 426 OFFCURVE",
"55 358 OFFCURVE",
"55 280 CURVE SMOOTH",
"55 130 OFFCURVE",
"103 -10 OFFCURVE",
"275 -10 CURVE SMOOTH",
"315 -10 OFFCURVE",
"360 0 OFFCURVE",
"413 0 CURVE"
);
},
{
closed = 1;
nodes = (
"190 558 OFFCURVE",
"189 534 OFFCURVE",
"189 520 CURVE SMOOTH",
"189 21 LINE",
"204 21 LINE",
"211 32 OFFCURVE",
"218 43 OFFCURVE",
"218 54 CURVE SMOOTH",
"218 585 LINE",
"200 585 LINE"
);
},
{
closed = 1;
nodes = (
"483 564 OFFCURVE",
"481 540 OFFCURVE",
"481 529 CURVE SMOOTH",
"481 15 LINE",
"499 18 LINE",
"513 38 OFFCURVE",
"511 37 OFFCURVE",
"511 48 CURVE SMOOTH",
"511 591 LINE",
"493 591 LINE"
);
},
{
closed = 1;
nodes = (
"497 293 LINE",
"620 289 LINE",
"624 321 LINE",
"497 318 LINE"
);
},
{
closed = 1;
nodes = (
"502 569 LINE",
"669 560 LINE",
"676 469 LINE",
"695 469 LINE",
"701 591 LINE",
"502 591 LINE"
);
},
{
closed = 1;
nodes = (
"402 601 LINE",
"250 601 LINE",
"240 601 OFFCURVE",
"221 596 OFFCURVE",
"200 585 CURVE",
"205 573 LINE",
"225 575 OFFCURVE",
"247 576 OFFCURVE",
"262 576 CURVE SMOOTH",
"318 576 OFFCURVE",
"361 576 OFFCURVE",
"401 574 CURVE"
);
},
{
closed = 1;
nodes = (
"393 580 LINE",
"393 22 LINE SMOOTH",
"393 18 OFFCURVE",
"410 0 OFFCURVE",
"413 0 CURVE",
"709 0 LINE",
"706 122 LINE",
"687 122 LINE",
"677 21 LINE",
"423 22 LINE",
"423 579 LINE SMOOTH",
"423 583 OFFCURVE",
"405 601 OFFCURVE",
"402 601 CURVE"
);
}
);
width = 757;
},
{
layerId = "555729A4-F539-4650-9C4F-3880CB033E7B";
paths = (
{
closed = 1;
nodes = (
"394 64 LINE",
"360 55 OFFCURVE",
"335 51 OFFCURVE",
"298 51 CURVE SMOOTH",
"177 51 OFFCURVE",
"139 111 OFFCURVE",
"139 303 CURVE SMOOTH",
"139 415 OFFCURVE",
"150 474 OFFCURVE",
"162 544 CURVE",
"136 563 LINE",
"110 541 OFFCURVE",
"84 516 OFFCURVE",
"70 494 CURVE",
"52 449 OFFCURVE",
"40 375 OFFCURVE",
"40 283 CURVE SMOOTH",
"40 79 OFFCURVE",
"130 -9 OFFCURVE",
"306 -9 CURVE SMOOTH",
"347 -9 OFFCURVE",
"374 0 OFFCURVE",
"438 0 CURVE"
);
},
{
closed = 1;
nodes = (
"218 572 OFFCURVE",
"204 537 OFFCURVE",
"204 522 CURVE SMOOTH",
"204 44 LINE",
"235 44 LINE",
"249 71 OFFCURVE",
"256 93 OFFCURVE",
"256 101 CURVE SMOOTH",
"256 608 LINE",
"231 608 LINE"
);
},
{
closed = 1;
nodes = (
"546 567 OFFCURVE",
"532 532 OFFCURVE",
"532 517 CURVE SMOOTH",
"532 44 LINE",
"563 44 LINE",
"577 71 OFFCURVE",
"584 93 OFFCURVE",
"584 101 CURVE SMOOTH",
"584 603 LINE",
"559 603 LINE"
);
},
{
closed = 1;
nodes = (
"537 283 LINE",
"679 275 LINE",
"685 342 LINE",
"537 334 LINE"
);
},
{
closed = 1;
nodes = (
"559 550 LINE",
"687 538 LINE",
"698 428 LINE",
"752 428 LINE",
"765 603 LINE",
"562 603 LINE"
);
},
{
closed = 1;
nodes = (
"445 612 LINE",
"246 611 LINE",
"243 611 OFFCURVE",
"236 610 OFFCURVE",
"231 608 CURVE",
"244 548 LINE",
"254 549 OFFCURVE",
"254 549 OFFCURVE",
"262 549 CURVE SMOOTH",
"318 549 OFFCURVE",
"372 546 OFFCURVE",
"396 541 CURVE"
);
},
{
closed = 1;
nodes = (
"384 556 LINE",
"384 24 LINE SMOOTH",
"384 20 OFFCURVE",
"429 0 OFFCURVE",
"438 0 CURVE",
"770 0 LINE",
"766 179 LINE",
"712 179 LINE",
"696 45 LINE",
"477 65 LINE",
"477 578 LINE SMOOTH",
"477 584 OFFCURVE",
"451 612 OFFCURVE",
"445 612 CURVE"
);
}
);
width = 821;
}
);
leftKerningGroup = O;
leftMetricsKey = O;
rightKerningGroup = E;
rightMetricsKey = E;
unicode = 0152;
},
{
glyphname = P;
layers = (
{
layerId = "52F4C6DE-93AC-450D-9CD0-4DAC5691B9C2";
paths = (
{
closed = 1;
nodes = (
"75 39 LINE",
"80 27 OFFCURVE",
"98 -4 OFFCURVE",
"123 -12 CURVE SMOOTH",
"139 -17 OFFCURVE",
"220 -5 OFFCURVE",
"274 1 CURVE",
"308 66 LINE",
"242 89 LINE",
"242 572 LINE",
"237 584 OFFCURVE",
"219 615 OFFCURVE",
"194 623 CURVE SMOOTH",
"178 628 OFFCURVE",
"79 616 OFFCURVE",
"25 610 CURVE",
"25 545 LINE",
"75 522 LINE"
);
},
{
closed = 1;
nodes = (
"306 532 LINE",
"368 541 LINE SMOOTH",
"411 547 OFFCURVE",
"419 487 OFFCURVE",
"419 393 CURVE SMOOTH",
"419 325 OFFCURVE",
"408 268 OFFCURVE",
"398 272 CURVE SMOOTH",
"304 312 LINE",
"306 203 LINE",
"342 199 OFFCURVE",
"377 190 OFFCURVE",
"413 190 CURVE SMOOTH",
"433 190 OFFCURVE",
"560 288 OFFCURVE",
"570 324 CURVE SMOOTH",
"577 349 OFFCURVE",
"579 379 OFFCURVE",
"579 413 CURVE SMOOTH",
"579 567 OFFCURVE",
"527 625 OFFCURVE",
"428 625 CURVE SMOOTH",
"325 625 LINE"
);
},
{
closed = 1;
nodes = (
"287 598 OFFCURVE",
"280 574 OFFCURVE",
"280 563 CURVE SMOOTH",
"280 66 LINE",
"308 66 LINE",
"322 93 OFFCURVE",
"334 115 OFFCURVE",
"334 123 CURVE SMOOTH",
"334 625 LINE",
"297 625 LINE"
);
}
);
width = 587;
},
{
layerId = "4F39836F-1187-466E-8FAB-7EBF43C51BB4";
paths = (
{
closed = 1;
nodes = (
"104 12 LINE SMOOTH",
"104 8 OFFCURVE",
"121 -10 OFFCURVE",
"124 -10 CURVE SMOOTH",
"130 -10 OFFCURVE",
"170 -6 OFFCURVE",
"194 -2 CURVE",
"208 15 LINE",
"134 18 LINE",
"134 579 LINE SMOOTH",
"134 583 OFFCURVE",
"116 601 OFFCURVE",
"113 601 CURVE SMOOTH",
"106 601 OFFCURVE",
"49 591 OFFCURVE",
"37 589 CURVE",
"37 572 LINE",
"104 569 LINE"
);
},
{
closed = 1;
nodes = (
"211 574 LINE",
"300 576 LINE SMOOTH",
"382 578 OFFCURVE",
"423 504 OFFCURVE",
"413 380 CURVE SMOOTH",
"408 315 OFFCURVE",
"330 263 OFFCURVE",
"308 264 CURVE SMOOTH",
"211 270 LINE",
"211 245 LINE",
"242 243 OFFCURVE",
"282 239 OFFCURVE",
"316 239 CURVE SMOOTH",
"336 239 OFFCURVE",
"412 291 OFFCURVE",
"431 339 CURVE SMOOTH",
"440 362 OFFCURVE",
"443 385 OFFCURVE",
"443 410 CURVE SMOOTH",
"443 561 OFFCURVE",
"375 601 OFFCURVE",
"294 601 CURVE SMOOTH",
"211 601 LINE"
);
},
{
closed = 1;
nodes = (
"194 574 OFFCURVE",
"192 550 OFFCURVE",
"192 539 CURVE SMOOTH",
"192 15 LINE",
"208 15 LINE",
"222 35 OFFCURVE",
"222 37 OFFCURVE",
"222 48 CURVE SMOOTH",
"222 601 LINE",
"204 601 LINE"
);
}
);
width = 459;
},
{
layerId = "555729A4-F539-4650-9C4F-3880CB033E7B";
paths = (
{
closed = 1;
nodes = (
"92 24 LINE SMOOTH",
"92 17 OFFCURVE",
"120 -9 OFFCURVE",
"126 -9 CURVE SMOOTH",
"130 -9 OFFCURVE",
"224 3 OFFCURVE",
"252 7 CURVE",
"271 44 LINE",
"185 59 LINE",
"185 578 LINE SMOOTH",
"185 584 OFFCURVE",
"159 612 OFFCURVE",
"153 612 CURVE SMOOTH",
"144 612 OFFCURVE",
"61 602 OFFCURVE",
"30 597 CURVE",
"30 558 LINE",
"92 543 LINE"
);
},
{
closed = 1;
nodes = (
"279 555 LINE",
"362 561 LINE SMOOTH",
"400 564 OFFCURVE",
"419 515 OFFCURVE",
"419 408 CURVE SMOOTH",
"419 305 OFFCURVE",
"399 265 OFFCURVE",
"379 267 CURVE SMOOTH",
"280 279 LINE",
"279 217 LINE",
"307 216 OFFCURVE",
"335 214 OFFCURVE",
"363 214 CURVE SMOOTH",
"395 214 OFFCURVE",
"488 282 OFFCURVE",
"504 310 CURVE SMOOTH",
"515 329 OFFCURVE",
"517 362 OFFCURVE",
"517 396 CURVE SMOOTH",
"517 563 OFFCURVE",
"455 612 OFFCURVE",
"356 612 CURVE SMOOTH",
"279 612 LINE"
);
},
{
closed = 1;
nodes = (
"254 576 OFFCURVE",
"240 541 OFFCURVE",
"240 526 CURVE SMOOTH",
"240 44 LINE",
"271 44 LINE",
"285 71 OFFCURVE",
"292 93 OFFCURVE",
"292 101 CURVE SMOOTH",
"292 612 LINE",
"267 612 LINE"
);
}
);
width = 520;
}
);
leftKerningGroup = H;
rightKerningGroup = P;
unicode = 0050;
},
{
glyphname = Thorn;
layers = (
{
layerId = "52F4C6DE-93AC-450D-9CD0-4DAC5691B9C2";
paths = (
{
closed = 1;
nodes = (
"314 409 LINE",
"357 413 LINE SMOOTH",
"395 417 OFFCURVE",
"401 371 OFFCURVE",
"401 310 CURVE SMOOTH",
"401 229 OFFCURVE",
"401 219 OFFCURVE",
"375 227 CURVE SMOOTH",
"314 247 LINE",
"314 147 LINE",
"335 143 OFFCURVE",
"356 138 OFFCURVE",
"377 138 CURVE SMOOTH",
"400 138 OFFCURVE",
"542 214 OFFCURVE",
"552 253 CURVE SMOOTH",
"557 272 OFFCURVE",
"561 304 OFFCURVE",
"561 327 CURVE SMOOTH",
"561 448 OFFCURVE",
"505 497 OFFCURVE",
"406 497 CURVE SMOOTH",
"314 497 LINE"
);
},
{
closed = 1;
nodes = (
"75 39 LINE",
"80 27 OFFCURVE",
"98 -4 OFFCURVE",
"123 -12 CURVE SMOOTH",
"139 -17 OFFCURVE",
"214 -5 OFFCURVE",
"268 1 CURVE",
"302 66 LINE",
"242 89 LINE",
"242 572 LINE",
"237 584 OFFCURVE",
"219 615 OFFCURVE",
"194 623 CURVE SMOOTH",
"178 628 OFFCURVE",
"79 616 OFFCURVE",
"25 610 CURVE",
"25 545 LINE",
"75 522 LINE"
);
},
{
closed = 1;
nodes = (
"294 583 OFFCURVE",
"287 559 OFFCURVE",
"287 548 CURVE SMOOTH",
"287 66 LINE",
"302 66 LINE",
"316 93 OFFCURVE",
"328 115 OFFCURVE",
"328 123 CURVE SMOOTH",
"328 610 LINE",
"304 610 LINE"
);
}
);
width = 583;
},
{
layerId = "4F39836F-1187-466E-8FAB-7EBF43C51BB4";
paths = (
{
closed = 1;
nodes = (
"211 444 LINE",
"300 446 LINE SMOOTH",
"382 448 OFFCURVE",
"424 396 OFFCURVE",
"413 300 CURVE SMOOTH",
"406 235 OFFCURVE",
"330 183 OFFCURVE",
"308 184 CURVE SMOOTH",
"211 190 LINE",
"211 165 LINE",
"242 163 OFFCURVE",
"282 159 OFFCURVE",
"316 159 CURVE SMOOTH",
"336 159 OFFCURVE",
"412 211 OFFCURVE",
"431 259 CURVE SMOOTH",
"440 282 OFFCURVE",
"443 305 OFFCURVE",
"443 330 CURVE SMOOTH",
"443 441 OFFCURVE",
"375 471 OFFCURVE",
"294 471 CURVE SMOOTH",
"211 471 LINE"
);
},
{
closed = 1;
nodes = (
"104 12 LINE SMOOTH",
"104 8 OFFCURVE",
"121 -10 OFFCURVE",
"124 -10 CURVE SMOOTH",
"130 -10 OFFCURVE",
"170 -6 OFFCURVE",
"194 -2 CURVE",
"208 15 LINE",
"134 18 LINE",
"134 579 LINE SMOOTH",
"134 583 OFFCURVE",
"116 601 OFFCURVE",
"113 601 CURVE SMOOTH",
"106 601 OFFCURVE",
"49 591 OFFCURVE",
"37 589 CURVE",
"37 572 LINE",
"104 569 LINE"
);
},
{
closed = 1;
nodes = (
"194 564 OFFCURVE",
"192 540 OFFCURVE",
"192 529 CURVE SMOOTH",
"192 15 LINE",
"208 15 LINE",
"222 35 OFFCURVE",
"222 37 OFFCURVE",
"222 48 CURVE SMOOTH",
"222 591 LINE",
"204 591 LINE"
);
}
);
width = 459;
},
{
layerId = "555729A4-F539-4650-9C4F-3880CB033E7B";
paths = (
{
closed = 1;
nodes = (
"279 436 LINE",
"362 442 LINE SMOOTH",
"400 445 OFFCURVE",
"419 403 OFFCURVE",
"419 338 CURVE SMOOTH",
"419 243 OFFCURVE",
"398 195 OFFCURVE",
"379 197 CURVE SMOOTH",
"280 209 LINE",
"279 147 LINE",
"307 146 OFFCURVE",
"335 144 OFFCURVE",
"363 144 CURVE SMOOTH",
"395 144 OFFCURVE",
"488 212 OFFCURVE",
"504 240 CURVE SMOOTH",
"515 259 OFFCURVE",
"517 292 OFFCURVE",
"517 326 CURVE SMOOTH",
"517 451 OFFCURVE",
"455 493 OFFCURVE",
"356 493 CURVE SMOOTH",
"279 493 LINE"
);
},
{
closed = 1;
nodes = (
"92 24 LINE SMOOTH",
"92 17 OFFCURVE",
"120 -9 OFFCURVE",
"126 -9 CURVE SMOOTH",
"130 -9 OFFCURVE",
"224 3 OFFCURVE",
"252 7 CURVE",
"271 44 LINE",
"185 59 LINE",
"185 578 LINE SMOOTH",
"185 584 OFFCURVE",
"159 612 OFFCURVE",
"153 612 CURVE SMOOTH",
"144 612 OFFCURVE",
"61 602 OFFCURVE",
"30 597 CURVE",
"30 558 LINE",
"92 543 LINE"
);
},
{
closed = 1;
nodes = (
"254 567 OFFCURVE",
"240 532 OFFCURVE",
"240 517 CURVE SMOOTH",
"240 44 LINE",
"271 44 LINE",
"285 71 OFFCURVE",
"292 93 OFFCURVE",
"292 101 CURVE SMOOTH",
"292 603 LINE",
"267 603 LINE"
);
}
);
width = 520;
}
);
leftKerningGroup = H;
leftMetricsKey = H;
rightKerningGroup = Thorn;
unicode = 00DE;
},
{
glyphname = Q;
layers = (
{
layerId = "52F4C6DE-93AC-450D-9CD0-4DAC5691B9C2";
paths = (
{
closed = 1;
nodes = (
"531 -157 LINE",
"575 -45 LINE",
"335 27 LINE",
"225 -4 LINE",
"465 -157 LINE"
);
},
{
closed = 1;
nodes = (
"164 558 LINE",
"116 528 OFFCURVE",
"72 495 OFFCURVE",
"51 470 CURVE",
"33 426 OFFCURVE",
"21 363 OFFCURVE",
"21 286 CURVE SMOOTH",
"21 77 OFFCURVE",
"120 -12 OFFCURVE",
"316 -12 CURVE SMOOTH",
"362 -12 OFFCURVE",
"496 59 OFFCURVE",
"538 115 CURVE",
"560 160 OFFCURVE",
"576 232 OFFCURVE",
"576 323 CURVE SMOOTH",
"576 537 OFFCURVE",
"497 625 OFFCURVE",
"301 625 CURVE SMOOTH",
"290 625 OFFCURVE",
"275 618 OFFCURVE",
"264 613 CURVE",
"268 538 LINE",
"275 539 OFFCURVE",
"282 539 OFFCURVE",
"287 539 CURVE SMOOTH",
"371 539 OFFCURVE",
"397 484 OFFCURVE",
"397 304 CURVE SMOOTH",
"397 181 OFFCURVE",
"392 115 OFFCURVE",
"364 91 CURVE SMOOTH",
"350 79 OFFCURVE",
"322 75 OFFCURVE",
"305 75 CURVE SMOOTH",
"212 75 OFFCURVE",
"199 160 OFFCURVE",
"199 307 CURVE SMOOTH",
"199 370 OFFCURVE",
"203 460 OFFCURVE",
"208 523 CURVE"
);
},
{
closed = 1;
nodes = (
"254 586 OFFCURVE",
"247 562 OFFCURVE",
"247 551 CURVE SMOOTH",
"247 66 LINE",
"275 66 LINE",
"289 93 OFFCURVE",
"301 115 OFFCURVE",
"301 123 CURVE SMOOTH",
"301 613 LINE",
"264 613 LINE"
);
}
);
width = 597;
},
{
layerId = "4F39836F-1187-466E-8FAB-7EBF43C51BB4";
paths = (
{
closed = 1;
nodes = (
"473 -101 LINE",
"483 -78 LINE",
"299 9 LINE",
"264 0 LINE",
"458 -101 LINE"
);
},
{
closed = 1;
nodes = (
"133 533 LINE",
"116 513 OFFCURVE",
"105 499 OFFCURVE",
"90 475 CURVE",
"66 426 OFFCURVE",
"55 358 OFFCURVE",
"55 280 CURVE SMOOTH",
"55 130 OFFCURVE",
"103 -10 OFFCURVE",
"275 -10 CURVE SMOOTH",
"314 -10 OFFCURVE",
"402 46 OFFCURVE",
"433 101 CURVE",
"457 149 OFFCURVE",
"475 225 OFFCURVE",
"475 305 CURVE SMOOTH",
"475 488 OFFCURVE",
"412 601 OFFCURVE",
"250 601 CURVE SMOOTH",
"240 601 OFFCURVE",
"221 593 OFFCURVE",
"200 582 CURVE",
"212 556 LINE",
"230 567 OFFCURVE",
"244 572 OFFCURVE",
"254 572 CURVE SMOOTH",
"401 572 OFFCURVE",
"445 458 OFFCURVE",
"445 295 CURVE SMOOTH",
"445 228 OFFCURVE",
"423 132 OFFCURVE",
"407 110 CURVE",
"376 62 OFFCURVE",
"307 18 OFFCURVE",
"273 18 CURVE SMOOTH",
"178 18 OFFCURVE",
"85 60 OFFCURVE",
"85 301 CURVE SMOOTH",
"85 424 OFFCURVE",
"119 483 OFFCURVE",
"145 524 CURVE"
);
},
{
closed = 1;
nodes = (
"190 555 OFFCURVE",
"189 531 OFFCURVE",
"189 520 CURVE SMOOTH",
"189 28 LINE",
"204 28 LINE",
"211 39 OFFCURVE",
"218 50 OFFCURVE",
"218 61 CURVE SMOOTH",
"218 582 LINE",
"200 582 LINE"
);
}
);
width = 530;
},
{
layerId = "555729A4-F539-4650-9C4F-3880CB033E7B";
paths = (
{
closed = 1;
nodes = (
"483 -118 LINE",
"507 -62 LINE",
"305 10 LINE",
"245 -4 LINE",
"437 -118 LINE"
);
},
{
closed = 1;
nodes = (
"136 564 LINE",
"110 542 OFFCURVE",
"84 517 OFFCURVE",
"70 495 CURVE",
"52 450 OFFCURVE",
"40 375 OFFCURVE",
"40 283 CURVE SMOOTH",
"40 79 OFFCURVE",
"130 -9 OFFCURVE",
"306 -9 CURVE SMOOTH",
"336 -9 OFFCURVE",
"443 62 OFFCURVE",
"477 108 CURVE",
"489 153 OFFCURVE",
"502 226 OFFCURVE",
"502 318 CURVE SMOOTH",
"502 525 OFFCURVE",
"408 612 OFFCURVE",
"246 612 CURVE SMOOTH",
"243 612 OFFCURVE",
"236 611 OFFCURVE",
"231 609 CURVE",
"244 549 LINE",
"254 550 OFFCURVE",
"254 550 OFFCURVE",
"262 550 CURVE SMOOTH",
"372 550 OFFCURVE",
"403 458 OFFCURVE",
"403 300 CURVE SMOOTH",
"403 198 OFFCURVE",
"394 138 OFFCURVE",
"384 94 CURVE",
"379 86 OFFCURVE",
"314 51 OFFCURVE",
"298 51 CURVE SMOOTH",
"177 51 OFFCURVE",
"139 111 OFFCURVE",
"139 303 CURVE SMOOTH",
"139 416 OFFCURVE",
"150 475 OFFCURVE",
"162 545 CURVE"
);
},
{
closed = 1;
nodes = (
"218 573 OFFCURVE",
"204 538 OFFCURVE",
"204 523 CURVE SMOOTH",
"204 44 LINE",
"235 44 LINE",
"249 71 OFFCURVE",
"256 93 OFFCURVE",
"256 101 CURVE SMOOTH",
"256 609 LINE",
"231 609 LINE"
);
}
);
width = 542;
}
);
leftKerningGroup = O;
leftMetricsKey = O;
rightKerningGroup = O;
unicode = 0051;
},
{
glyphname = R;
layers = (
{
anchors = (
{
name = bottom;
position = "{298, 0}";
},
{
name = top;
position = "{296, 610}";
}
);
layerId = "52F4C6DE-93AC-450D-9CD0-4DAC5691B9C2";
paths = (
{
closed = 1;
nodes = (
"306 247 LINE",
"365 241 OFFCURVE",
"419 234 OFFCURVE",
"461 234 CURVE SMOOTH",
"469 234 OFFCURVE",
"577 348 OFFCURVE",
"584 378 CURVE SMOOTH",
"590 403 OFFCURVE",
"591 433 OFFCURVE",
"591 457 CURVE SMOOTH",
"591 589 OFFCURVE",
"517 625 OFFCURVE",
"428 625 CURVE SMOOTH",
"306 625 LINE",
"306 532 LINE",
"364 541 LINE SMOOTH",
"403 547 OFFCURVE",
"419 521 OFFCURVE",
"419 427 CURVE SMOOTH",
"419 369 OFFCURVE",
"408 312 OFFCURVE",
"398 316 CURVE SMOOTH",
"305 356 LINE"
);
},
{
closed = 1;
nodes = (
"75 39 LINE",
"80 27 OFFCURVE",
"98 -4 OFFCURVE",
"123 -12 CURVE SMOOTH",
"139 -17 OFFCURVE",
"220 -5 OFFCURVE",
"274 1 CURVE",
"308 66 LINE",
"242 89 LINE",
"242 572 LINE",
"237 584 OFFCURVE",
"219 615 OFFCURVE",
"194 623 CURVE SMOOTH",
"178 628 OFFCURVE",
"79 616 OFFCURVE",
"25 610 CURVE",
"25 545 LINE",
"75 522 LINE"
);
},
{
closed = 1;
nodes = (
"443 -1 OFFCURVE",
"558 -17 OFFCURVE",
"632 -13 CURVE",
"655 60 LINE",
"600 89 LINE",
"578 124 OFFCURVE",
"539 200 OFFCURVE",
"505 264 CURVE",
"506 279 LINE",
"338 276 LINE",
"372 179 OFFCURVE",
"412 78 OFFCURVE",
"436 16 CURVE SMOOTH"
);
},
{
closed = 1;
nodes = (
"287 598 OFFCURVE",
"280 574 OFFCURVE",
"280 563 CURVE SMOOTH",
"280 66 LINE",
"308 66 LINE",
"322 93 OFFCURVE",
"334 115 OFFCURVE",
"334 123 CURVE SMOOTH",
"334 625 LINE",
"297 625 LINE"
);
}
);
width = 639;
},
{
anchors = (
{
name = bottom;
position = "{296, 0}";
},
{
name = top;
position = "{269, 591}";
}
);
background = {
anchors = (
{
name = bottom;
position = "{254, 0}";
}
);
};
layerId = "4F39836F-1187-466E-8FAB-7EBF43C51BB4";
paths = (
{
closed = 1;
nodes = (
"213 264 LINE",
"250 261 OFFCURVE",
"290 257 OFFCURVE",
"324 257 CURVE SMOOTH",
"345 257 OFFCURVE",
"420 309 OFFCURVE",
"439 357 CURVE SMOOTH",
"448 380 OFFCURVE",
"451 413 OFFCURVE",
"451 440 CURVE SMOOTH",
"451 574 OFFCURVE",
"380 601 OFFCURVE",
"299 601 CURVE SMOOTH",
"213 601 LINE",
"213 574 LINE",
"308 576 LINE SMOOTH",
"391 578 OFFCURVE",
"432 526 OFFCURVE",
"421 398 CURVE SMOOTH",
"415 334 OFFCURVE",
"338 280 OFFCURVE",
"316 282 CURVE SMOOTH",
"213 290 LINE"
);
},
{
closed = 1;
nodes = (
"104 12 LINE SMOOTH",
"104 8 OFFCURVE",
"121 -10 OFFCURVE",
"124 -10 CURVE SMOOTH",
"130 -10 OFFCURVE",
"170 -6 OFFCURVE",
"194 -2 CURVE",
"208 15 LINE",
"134 18 LINE",
"134 579 LINE SMOOTH",
"134 583 OFFCURVE",
"116 601 OFFCURVE",
"113 601 CURVE SMOOTH",
"106 601 OFFCURVE",
"49 591 OFFCURVE",
"37 589 CURVE",
"37 572 LINE",
"104 569 LINE"
);
},
{
closed = 1;
nodes = (
"441 0 OFFCURVE",
"485 -3 OFFCURVE",
"513 -2 CURVE",
"515 17 LINE",
"459 25 LINE",
"429 72 OFFCURVE",
"382 175 OFFCURVE",
"345 258 CURVE",
"345 269 LINE",
"306 269 LINE",
"353 169 OFFCURVE",
"401 60 OFFCURVE",
"437 6 CURVE SMOOTH"
);
},
{
closed = 1;
nodes = (
"194 574 OFFCURVE",
"192 550 OFFCURVE",
"192 539 CURVE SMOOTH",
"192 15 LINE",
"208 15 LINE",
"222 35 OFFCURVE",
"222 37 OFFCURVE",
"222 48 CURVE SMOOTH",
"222 601 LINE",
"204 601 LINE"
);
}
);
width = 519;
},
{
anchors = (
{
name = bottom;
position = "{339, 0}";
},
{
name = top;
position = "{309, 603}";
}
);
layerId = "555729A4-F539-4650-9C4F-3880CB033E7B";
paths = (
{
closed = 1;
nodes = (
"276 264 LINE",
"304 263 OFFCURVE",
"332 261 OFFCURVE",
"360 261 CURVE SMOOTH",
"392 261 OFFCURVE",
"485 329 OFFCURVE",
"501 357 CURVE SMOOTH",
"512 376 OFFCURVE",
"514 409 OFFCURVE",
"514 443 CURVE SMOOTH",
"514 577 OFFCURVE",
"459 612 OFFCURVE",
"353 612 CURVE SMOOTH",
"278 612 LINE",
"278 551 LINE",
"359 561 LINE SMOOTH",
"397 566 OFFCURVE",
"416 538 OFFCURVE",
"416 455 CURVE SMOOTH",
"416 352 OFFCURVE",
"396 313 OFFCURVE",
"376 317 CURVE SMOOTH",
"277 335 LINE"
);
},
{
closed = 1;
nodes = (
"92 24 LINE SMOOTH",
"92 17 OFFCURVE",
"120 -9 OFFCURVE",
"126 -9 CURVE SMOOTH",
"130 -9 OFFCURVE",
"224 3 OFFCURVE",
"252 7 CURVE",
"271 44 LINE",
"185 59 LINE",
"185 578 LINE SMOOTH",
"185 584 OFFCURVE",
"159 612 OFFCURVE",
"153 612 CURVE SMOOTH",
"144 612 OFFCURVE",
"61 602 OFFCURVE",
"30 597 CURVE",
"30 558 LINE",
"92 543 LINE"
);
},
{
closed = 1;
nodes = (
"449 0 OFFCURVE",
"532 -8 OFFCURVE",
"581 -5 CURVE",
"588 42 LINE",
"535 58 LINE",
"502 119 OFFCURVE",
"459 203 OFFCURVE",
"429 282 CURVE",
"429 297 LINE",
"324 297 LINE",
"357 210 OFFCURVE",
"408 86 OFFCURVE",
"441 16 CURVE SMOOTH"
);
},
{
closed = 1;
nodes = (
"254 576 OFFCURVE",
"240 541 OFFCURVE",
"240 526 CURVE SMOOTH",
"240 44 LINE",
"271 44 LINE",
"285 71 OFFCURVE",
"292 93 OFFCURVE",
"292 101 CURVE SMOOTH",
"292 612 LINE",
"267 612 LINE"
);
}
);
width = 587;
}
);
leftKerningGroup = H;
leftMetricsKey = H;
rightKerningGroup = R;
unicode = 0052;
},
{
glyphname = S;
layers = (
{
anchors = (
{
name = bottom;
position = "{280, 0}";
},
{
name = top;
position = "{302, 619}";
}
);
background = {
paths = (
{
closed = 1;
nodes = (
"103 0 OFFCURVE",
"260 -12 OFFCURVE",
"320 -12 CURVE SMOOTH",
"365 -12 OFFCURVE",
"521 67 OFFCURVE",
"547 142 CURVE",
"551 207 OFFCURVE",
"548 288 OFFCURVE",
"541 312 CURVE",
"491 368 OFFCURVE",
"287 440 OFFCURVE",
"276 461 CURVE SMOOTH",
"266 480 OFFCURVE",
"261 536 OFFCURVE",
"276 553 CURVE SMOOTH",
"281 559 OFFCURVE",
"288 560 OFFCURVE",
"298 560 CURVE SMOOTH",
"324 560 OFFCURVE",
"394 541 OFFCURVE",
"422 528 CURVE",
"447 418 LINE",
"524 418 LINE",
"532 598 LINE",
"473 609 OFFCURVE",
"295 625 OFFCURVE",
"270 625 CURVE SMOOTH",
"247 625 OFFCURVE",
"155 570 OFFCURVE",
"131 539 CURVE SMOOTH",
"116 520 OFFCURVE",
"119 417 OFFCURVE",
"132 370 CURVE SMOOTH",
"142 335 OFFCURVE",
"375 246 OFFCURVE",
"402 213 CURVE SMOOTH",
"411 202 OFFCURVE",
"410 146 OFFCURVE",
"406 125 CURVE SMOOTH",
"401 100 OFFCURVE",
"335 63 OFFCURVE",
"306 63 CURVE SMOOTH",
"286 63 OFFCURVE",
"201 80 OFFCURVE",
"150 103 CURVE",
"125 199 LINE",
"42 199 LINE",
"34 8 LINE"
);
},
{
closed = 1;
nodes = (
"339 109 OFFCURVE",
"360 122 OFFCURVE",
"368 134 CURVE",
"370 147 OFFCURVE",
"371 171 OFFCURVE",
"366 183 CURVE SMOOTH",
"354 211 OFFCURVE",
"128 295 OFFCURVE",
"98 341 CURVE SMOOTH",
"87 358 OFFCURVE",
"80 442 OFFCURVE",
"86 512 CURVE",
"69 499 OFFCURVE",
"51 483 OFFCURVE",
"41 466 CURVE",
"35 418 OFFCURVE",
"41 332 OFFCURVE",
"56 311 CURVE SMOOTH",
"91 264 OFFCURVE",
"295 183 OFFCURVE",
"318 156 CURVE SMOOTH",
"324 149 OFFCURVE",
"322 123 OFFCURVE",
"319 101 CURVE"
);
}
);
};
layerId = "52F4C6DE-93AC-450D-9CD0-4DAC5691B9C2";
paths = (
{
closed = 1;
nodes = (
"103 0 OFFCURVE",
"260 -12 OFFCURVE",
"320 -12 CURVE SMOOTH",
"365 -12 OFFCURVE",
"521 67 OFFCURVE",
"547 142 CURVE",
"551 207 OFFCURVE",
"548 288 OFFCURVE",
"541 312 CURVE",
"491 368 OFFCURVE",
"287 440 OFFCURVE",
"276 461 CURVE SMOOTH",
"266 480 OFFCURVE",
"261 536 OFFCURVE",
"276 553 CURVE SMOOTH",
"281 559 OFFCURVE",
"288 560 OFFCURVE",
"298 560 CURVE SMOOTH",
"324 560 OFFCURVE",
"394 541 OFFCURVE",
"422 528 CURVE",
"447 418 LINE",
"524 418 LINE",
"532 598 LINE",
"473 609 OFFCURVE",
"295 625 OFFCURVE",
"270 625 CURVE SMOOTH",
"218 625 OFFCURVE",
"62 520 OFFCURVE",
"44 461 CURVE",
"37 426 OFFCURVE",
"40 335 OFFCURVE",
"56 311 CURVE SMOOTH",
"91 264 OFFCURVE",
"295 183 OFFCURVE",
"318 156 CURVE SMOOTH",
"324 150 OFFCURVE",
"322 119 OFFCURVE",
"319 101 CURVE",
"339 109 OFFCURVE",
"360 122 OFFCURVE",
"368 134 CURVE",
"370 149 OFFCURVE",
"374 173 OFFCURVE",
"366 183 CURVE SMOOTH",
"353 202 OFFCURVE",
"235 258 OFFCURVE",
"159 297 CURVE SMOOTH",
"125 314 OFFCURVE",
"106 326 OFFCURVE",
"96 340 CURVE SMOOTH",
"84 357 OFFCURVE",
"84 378 OFFCURVE",
"84 416 CURVE SMOOTH",
"84 449 OFFCURVE",
"83 458 OFFCURVE",
"121 489 CURVE",
"120 449 OFFCURVE",
"124 398 OFFCURVE",
"132 370 CURVE SMOOTH",
"142 335 OFFCURVE",
"375 246 OFFCURVE",
"402 213 CURVE SMOOTH",
"411 202 OFFCURVE",
"410 146 OFFCURVE",
"406 125 CURVE SMOOTH",
"401 100 OFFCURVE",
"335 63 OFFCURVE",
"306 63 CURVE SMOOTH",
"286 63 OFFCURVE",
"201 80 OFFCURVE",
"150 103 CURVE",
"125 199 LINE",
"42 199 LINE",
"34 8 LINE"
);
}
);
width = 580;
},
{
anchors = (
{
name = bottom;
position = "{213, 0}";
},
{
name = top;
position = "{227, 591}";
}
);
background = {
paths = (
{
closed = 1;
nodes = (
"99 -1 OFFCURVE",
"251 -10 OFFCURVE",
"278 -10 CURVE SMOOTH",
"298 -10 OFFCURVE",
"366 39 OFFCURVE",
"387 97 CURVE",
"392 129 OFFCURVE",
"393 177 OFFCURVE",
"390 210 CURVE",
"364 262 OFFCURVE",
"198 365 OFFCURVE",
"166 408 CURVE SMOOTH",
"154 424 OFFCURVE",
"155 510 OFFCURVE",
"164 534 CURVE SMOOTH",
"170 551 OFFCURVE",
"216 574 OFFCURVE",
"230 574 CURVE SMOOTH",
"248 574 OFFCURVE",
"299 567 OFFCURVE",
"341 560 CURVE",
"348 461 LINE",
"367 461 LINE",
"373 583 LINE",
"343 591 OFFCURVE",
"254 601 OFFCURVE",
"230 601 CURVE SMOOTH",
"205 601 OFFCURVE",
"154 571 OFFCURVE",
"137 546 CURVE SMOOTH",
"125 529 OFFCURVE",
"124 416 OFFCURVE",
"137 397 CURVE SMOOTH",
"165 356 OFFCURVE",
"297 272 OFFCURVE",
"357 208 CURVE SMOOTH",
"365 199 OFFCURVE",
"362 114 OFFCURVE",
"358 101 CURVE SMOOTH",
"350 75 OFFCURVE",
"297 16 OFFCURVE",
"272 16 CURVE SMOOTH",
"242 16 OFFCURVE",
"123 24 OFFCURVE",
"85 30 CURVE",
"74 128 LINE",
"55 128 LINE",
"54 6 LINE"
);
},
{
closed = 1;
nodes = (
"291 77 OFFCURVE",
"303 92 OFFCURVE",
"308 102 CURVE",
"311 116 OFFCURVE",
"311 141 OFFCURVE",
"309 163 CURVE",
"283 215 OFFCURVE",
"122 317 OFFCURVE",
"90 360 CURVE SMOOTH",
"78 376 OFFCURVE",
"78 476 OFFCURVE",
"87 512 CURVE",
"76 500 OFFCURVE",
"62 483 OFFCURVE",
"56 473 CURVE",
"51 453 OFFCURVE",
"50 367 OFFCURVE",
"63 348 CURVE SMOOTH",
"92 305 OFFCURVE",
"221 223 OFFCURVE",
"279 159 CURVE SMOOTH",
"287 150 OFFCURVE",
"284 89 OFFCURVE",
"280 70 CURVE"
);
}
);
};
layerId = "4F39836F-1187-466E-8FAB-7EBF43C51BB4";
paths = (
{
closed = 1;
nodes = (
"99 -1 OFFCURVE",
"251 -10 OFFCURVE",
"278 -10 CURVE SMOOTH",
"298 -10 OFFCURVE",
"366 39 OFFCURVE",
"387 97 CURVE",
"392 129 OFFCURVE",
"393 177 OFFCURVE",
"390 210 CURVE",
"364 262 OFFCURVE",
"198 365 OFFCURVE",
"166 408 CURVE SMOOTH",
"154 424 OFFCURVE",
"155 511 OFFCURVE",
"164 535 CURVE SMOOTH",
"170 552 OFFCURVE",
"216 574 OFFCURVE",
"230 574 CURVE SMOOTH",
"248 574 OFFCURVE",
"299 567 OFFCURVE",
"341 560 CURVE",
"348 461 LINE",
"367 461 LINE",
"373 583 LINE",
"343 591 OFFCURVE",
"254 601 OFFCURVE",
"230 601 CURVE SMOOTH",
"188 601 OFFCURVE",
"84 515 OFFCURVE",
"56 473 CURVE",
"51 454 OFFCURVE",
"50 365 OFFCURVE",
"63 348 CURVE SMOOTH",
"92 305 OFFCURVE",
"221 223 OFFCURVE",
"279 159 CURVE SMOOTH",
"287 151 OFFCURVE",
"284 90 OFFCURVE",
"280 70 CURVE",
"291 77 OFFCURVE",
"303 92 OFFCURVE",
"308 102 CURVE",
"310 111 OFFCURVE",
"310 149 OFFCURVE",
"309 163 CURVE",
"290 200 OFFCURVE",
"200 266 OFFCURVE",
"140 313 CURVE SMOOTH",
"112 335 OFFCURVE",
"97 346 OFFCURVE",
"89 360 CURVE SMOOTH",
"80 376 OFFCURVE",
"81 396 OFFCURVE",
"81 443 CURVE SMOOTH",
"81 472 OFFCURVE",
"91 481 OFFCURVE",
"129 514 CURVE",
"126 473 OFFCURVE",
"128 410 OFFCURVE",
"137 397 CURVE SMOOTH",
"165 356 OFFCURVE",
"297 272 OFFCURVE",
"357 208 CURVE SMOOTH",
"365 199 OFFCURVE",
"362 114 OFFCURVE",
"358 101 CURVE SMOOTH",
"350 75 OFFCURVE",
"297 16 OFFCURVE",
"272 16 CURVE SMOOTH",
"242 16 OFFCURVE",
"123 24 OFFCURVE",
"85 30 CURVE",
"74 128 LINE",
"55 128 LINE",
"54 6 LINE"
);
}
);
width = 434;
},
{
anchors = (
{
name = bottom;
position = "{249, 0}";
},
{
name = top;
position = "{276, 603}";
}
);
background = {
paths = (
{
closed = 1;
nodes = (
"109 -4 OFFCURVE",
"242 -9 OFFCURVE",
"292 -9 CURVE SMOOTH",
"331 -9 OFFCURVE",
"442 62 OFFCURVE",
"465 114 CURVE",
"472 140 OFFCURVE",
"474 239 OFFCURVE",
"465 271 CURVE",
"413 332 OFFCURVE",
"278 393 OFFCURVE",
"239 436 CURVE SMOOTH",
"229 447 OFFCURVE",
"226 518 OFFCURVE",
"237 537 CURVE SMOOTH",
"241 544 OFFCURVE",
"249 548 OFFCURVE",
"266 548 CURVE SMOOTH",
"293 548 OFFCURVE",
"346 538 OFFCURVE",
"376 524 CURVE",
"391 422 LINE",
"447 422 LINE",
"455 594 LINE",
"399 605 OFFCURVE",
"287 611 OFFCURVE",
"267 611 CURVE SMOOTH",
"244 611 OFFCURVE",
"176 577 OFFCURVE",
"146 547 CURVE SMOOTH",
"133 534 OFFCURVE",
"138 413 OFFCURVE",
"148 395 CURVE SMOOTH",
"174 348 OFFCURVE",
"358 251 OFFCURVE",
"386 215 CURVE SMOOTH",
"393 206 OFFCURVE",
"394 150 OFFCURVE",
"388 121 CURVE SMOOTH",
"384 100 OFFCURVE",
"304 50 OFFCURVE",
"292 50 CURVE SMOOTH",
"271 50 OFFCURVE",
"180 66 OFFCURVE",
"128 78 CURVE",
"112 184 LINE",
"56 184 LINE",
"49 1 LINE"
);
},
{
closed = 1;
nodes = (
"308 107 OFFCURVE",
"335 125 OFFCURVE",
"340 137 CURVE",
"344 163 OFFCURVE",
"342 172 OFFCURVE",
"338 180 CURVE SMOOTH",
"318 220 OFFCURVE",
"113 334 OFFCURVE",
"102 368 CURVE SMOOTH",
"93 395 OFFCURVE",
"91 450 OFFCURVE",
"93 509 CURVE",
"77 496 OFFCURVE",
"56 470 OFFCURVE",
"46 455 CURVE",
"44 419 OFFCURVE",
"47 370 OFFCURVE",
"53 348 CURVE SMOOTH",
"67 297 OFFCURVE",
"260 197 OFFCURVE",
"286 159 CURVE SMOOTH",
"293 149 OFFCURVE",
"292 124 OFFCURVE",
"289 98 CURVE"
);
}
);
};
layerId = "555729A4-F539-4650-9C4F-3880CB033E7B";
paths = (
{
closed = 1;
nodes = (
"109 -4 OFFCURVE",
"242 -9 OFFCURVE",
"292 -9 CURVE SMOOTH",
"331 -9 OFFCURVE",
"442 62 OFFCURVE",
"465 114 CURVE",
"472 140 OFFCURVE",
"474 239 OFFCURVE",
"465 271 CURVE",
"413 332 OFFCURVE",
"278 393 OFFCURVE",
"239 436 CURVE SMOOTH",
"229 447 OFFCURVE",
"226 518 OFFCURVE",
"237 537 CURVE SMOOTH",
"241 544 OFFCURVE",
"249 548 OFFCURVE",
"266 548 CURVE SMOOTH",
"293 548 OFFCURVE",
"346 538 OFFCURVE",
"376 524 CURVE",
"391 422 LINE",
"447 422 LINE",
"455 594 LINE",
"399 605 OFFCURVE",
"287 611 OFFCURVE",
"267 611 CURVE SMOOTH",
"217 611 OFFCURVE",
"83 517 OFFCURVE",
"52 459 CURVE",
"43 432 OFFCURVE",
"45 377 OFFCURVE",
"53 348 CURVE SMOOTH",
"67 297 OFFCURVE",
"260 197 OFFCURVE",
"286 159 CURVE SMOOTH",
"293 148 OFFCURVE",
"291 121 OFFCURVE",
"289 98 CURVE",
"308 107 OFFCURVE",
"335 125 OFFCURVE",
"340 137 CURVE",
"342 148 OFFCURVE",
"344 167 OFFCURVE",
"338 180 CURVE SMOOTH",
"327 203 OFFCURVE",
"250 252 OFFCURVE",
"190 294 CURVE SMOOTH",
"143 327 OFFCURVE",
"116 343 OFFCURVE",
"103 368 CURVE SMOOTH",
"97 381 OFFCURVE",
"94 396 OFFCURVE",
"94 417 CURVE SMOOTH",
"94 444 OFFCURVE",
"102 457 OFFCURVE",
"138 486 CURVE",
"139 449 OFFCURVE",
"143 405 OFFCURVE",
"148 395 CURVE SMOOTH",
"174 348 OFFCURVE",
"358 251 OFFCURVE",
"386 215 CURVE SMOOTH",
"393 206 OFFCURVE",
"394 150 OFFCURVE",
"388 121 CURVE SMOOTH",
"384 100 OFFCURVE",
"304 50 OFFCURVE",
"292 50 CURVE SMOOTH",
"271 50 OFFCURVE",
"180 66 OFFCURVE",
"128 78 CURVE",
"112 184 LINE",
"56 184 LINE",
"49 1 LINE"
);
}
);
width = 506;
}
);
leftKerningGroup = S;
rightKerningGroup = S;
unicode = 0053;
},
{
glyphname = Germandbls;
layers = (
{
layerId = "52F4C6DE-93AC-450D-9CD0-4DAC5691B9C2";
paths = (
{
closed = 1;
nodes = (
"75 39 LINE",
"81 25 OFFCURVE",
"104 -13 OFFCURVE",
"135 -13 CURVE SMOOTH",
"163 -13 OFFCURVE",
"223 -4 OFFCURVE",
"268 1 CURVE",
"302 66 LINE",
"242 89 LINE",
"242 572 LINE",
"237 584 OFFCURVE",
"219 615 OFFCURVE",
"194 623 CURVE SMOOTH",
"180 628 OFFCURVE",
"79 616 OFFCURVE",
"25 610 CURVE",
"25 545 LINE",
"75 522 LINE"
);
},
{
closed = 1;
nodes = (
"303 516 LINE",
"567 532 LINE",
"657 566 LINE",
"632 610 LINE",
"317 610 LINE"
);
},
{
closed = 1;
nodes = (
"419 265 LINE",
"509 265 LINE SMOOTH",
"535 265 OFFCURVE",
"535 235 OFFCURVE",
"535 194 CURVE SMOOTH",
"535 131 OFFCURVE",
"527 97 OFFCURVE",
"513 91 CURVE SMOOTH",
"496 84 OFFCURVE",
"455 86 OFFCURVE",
"361 86 CURVE",
"347 3 LINE",
"397 -3 OFFCURVE",
"476 -12 OFFCURVE",
"504 -12 CURVE SMOOTH",
"552 -12 OFFCURVE",
"689 106 OFFCURVE",
"694 126 CURVE SMOOTH",
"700 149 OFFCURVE",
"701 177 OFFCURVE",
"701 200 CURVE SMOOTH",
"701 289 OFFCURVE",
"655 344 OFFCURVE",
"529 344 CURVE SMOOTH",
"498 344 OFFCURVE",
"463 341 OFFCURVE",
"422 334 CURVE"
);
},
{
closed = 1;
nodes = (
"347 3 LINE",
"462 3 LINE",
"442 198 LINE",
"357 198 LINE"
);
},
{
closed = 1;
nodes = (
"365 327 LINE",
"419 265 LINE",
"514 340 LINE",
"507 354 LINE",
"657 566 LINE",
"541 599 LINE"
);
},
{
closed = 1;
nodes = (
"294 583 OFFCURVE",
"287 559 OFFCURVE",
"287 548 CURVE SMOOTH",
"287 66 LINE",
"302 66 LINE",
"316 93 OFFCURVE",
"328 115 OFFCURVE",
"328 123 CURVE SMOOTH",
"328 610 LINE",
"304 610 LINE"
);
}
);
width = 730;
},
{
layerId = "4F39836F-1187-466E-8FAB-7EBF43C51BB4";
paths = (
{
closed = 1;
nodes = (
"104 12 LINE SMOOTH",
"104 8 OFFCURVE",
"121 -10 OFFCURVE",
"124 -10 CURVE SMOOTH",
"130 -10 OFFCURVE",
"170 -6 OFFCURVE",
"194 -2 CURVE",
"208 15 LINE",
"134 18 LINE",
"134 579 LINE SMOOTH",
"134 583 OFFCURVE",
"116 601 OFFCURVE",
"113 601 CURVE SMOOTH",
"106 601 OFFCURVE",
"49 591 OFFCURVE",
"37 589 CURVE",
"37 572 LINE",
"104 569 LINE"
);
},
{
closed = 1;
nodes = (
"214 564 LINE",
"479 571 LINE",
"496 575 LINE",
"482 591 LINE",
"214 591 LINE"
);
},
{
closed = 1;
nodes = (
"304 298 LINE",
"404 298 LINE SMOOTH",
"462 298 OFFCURVE",
"502 244 OFFCURVE",
"490 129 CURVE SMOOTH",
"483 64 OFFCURVE",
"407 15 OFFCURVE",
"385 16 CURVE SMOOTH",
"363 17 OFFCURVE",
"326 21 OFFCURVE",
"268 26 CURVE",
"266 8 LINE",
"299 3 OFFCURVE",
"366 -9 OFFCURVE",
"392 -9 CURVE SMOOTH",
"413 -9 OFFCURVE",
"489 43 OFFCURVE",
"508 91 CURVE SMOOTH",
"517 113 OFFCURVE",
"520 137 OFFCURVE",
"520 162 CURVE SMOOTH",
"520 287 OFFCURVE",
"471 321 OFFCURVE",
"385 321 CURVE SMOOTH",
"364 321 OFFCURVE",
"330 320 OFFCURVE",
"305 318 CURVE"
);
},
{
closed = 1;
nodes = (
"266 8 LINE",
"300 8 LINE",
"288 144 LINE",
"270 144 LINE"
);
},
{
closed = 1;
nodes = (
"289 316 LINE",
"304 298 LINE",
"327 312 LINE",
"320 326 LINE",
"496 575 LINE",
"462 576 LINE"
);
},
{
closed = 1;
nodes = (
"194 564 OFFCURVE",
"192 540 OFFCURVE",
"192 529 CURVE SMOOTH",
"192 15 LINE",
"208 15 LINE",
"222 35 OFFCURVE",
"222 37 OFFCURVE",
"222 48 CURVE SMOOTH",
"222 591 LINE",
"204 591 LINE"
);
}
);
width = 533;
},
{
guideLines = (
{
angle = 90;
position = "{638, 277}";
}
);
layerId = "555729A4-F539-4650-9C4F-3880CB033E7B";
paths = (
{
closed = 1;
nodes = (
"92 24 LINE SMOOTH",
"92 17 OFFCURVE",
"120 -9 OFFCURVE",
"126 -9 CURVE SMOOTH",
"130 -9 OFFCURVE",
"224 3 OFFCURVE",
"252 7 CURVE",
"271 44 LINE",
"185 59 LINE",
"185 578 LINE SMOOTH",
"185 584 OFFCURVE",
"159 612 OFFCURVE",
"153 612 CURVE SMOOTH",
"144 612 OFFCURVE",
"61 602 OFFCURVE",
"30 597 CURVE",
"30 558 LINE",
"92 543 LINE"
);
},
{
closed = 1;
nodes = (
"278 540 LINE",
"498 554 LINE",
"586 568 LINE",
"565 603 LINE",
"278 603 LINE"
);
},
{
closed = 1;
nodes = (
"367 289 LINE",
"501 289 LINE SMOOTH",
"531 289 OFFCURVE",
"543 245 OFFCURVE",
"543 188 CURVE SMOOTH",
"543 110 OFFCURVE",
"509 63 OFFCURVE",
"492 60 CURVE SMOOTH",
"471 56 OFFCURVE",
"385 53 OFFCURVE",
"337 53 CURVE",
"326 1 LINE",
"365 -2 OFFCURVE",
"445 -9 OFFCURVE",
"466 -9 CURVE SMOOTH",
"513 -9 OFFCURVE",
"617 65 OFFCURVE",
"623 88 CURVE SMOOTH",
"633 123 OFFCURVE",
"638 155 OFFCURVE",
"638 184 CURVE SMOOTH",
"638 286 OFFCURVE",
"573 340 OFFCURVE",
"447 340 CURVE SMOOTH",
"422 340 OFFCURVE",
"396 339 OFFCURVE",
"369 336 CURVE"
);
},
{
closed = 1;
nodes = (
"326 1 LINE",
"408 1 LINE",
"392 184 LINE",
"340 184 LINE"
);
},
{
closed = 1;
nodes = (
"331 341 LINE",
"367 288 LINE",
"425 333 LINE",
"418 347 LINE",
"586 568 LINE",
"498 587 LINE"
);
},
{
closed = 1;
nodes = (
"254 567 OFFCURVE",
"240 532 OFFCURVE",
"240 517 CURVE SMOOTH",
"240 44 LINE",
"271 44 LINE",
"285 71 OFFCURVE",
"292 93 OFFCURVE",
"292 101 CURVE SMOOTH",
"292 603 LINE",
"267 603 LINE"
);
}
);
width = 644;
}
);
leftKerningGroup = H;
leftMetricsKey = H;
unicode = 1E9E;
},
{
glyphname = Schwa;
layers = (
{
layerId = "52F4C6DE-93AC-450D-9CD0-4DAC5691B9C2";
paths = (
{
closed = 1;
nodes = (
"442 55 LINE",
"490 85 OFFCURVE",
"534 118 OFFCURVE",
"555 143 CURVE",
"573 187 OFFCURVE",
"585 250 OFFCURVE",
"585 324 CURVE SMOOTH",
"585 536 OFFCURVE",
"486 625 OFFCURVE",
"290 625 CURVE SMOOTH",
"244 625 OFFCURVE",
"138 609 OFFCURVE",
"62 599 CURVE",
"112 498 LINE",
"203 525 OFFCURVE",
"289 538 OFFCURVE",
"306 538 CURVE SMOOTH",
"393 538 OFFCURVE",
"407 453 OFFCURVE",
"407 303 CURVE SMOOTH",
"407 243 OFFCURVE",
"403 153 OFFCURVE",
"398 90 CURVE"
);
},
{
closed = 1;
nodes = (
"311 -12 OFFCURVE",
"326 -4 OFFCURVE",
"333 -2 CURVE",
"338 75 LINE",
"331 74 OFFCURVE",
"322 74 OFFCURVE",
"317 74 CURVE SMOOTH",
"247 74 OFFCURVE",
"220 112 OFFCURVE",
"211 226 CURVE",
"348 238 LINE",
"347 314 LINE",
"30 287 LINE",
"30 76 OFFCURVE",
"107 -12 OFFCURVE",
"303 -12 CURVE SMOOTH"
);
},
{
closed = 1;
nodes = (
"160 386 LINE",
"181 599 LINE",
"62 599 LINE",
"75 386 LINE"
);
},
{
closed = 1;
nodes = (
"333 -2 LINE",
"347 25 OFFCURVE",
"359 47 OFFCURVE",
"359 55 CURVE SMOOTH",
"359 539 LINE",
"322 541 LINE",
"312 514 OFFCURVE",
"305 492 OFFCURVE",
"305 481 CURVE SMOOTH",
"305 -2 LINE"
);
}
);
width = 606;
},
{
layerId = "4F39836F-1187-466E-8FAB-7EBF43C51BB4";
paths = (
{
closed = 1;
nodes = (
"407 58 LINE",
"424 78 OFFCURVE",
"435 92 OFFCURVE",
"450 116 CURVE",
"474 165 OFFCURVE",
"485 233 OFFCURVE",
"485 305 CURVE SMOOTH",
"485 488 OFFCURVE",
"412 601 OFFCURVE",
"265 601 CURVE SMOOTH",
"223 601 OFFCURVE",
"145 593 OFFCURVE",
"77 583 CURVE",
"87 557 LINE",
"150 568 OFFCURVE",
"212 576 OFFCURVE",
"245 576 CURVE SMOOTH",
"403 576 OFFCURVE",
"455 465 OFFCURVE",
"455 295 CURVE SMOOTH",
"455 167 OFFCURVE",
"421 108 OFFCURVE",
"395 67 CURVE"
);
},
{
closed = 1;
nodes = (
"301 -10 OFFCURVE",
"319 -2 OFFCURVE",
"340 9 CURVE",
"328 33 LINE",
"310 24 OFFCURVE",
"296 19 OFFCURVE",
"286 19 CURVE SMOOTH",
"194 19 OFFCURVE",
"110 58 OFFCURVE",
"97 252 CURVE",
"340 272 LINE",
"339 293 LINE",
"65 273 LINE",
"68 102 OFFCURVE",
"138 -10 OFFCURVE",
"282 -10 CURVE SMOOTH"
);
},
{
closed = 1;
nodes = (
"105 449 LINE",
"111 585 LINE",
"77 583 LINE",
"86 449 LINE"
);
},
{
closed = 1;
nodes = (
"340 9 LINE",
"350 36 OFFCURVE",
"351 60 OFFCURVE",
"351 71 CURVE SMOOTH",
"351 563 LINE",
"336 563 LINE",
"329 552 OFFCURVE",
"322 533 OFFCURVE",
"322 522 CURVE SMOOTH",
"322 8 LINE"
);
}
);
width = 540;
},
{
layerId = "555729A4-F539-4650-9C4F-3880CB033E7B";
paths = (
{
closed = 1;
nodes = (
"419 39 LINE",
"445 61 OFFCURVE",
"471 86 OFFCURVE",
"485 108 CURVE",
"503 153 OFFCURVE",
"515 227 OFFCURVE",
"515 318 CURVE SMOOTH",
"515 524 OFFCURVE",
"425 611 OFFCURVE",
"249 611 CURVE SMOOTH",
"229 611 OFFCURVE",
"142 589 OFFCURVE",
"85 575 CURVE",
"102 506 LINE",
"186 531 OFFCURVE",
"259 552 OFFCURVE",
"269 552 CURVE",
"371 552 OFFCURVE",
"416 494 OFFCURVE",
"416 300 CURVE SMOOTH",
"416 187 OFFCURVE",
"405 128 OFFCURVE",
"393 58 CURVE"
);
},
{
closed = 1;
nodes = (
"321 -9 OFFCURVE",
"328 -3 OFFCURVE",
"330 0 CURVE",
"331 57 LINE",
"322 53 OFFCURVE",
"315 51 OFFCURVE",
"311 51 CURVE SMOOTH",
"205 51 OFFCURVE",
"163 97 OFFCURVE",
"154 237 CURVE",
"339 256 LINE",
"339 301 LINE",
"53 283 LINE",
"53 79 OFFCURVE",
"143 -9 OFFCURVE",
"319 -9 CURVE SMOOTH"
);
},
{
closed = 1;
nodes = (
"152 408 LINE",
"167 575 LINE",
"85 575 LINE",
"100 408 LINE"
);
},
{
closed = 1;
nodes = (
"330 0 LINE",
"344 27 OFFCURVE",
"351 52 OFFCURVE",
"351 60 CURVE SMOOTH",
"351 548 LINE",
"326 548 LINE",
"313 512 OFFCURVE",
"299 477 OFFCURVE",
"299 462 CURVE SMOOTH",
"299 0 LINE"
);
}
);
width = 555;
}
);
rightKerningGroup = "0";
rightMetricsKey = O;
unicode = 018F;
},
{
glyphname = T;
layers = (
{
anchors = (
{
name = bottom;
position = "{257, 0}";
},
{
name = center;
position = "{256, 287}";
},
{
name = top;
position = "{257, 610}";
}
);
layerId = "52F4C6DE-93AC-450D-9CD0-4DAC5691B9C2";
paths = (
{
closed = 1;
nodes = (
"246 507 LINE",
"196 507 OFFCURVE",
"116 452 OFFCURVE",
"84 415 CURVE",
"68 375 OFFCURVE",
"57 316 OFFCURVE",
"57 272 CURVE SMOOTH",
"57 81 OFFCURVE",
"138 -11 OFFCURVE",
"301 -11 CURVE SMOOTH",
"315 -11 OFFCURVE",
"411 2 OFFCURVE",
"463 15 CURVE",
"463 109 LINE",
"340 109 LINE SMOOTH",
"270 109 OFFCURVE",
"235 161 OFFCURVE",
"235 266 CURVE SMOOTH",
"235 386 OFFCURVE",
"240 496 OFFCURVE",
"278 496 CURVE"
);
},
{
closed = 1;
nodes = (
"494 626 LINE",
"435 613 OFFCURVE",
"384 600 OFFCURVE",
"355 600 CURVE SMOOTH",
"315 600 OFFCURVE",
"174 620 OFFCURVE",
"28 641 CURVE",
"9 522 LINE",
"198 502 LINE",
"200 496 LINE",
"211 499 OFFCURVE",
"232 500 OFFCURVE",
"239 500 CURVE SMOOTH",
"283 500 OFFCURVE",
"311 480 OFFCURVE",
"353 480 CURVE SMOOTH",
"386 480 OFFCURVE",
"447 501 OFFCURVE",
"486 518 CURVE",
"505 615 LINE"
);
},
{
closed = 1;
nodes = (
"317 110 LINE",
"331 137 OFFCURVE",
"343 159 OFFCURVE",
"343 167 CURVE SMOOTH",
"343 552 LINE",
"289 552 LINE",
"289 110 LINE"
);
}
);
width = 498;
},
{
anchors = (
{
name = bottom;
position = "{216, 0}";
},
{
name = center;
position = "{216, 308}";
},
{
name = top;
position = "{216, 591}";
}
);
layerId = "4F39836F-1187-466E-8FAB-7EBF43C51BB4";
paths = (
{
closed = 1;
nodes = (
"178 575 LINE",
"150 551 OFFCURVE",
"110 504 OFFCURVE",
"94 475 CURVE",
"70 426 OFFCURVE",
"59 358 OFFCURVE",
"59 280 CURVE SMOOTH",
"59 106 OFFCURVE",
"129 -10 OFFCURVE",
"276 -10 CURVE SMOOTH",
"298 -10 OFFCURVE",
"331 -5 OFFCURVE",
"367 0 CURVE",
"367 20 LINE",
"281 20 LINE SMOOTH",
"158 20 OFFCURVE",
"89 96 OFFCURVE",
"89 301 CURVE SMOOTH",
"89 473 OFFCURVE",
"167 544 OFFCURVE",
"214 575 CURVE"
);
},
{
closed = 1;
nodes = (
"380 597 LINE",
"343 590 OFFCURVE",
"290 585 OFFCURVE",
"275 585 CURVE SMOOTH",
"244 585 OFFCURVE",
"136 594 OFFCURVE",
"26 602 CURVE",
"23 576 LINE",
"168 570 LINE",
"168 566 LINE",
"175 567 OFFCURVE",
"185 570 OFFCURVE",
"191 570 CURVE SMOOTH",
"204 570 OFFCURVE",
"244 561 OFFCURVE",
"280 561 CURVE SMOOTH",
"301 561 OFFCURVE",
"332 565 OFFCURVE",
"377 571 CURVE",
"384 593 LINE"
);
},
{
closed = 1;
nodes = (
"208 28 LINE",
"215 39 OFFCURVE",
"222 50 OFFCURVE",
"222 61 CURVE SMOOTH",
"222 579 LINE",
"193 579 LINE",
"193 28 LINE"
);
}
);
width = 391;
},
{
anchors = (
{
name = bottom;
position = "{262, 0}";
},
{
name = center;
position = "{264, 304}";
},
{
name = top;
position = "{261, 603}";
}
);
layerId = "555729A4-F539-4650-9C4F-3880CB033E7B";
paths = (
{
closed = 1;
nodes = (
"204 513 LINE",
"147 503 OFFCURVE",
"106 454 OFFCURVE",
"92 433 CURVE",
"72 389 OFFCURVE",
"62 348 OFFCURVE",
"62 279 CURVE SMOOTH",
"62 126 OFFCURVE",
"121 -9 OFFCURVE",
"242 -9 CURVE SMOOTH",
"257 -9 OFFCURVE",
"383 4 OFFCURVE",
"419 14 CURVE",
"419 66 LINE",
"289 65 LINE SMOOTH",
"190 64 OFFCURVE",
"161 176 OFFCURVE",
"161 296 CURVE SMOOTH",
"161 366 OFFCURVE",
"173 502 OFFCURVE",
"224 502 CURVE"
);
},
{
closed = 1;
nodes = (
"442 604 LINE",
"373 589 OFFCURVE",
"328 585 OFFCURVE",
"301 585 CURVE SMOOTH",
"262 585 OFFCURVE",
"161 603 OFFCURVE",
"32 620 CURVE",
"13 525 LINE",
"169 508 LINE",
"171 502 LINE",
"179 504 OFFCURVE",
"188 505 OFFCURVE",
"196 505 CURVE SMOOTH",
"241 505 OFFCURVE",
"251 485 OFFCURVE",
"302 485 CURVE SMOOTH",
"337 485 OFFCURVE",
"389 497 OFFCURVE",
"434 513 CURVE",
"454 591 LINE"
);
},
{
closed = 1;
nodes = (
"257 63 LINE",
"271 90 OFFCURVE",
"278 112 OFFCURVE",
"278 120 CURVE SMOOTH",
"278 547 LINE",
"226 547 LINE",
"226 63 LINE"
);
}
);
width = 445;
}
);
leftKerningGroup = T;
rightKerningGroup = T;
unicode = 0054;
},
{
glyphname = Tbar;
layers = (
{
color = 1;
layerId = "52F4C6DE-93AC-450D-9CD0-4DAC5691B9C2";
paths = (
{
closed = 1;
nodes = (
"246 507 LINE",
"196 507 OFFCURVE",
"116 452 OFFCURVE",
"84 415 CURVE",
"68 375 OFFCURVE",
"57 316 OFFCURVE",
"57 272 CURVE SMOOTH",
"57 81 OFFCURVE",
"138 -11 OFFCURVE",
"301 -11 CURVE SMOOTH",
"315 -11 OFFCURVE",
"411 2 OFFCURVE",
"463 15 CURVE",
"463 109 LINE",
"340 109 LINE SMOOTH",
"270 109 OFFCURVE",
"235 161 OFFCURVE",
"235 266 CURVE SMOOTH",
"235 386 OFFCURVE",
"240 496 OFFCURVE",
"278 496 CURVE"
);
},
{
closed = 1;
nodes = (
"494 626 LINE",
"435 613 OFFCURVE",
"384 600 OFFCURVE",
"355 600 CURVE SMOOTH",
"315 600 OFFCURVE",
"174 620 OFFCURVE",
"28 641 CURVE",
"9 522 LINE",
"198 502 LINE",
"200 496 LINE",
"211 499 OFFCURVE",
"232 500 OFFCURVE",
"239 500 CURVE SMOOTH",
"283 500 OFFCURVE",
"311 480 OFFCURVE",
"353 480 CURVE SMOOTH",
"386 480 OFFCURVE",
"447 501 OFFCURVE",
"486 518 CURVE",
"505 615 LINE"
);
},
{
closed = 1;
nodes = (
"317 110 LINE",
"331 137 OFFCURVE",
"343 159 OFFCURVE",
"343 167 CURVE SMOOTH",
"343 552 LINE",
"289 552 LINE",
"289 110 LINE"
);
},
{
closed = 1;
nodes = (
"303 247 LINE",
"456 240 LINE",
"456 320 LINE",
"307 317 LINE"
);
},
{
closed = 1;
nodes = (
"162 317 LINE",
"-1 324 LINE",
"-1 244 LINE",
"160 247 LINE"
);
}
);
width = 498;
},
{
color = 1;
layerId = "4F39836F-1187-466E-8FAB-7EBF43C51BB4";
paths = (
{
closed = 1;
nodes = (
"178 575 LINE",
"150 551 OFFCURVE",
"110 504 OFFCURVE",
"94 475 CURVE",
"70 426 OFFCURVE",
"59 358 OFFCURVE",
"59 280 CURVE SMOOTH",
"59 106 OFFCURVE",
"129 -10 OFFCURVE",
"276 -10 CURVE SMOOTH",
"298 -10 OFFCURVE",
"331 -5 OFFCURVE",
"367 0 CURVE",
"367 20 LINE",
"281 20 LINE SMOOTH",
"158 20 OFFCURVE",
"89 96 OFFCURVE",
"89 301 CURVE SMOOTH",
"89 473 OFFCURVE",
"167 544 OFFCURVE",
"214 575 CURVE"
);
},
{
closed = 1;
nodes = (
"380 597 LINE",
"343 590 OFFCURVE",
"290 585 OFFCURVE",
"275 585 CURVE SMOOTH",
"244 585 OFFCURVE",
"136 594 OFFCURVE",
"26 602 CURVE",
"23 576 LINE",
"168 570 LINE",
"168 566 LINE",
"175 567 OFFCURVE",
"185 570 OFFCURVE",
"191 570 CURVE SMOOTH",
"204 570 OFFCURVE",
"244 561 OFFCURVE",
"280 561 CURVE SMOOTH",
"301 561 OFFCURVE",
"332 565 OFFCURVE",
"377 571 CURVE",
"384 593 LINE"
);
},
{
closed = 1;
nodes = (
"208 28 LINE",
"215 39 OFFCURVE",
"222 50 OFFCURVE",
"222 61 CURVE SMOOTH",
"222 579 LINE",
"193 579 LINE",
"193 28 LINE"
);
},
{
closed = 1;
nodes = (
"210 299 LINE",
"308 297 LINE",
"308 319 LINE",
"210 317 LINE"
);
},
{
closed = 1;
nodes = (
"70 317 LINE",
"0 319 LINE",
"0 297 LINE",
"70 299 LINE"
);
}
);
width = 391;
},
{
color = 1;
layerId = "555729A4-F539-4650-9C4F-3880CB033E7B";
paths = (
{
closed = 1;
nodes = (
"204 513 LINE",
"147 503 OFFCURVE",
"106 454 OFFCURVE",
"92 433 CURVE",
"72 389 OFFCURVE",
"62 348 OFFCURVE",
"62 279 CURVE SMOOTH",
"62 126 OFFCURVE",
"121 -9 OFFCURVE",
"242 -9 CURVE SMOOTH",
"257 -9 OFFCURVE",
"383 4 OFFCURVE",
"419 14 CURVE",
"419 66 LINE",
"289 65 LINE SMOOTH",
"190 64 OFFCURVE",
"161 176 OFFCURVE",
"161 296 CURVE SMOOTH",
"161 366 OFFCURVE",
"173 502 OFFCURVE",
"224 502 CURVE"
);
},
{
closed = 1;
nodes = (
"442 604 LINE",
"373 589 OFFCURVE",
"328 585 OFFCURVE",
"301 585 CURVE SMOOTH",
"262 585 OFFCURVE",
"161 603 OFFCURVE",
"32 620 CURVE",
"13 525 LINE",
"169 508 LINE",
"171 502 LINE",
"179 504 OFFCURVE",
"188 505 OFFCURVE",
"196 505 CURVE SMOOTH",
"241 505 OFFCURVE",
"251 485 OFFCURVE",
"302 485 CURVE SMOOTH",
"337 485 OFFCURVE",
"389 497 OFFCURVE",
"434 513 CURVE",
"454 591 LINE"
);
},
{
closed = 1;
nodes = (
"257 63 LINE",
"271 90 OFFCURVE",
"278 112 OFFCURVE",
"278 120 CURVE SMOOTH",
"278 547 LINE",
"226 547 LINE",
"226 63 LINE"
);
},
{
closed = 1;
nodes = (
"253 279 LINE",
"379 273 LINE",
"380 330 LINE",
"253 324 LINE"
);
},
{
closed = 1;
nodes = (
"112 324 LINE",
"-14 330 LINE",
"-14 273 LINE",
"112 279 LINE"
);
}
);
width = 445;
}
);
leftKerningGroup = T;
rightKerningGroup = T;
unicode = 0166;
},
{
glyphname = U;
layers = (
{
anchors = (
{
name = bottom;
position = "{340, 0}";
},
{
name = ogonek;
position = "{466, -4}";
},
{
name = top;
position = "{331, 610}";
},
{
name = topright;
position = "{399, 621}";
}
);
layerId = "52F4C6DE-93AC-450D-9CD0-4DAC5691B9C2";
paths = (
{
closed = 1;
nodes = (
"68 93 LINE SMOOTH",
"68 81 OFFCURVE",
"109 33 OFFCURVE",
"122 28 CURVE SMOOTH",
"169 10 OFFCURVE",
"222 -3 OFFCURVE",
"305 -12 CURVE",
"315 -12 OFFCURVE",
"386 43 OFFCURVE",
"427 79 CURVE",
"427 127 LINE",
"353 114 LINE",
"314 117 OFFCURVE",
"274 124 OFFCURVE",
"235 139 CURVE",
"235 567 LINE",
"230 579 OFFCURVE",
"218 593 OFFCURVE",
"209 602 CURVE",
"199 612 OFFCURVE",
"110 625 OFFCURVE",
"70 625 CURVE",
"20 536 LINE",
"68 502 LINE"
);
},
{
closed = 1;
nodes = (
"407 61 LINE",
"412 44 OFFCURVE",
"425 18 OFFCURVE",
"433 9 CURVE",
"443 -1 OFFCURVE",
"531 -14 OFFCURVE",
"571 -14 CURVE",
"622 75 LINE",
"575 109 LINE",
"574 572 LINE",
"569 584 OFFCURVE",
"551 615 OFFCURVE",
"526 623 CURVE SMOOTH",
"510 628 OFFCURVE",
"421 616 OFFCURVE",
"367 610 CURVE",
"367 545 LINE",
"407 522 LINE"
);
},
{
closed = 1;
nodes = (
"280 583 OFFCURVE",
"273 559 OFFCURVE",
"273 548 CURVE SMOOTH",
"273 115 LINE",
"301 115 LINE",
"315 142 OFFCURVE",
"327 164 OFFCURVE",
"327 172 CURVE SMOOTH",
"327 610 LINE",
"290 610 LINE"
);
}
);
width = 644;
},
{
anchors = (
{
name = bottom;
position = "{255, 0}";
},
{
name = ogonek;
position = "{405, 0}";
},
{
name = top;
position = "{252, 591}";
},
{
name = topright;
position = "{322, 622}";
}
);
background = {
paths = (
{
closed = 1;
nodes = (
"122 574 LINE SMOOTH",
"122 578 OFFCURVE",
"104 596 OFFCURVE",
"101 596 CURVE SMOOTH",
"85 596 OFFCURVE",
"54 601 OFFCURVE",
"29 601 CURVE",
"27 584 LINE",
"92 570 LINE",
"92 20 LINE SMOOTH",
"92 16 OFFCURVE",
"110 -2 OFFCURVE",
"113 -2 CURVE SMOOTH",
"120 -2 OFFCURVE",
"177 8 OFFCURVE",
"189 10 CURVE",
"189 27 LINE",
"122 30 LINE"
);
}
);
};
layerId = "4F39836F-1187-466E-8FAB-7EBF43C51BB4";
paths = (
{
closed = 1;
nodes = (
"92 55 LINE SMOOTH",
"92 51 OFFCURVE",
"106 27 OFFCURVE",
"109 25 CURVE",
"149 4 OFFCURVE",
"214 -8 OFFCURVE",
"275 -10 CURVE",
"286 -10 OFFCURVE",
"358 12 OFFCURVE",
"394 25 CURVE",
"394 43 LINE",
"276 16 LINE",
"227 16 OFFCURVE",
"161 29 OFFCURVE",
"122 48 CURVE",
"122 574 LINE SMOOTH",
"122 578 OFFCURVE",
"110 595 OFFCURVE",
"107 596 CURVE SMOOTH",
"91 599 OFFCURVE",
"52 601 OFFCURVE",
"29 601 CURVE",
"27 584 LINE",
"92 570 LINE"
);
},
{
closed = 1;
nodes = (
"389 29 LINE SMOOTH",
"389 25 OFFCURVE",
"404 4 OFFCURVE",
"407 3 CURVE SMOOTH",
"423 0 OFFCURVE",
"457 -2 OFFCURVE",
"482 -2 CURVE",
"484 15 LINE",
"419 29 LINE",
"419 579 LINE SMOOTH",
"419 583 OFFCURVE",
"401 601 OFFCURVE",
"398 601 CURVE SMOOTH",
"391 601 OFFCURVE",
"334 591 OFFCURVE",
"322 589 CURVE",
"322 572 LINE",
"389 569 LINE"
);
},
{
closed = 1;
nodes = (
"189 564 OFFCURVE",
"187 540 OFFCURVE",
"187 529 CURVE SMOOTH",
"187 21 LINE",
"203 21 LINE",
"212 38 OFFCURVE",
"217 53 OFFCURVE",
"217 64 CURVE SMOOTH",
"217 591 LINE",
"199 591 LINE"
);
}
);
width = 518;
},
{
anchors = (
{
name = bottom;
position = "{279, 0}";
},
{
name = ogonek;
position = "{456, 10}";
},
{
name = top;
position = "{291, 603}";
},
{
name = topright;
position = "{340, 611}";
}
);
background = {
paths = (
{
closed = 1;
nodes = (
"184 566 LINE SMOOTH",
"184 572 OFFCURVE",
"157 598 OFFCURVE",
"152 600 CURVE SMOOTH",
"136 606 OFFCURVE",
"87 609 OFFCURVE",
"42 612 CURVE",
"29 566 LINE",
"91 535 LINE",
"91 29 LINE SMOOTH",
"91 23 OFFCURVE",
"117 -5 OFFCURVE",
"123 -5 CURVE SMOOTH",
"132 -5 OFFCURVE",
"215 5 OFFCURVE",
"246 10 CURVE",
"246 49 LINE",
"184 64 LINE"
);
}
);
};
layerId = "555729A4-F539-4650-9C4F-3880CB033E7B";
paths = (
{
closed = 1;
nodes = (
"91 92 LINE SMOOTH",
"91 80 OFFCURVE",
"128 24 OFFCURVE",
"137 21 CURVE SMOOTH",
"184 5 OFFCURVE",
"238 -6 OFFCURVE",
"304 -9 CURVE",
"312 -9 OFFCURVE",
"371 26 OFFCURVE",
"403 49 CURVE",
"403 76 LINE",
"310 67 LINE",
"267 69 OFFCURVE",
"227 79 OFFCURVE",
"184 93 CURVE",
"184 566 LINE SMOOTH",
"184 572 OFFCURVE",
"157 598 OFFCURVE",
"152 600 CURVE SMOOTH",
"136 606 OFFCURVE",
"87 609 OFFCURVE",
"42 612 CURVE",
"29 566 LINE",
"91 535 LINE"
);
},
{
closed = 1;
nodes = (
"393 46 LINE SMOOTH",
"393 38 OFFCURVE",
"420 9 OFFCURVE",
"425 7 CURVE SMOOTH",
"441 2 OFFCURVE",
"490 -2 OFFCURVE",
"535 -5 CURVE",
"548 41 LINE",
"486 72 LINE",
"486 578 LINE SMOOTH",
"486 584 OFFCURVE",
"460 612 OFFCURVE",
"454 612 CURVE SMOOTH",
"445 612 OFFCURVE",
"362 602 OFFCURVE",
"331 597 CURVE",
"331 558 LINE",
"393 543 LINE"
);
},
{
closed = 1;
nodes = (
"253 567 OFFCURVE",
"239 532 OFFCURVE",
"239 517 CURVE SMOOTH",
"239 66 LINE",
"270 66 LINE",
"284 93 OFFCURVE",
"291 115 OFFCURVE",
"291 123 CURVE SMOOTH",
"291 603 LINE",
"266 603 LINE"
);
}
);
width = 585;
}
);
leftKerningGroup = U;
rightKerningGroup = U;
unicode = 0055;
},
{
glyphname = V;
layers = (
{
layerId = "52F4C6DE-93AC-450D-9CD0-4DAC5691B9C2";
paths = (
{
closed = 1;
nodes = (
"329 77 LINE",
"277 -12 LINE",
"320 2 OFFCURVE",
"433 75 OFFCURVE",
"454 120 CURVE",
"577 572 LINE",
"572 584 OFFCURVE",
"554 615 OFFCURVE",
"529 623 CURVE SMOOTH",
"513 628 OFFCURVE",
"434 616 OFFCURVE",
"380 610 CURVE",
"380 545 LINE",
"420 522 LINE"
);
},
{
closed = 1;
nodes = (
"195 3 OFFCURVE",
"243 -10 OFFCURVE",
"277 -12 CURVE",
"388 88 LINE",
"276 127 LINE",
"176 567 LINE",
"171 579 OFFCURVE",
"159 593 OFFCURVE",
"150 602 CURVE",
"140 612 OFFCURVE",
"51 625 OFFCURVE",
"11 625 CURVE",
"-29 536 LINE",
"14 502 LINE",
"122 81 LINE SMOOTH",
"125 69 OFFCURVE",
"169 13 OFFCURVE",
"176 10 CURVE"
);
},
{
closed = 1;
nodes = (
"228 583 OFFCURVE",
"222 550 OFFCURVE",
"225 536 CURVE SMOOTH",
"324 99 LINE",
"347 111 LINE",
"349 158 OFFCURVE",
"347 242 OFFCURVE",
"345 253 CURVE SMOOTH",
"266 610 LINE",
"233 610 LINE"
);
}
);
width = 575;
},
{
background = {
guideLines = (
{
angle = 102.333;
position = "{171, 296}";
}
);
paths = (
{
closed = 1;
nodes = (
"200 -10 OFFCURVE",
"231 -5 OFFCURVE",
"231 -5 CURVE",
"281 185 OFFCURVE",
"330 376 OFFCURVE",
"380 566 CURVE",
"437 574 LINE",
"437 591 LINE",
"289 591 LINE",
"289 573 LINE",
"351 564 LINE",
"304 384 OFFCURVE",
"258 201 OFFCURVE",
"211 21 CURVE",
"203 21 LINE",
"203 21 OFFCURVE",
"173 141 OFFCURVE",
"156 208 CURVE",
"64 564 LINE",
"124 573 LINE",
"124 591 LINE",
"-24 591 LINE",
"-24 574 LINE",
"33 566 LINE",
"181 -2 LINE",
"181 -2 OFFCURVE",
"192 -10 OFFCURVE",
"195 -10 CURVE SMOOTH"
);
},
{
closed = 1;
nodes = (
"151 480 OFFCURVE",
"158 487 OFFCURVE",
"158 495 CURVE SMOOTH",
"158 503 OFFCURVE",
"151 510 OFFCURVE",
"143 510 CURVE SMOOTH",
"135 510 OFFCURVE",
"128 503 OFFCURVE",
"128 495 CURVE SMOOTH",
"128 487 OFFCURVE",
"135 480 OFFCURVE",
"143 480 CURVE SMOOTH"
);
},
{
closed = 1;
nodes = (
"207 221 OFFCURVE",
"214 228 OFFCURVE",
"214 236 CURVE SMOOTH",
"214 244 OFFCURVE",
"207 251 OFFCURVE",
"199 251 CURVE SMOOTH",
"191 251 OFFCURVE",
"184 244 OFFCURVE",
"184 236 CURVE SMOOTH",
"184 228 OFFCURVE",
"191 221 OFFCURVE",
"199 221 CURVE SMOOTH"
);
}
);
};
layerId = "4F39836F-1187-466E-8FAB-7EBF43C51BB4";
paths = (
{
closed = 1;
nodes = (
"231 8 LINE",
"222 -10 LINE",
"236 0 OFFCURVE",
"252 14 OFFCURVE",
"259 24 CURVE",
"384 580 LINE",
"378 590 OFFCURVE",
"367 601 OFFCURVE",
"361 601 CURVE SMOOTH",
"349 601 OFFCURVE",
"320 596 OFFCURVE",
"278 589 CURVE",
"278 572 LINE",
"351 569 LINE"
);
},
{
closed = 1;
nodes = (
"173 3 OFFCURVE",
"217 -8 OFFCURVE",
"222 -10 CURVE",
"239 11 LINE",
"182 27 LINE",
"61 575 LINE",
"58 582 OFFCURVE",
"52 591 OFFCURVE",
"45 596 CURVE",
"28 599 OFFCURVE",
"9 600 OFFCURVE",
"-17 601 CURVE",
"-19 584 LINE",
"32 570 LINE",
"156 22 LINE SMOOTH",
"157 18 OFFCURVE",
"165 8 OFFCURVE",
"169 5 CURVE"
);
},
{
closed = 1;
nodes = (
"132 574 OFFCURVE",
"129 550 OFFCURVE",
"132 536 CURVE SMOOTH",
"245 32 LINE",
"255 48 LINE",
"250 107 OFFCURVE",
"249 136 OFFCURVE",
"245 155 CURVE SMOOTH",
"150 591 LINE",
"135 591 LINE"
);
}
);
width = 407;
},
{
layerId = "555729A4-F539-4650-9C4F-3880CB033E7B";
paths = (
{
closed = 1;
nodes = (
"270 45 LINE",
"245 -9 LINE",
"285 9 OFFCURVE",
"332 52 OFFCURVE",
"349 75 CURVE",
"471 580 LINE",
"466 592 OFFCURVE",
"445 612 OFFCURVE",
"436 612 CURVE SMOOTH",
"421 612 OFFCURVE",
"372 604 OFFCURVE",
"318 596 CURVE",
"318 558 LINE",
"376 543 LINE"
);
},
{
closed = 1;
nodes = (
"175 7 OFFCURVE",
"228 -7 OFFCURVE",
"245 -9 CURVE",
"300 59 LINE",
"199 87 LINE",
"100 567 LINE",
"96 576 OFFCURVE",
"88 589 OFFCURVE",
"80 597 CURVE",
"63 603 OFFCURVE",
"17 609 OFFCURVE",
"-23 612 CURVE",
"-39 566 LINE",
"3 535 LINE",
"116 57 LINE SMOOTH",
"119 45 OFFCURVE",
"149 17 OFFCURVE",
"156 14 CURVE"
);
},
{
closed = 1;
nodes = (
"173 576 OFFCURVE",
"164 543 OFFCURVE",
"167 529 CURVE SMOOTH",
"269 35 LINE",
"287 47 LINE",
"286 125 OFFCURVE",
"279 229 OFFCURVE",
"277 240 CURVE SMOOTH",
"204 603 LINE",
"180 603 LINE"
);
}
);
width = 482;
}
);
leftKerningGroup = V;
rightKerningGroup = V;
unicode = 0056;
},
{
glyphname = W;
layers = (
{
anchors = (
{
name = top;
position = "{397, 610}";
}
);
layerId = "52F4C6DE-93AC-450D-9CD0-4DAC5691B9C2";
paths = (
{
closed = 1;
nodes = (
"548 81 LINE",
"485 -12 LINE",
"528 2 OFFCURVE",
"646 75 OFFCURVE",
"667 120 CURVE",
"790 572 LINE",
"785 584 OFFCURVE",
"767 615 OFFCURVE",
"742 623 CURVE SMOOTH",
"726 628 OFFCURVE",
"642 616 OFFCURVE",
"588 610 CURVE",
"588 545 LINE",
"628 522 LINE"
);
},
{
closed = 1;
nodes = (
"418 3 OFFCURVE",
"451 -10 OFFCURVE",
"485 -12 CURVE",
"596 88 LINE",
"504 127 LINE",
"434 567 LINE",
"429 579 OFFCURVE",
"417 593 OFFCURVE",
"408 602 CURVE",
"398 612 OFFCURVE",
"314 625 OFFCURVE",
"274 625 CURVE",
"224 536 LINE",
"267 502 LINE",
"345 81 LINE SMOOTH",
"347 69 OFFCURVE",
"392 13 OFFCURVE",
"399 10 CURVE"
);
},
{
closed = 1;
nodes = (
"165 3 OFFCURVE",
"238 -12 OFFCURVE",
"247 -12 CURVE SMOOTH",
"261 -12 OFFCURVE",
"363 37 OFFCURVE",
"458 88 CURVE",
"458 103 LINE",
"310 100 LINE",
"251 127 LINE",
"181 567 LINE",
"176 579 OFFCURVE",
"164 593 OFFCURVE",
"155 602 CURVE",
"145 612 OFFCURVE",
"61 625 OFFCURVE",
"21 625 CURVE",
"-29 536 LINE",
"14 502 LINE",
"92 81 LINE SMOOTH",
"94 69 OFFCURVE",
"139 13 OFFCURVE",
"146 10 CURVE"
);
},
{
closed = 1;
nodes = (
"489 583 OFFCURVE",
"478 550 OFFCURVE",
"480 536 CURVE SMOOTH",
"548 99 LINE",
"571 111 LINE",
"573 158 OFFCURVE",
"571 318 OFFCURVE",
"569 329 CURVE SMOOTH",
"527 610 LINE",
"494 610 LINE"
);
}
);
width = 788;
},
{
anchors = (
{
name = top;
position = "{291, 591}";
}
);
layerId = "4F39836F-1187-466E-8FAB-7EBF43C51BB4";
paths = (
{
closed = 1;
nodes = (
"401 8 LINE",
"392 -10 LINE",
"406 0 OFFCURVE",
"422 14 OFFCURVE",
"429 24 CURVE",
"554 580 LINE",
"548 590 OFFCURVE",
"537 601 OFFCURVE",
"531 601 CURVE SMOOTH",
"519 601 OFFCURVE",
"490 596 OFFCURVE",
"448 589 CURVE",
"448 572 LINE",
"521 569 LINE"
);
},
{
closed = 1;
nodes = (
"341 3 OFFCURVE",
"387 -8 OFFCURVE",
"392 -10 CURVE",
"409 11 LINE",
"350 25 LINE",
"231 575 LINE",
"228 582 OFFCURVE",
"222 591 OFFCURVE",
"215 596 CURVE",
"198 599 OFFCURVE",
"179 600 OFFCURVE",
"153 601 CURVE",
"151 584 LINE",
"202 570 LINE",
"324 22 LINE SMOOTH",
"325 18 OFFCURVE",
"333 8 OFFCURVE",
"337 5 CURVE"
);
},
{
closed = 1;
nodes = (
"179 7 OFFCURVE",
"256 -10 OFFCURVE",
"261 -10 CURVE SMOOTH",
"265 -10 OFFCURVE",
"304 7 OFFCURVE",
"336 22 CURVE",
"336 40 LINE",
"261 14 LINE",
"188 31 LINE",
"61 575 LINE",
"58 582 OFFCURVE",
"52 591 OFFCURVE",
"45 596 CURVE",
"28 599 OFFCURVE",
"9 600 OFFCURVE",
"-17 601 CURVE",
"-19 584 LINE",
"32 570 LINE",
"162 26 LINE SMOOTH",
"163 22 OFFCURVE",
"171 12 OFFCURVE",
"175 9 CURVE"
);
},
{
closed = 1;
nodes = (
"304 574 OFFCURVE",
"301 550 OFFCURVE",
"304 536 CURVE SMOOTH",
"414 29 LINE",
"427 38 LINE",
"422 97 OFFCURVE",
"415 166 OFFCURVE",
"411 185 CURVE SMOOTH",
"322 591 LINE",
"307 591 LINE"
);
}
);
width = 577;
},
{
anchors = (
{
name = top;
position = "{335, 603}";
}
);
layerId = "555729A4-F539-4650-9C4F-3880CB033E7B";
paths = (
{
closed = 1;
nodes = (
"466 43 LINE",
"441 -9 LINE",
"481 9 OFFCURVE",
"528 50 OFFCURVE",
"545 73 CURVE",
"667 580 LINE",
"662 592 OFFCURVE",
"641 612 OFFCURVE",
"632 612 CURVE SMOOTH",
"617 612 OFFCURVE",
"568 604 OFFCURVE",
"514 596 CURVE",
"514 558 LINE",
"572 543 LINE"
);
},
{
closed = 1;
nodes = (
"368 5 OFFCURVE",
"434 -7 OFFCURVE",
"441 -9 CURVE",
"496 57 LINE",
"392 85 LINE",
"309 567 LINE",
"305 576 OFFCURVE",
"297 589 OFFCURVE",
"289 597 CURVE",
"272 603 OFFCURVE",
"226 609 OFFCURVE",
"186 612 CURVE",
"170 566 LINE",
"212 535 LINE",
"312 43 LINE SMOOTH",
"314 34 OFFCURVE",
"342 15 OFFCURVE",
"349 12 CURVE"
);
},
{
closed = 1;
nodes = (
"178 5 OFFCURVE",
"250 -9 OFFCURVE",
"260 -9 CURVE SMOOTH",
"268 -9 OFFCURVE",
"308 13 OFFCURVE",
"348 42 CURVE",
"348 56 LINE",
"272 55 LINE",
"206 69 LINE",
"100 567 LINE",
"96 576 OFFCURVE",
"88 589 OFFCURVE",
"80 597 CURVE",
"63 603 OFFCURVE",
"17 609 OFFCURVE",
"-23 612 CURVE",
"-39 566 LINE",
"3 535 LINE",
"119 55 LINE SMOOTH",
"122 43 OFFCURVE",
"152 15 OFFCURVE",
"159 12 CURVE"
);
},
{
closed = 1;
nodes = (
"383 576 OFFCURVE",
"372 543 OFFCURVE",
"374 529 CURVE SMOOTH",
"460 33 LINE",
"481 45 LINE",
"480 123 OFFCURVE",
"477 229 OFFCURVE",
"475 240 CURVE SMOOTH",
"414 603 LINE",
"390 603 LINE"
);
}
);
width = 678;
}
);
leftKerningGroup = V;
leftMetricsKey = V;
rightKerningGroup = V;
rightMetricsKey = V;
unicode = 0057;
},
{
glyphname = X;
layers = (
{
background = {
paths = (
{
closed = 1;
nodes = (
"3 487 OFFCURVE",
"7 475 OFFCURVE",
"15 467 CURVE",
"158 432 LINE",
"158 114 LINE SMOOTH",
"158 103 OFFCURVE",
"180 71 OFFCURVE",
"189 66 CURVE",
"208 56 OFFCURVE",
"364 5 OFFCURVE",
"431 -8 CURVE",
"498 119 LINE",
"498 129 OFFCURVE",
"494 141 OFFCURVE",
"486 149 CURVE",
"303 185 LINE",
"303 513 LINE SMOOTH",
"303 524 OFFCURVE",
"271 558 OFFCURVE",
"262 562 CURVE SMOOTH",
"241 571 OFFCURVE",
"151 609 OFFCURVE",
"69 625 CURVE",
"3 497 LINE"
);
},
{
closed = 1;
nodes = (
"366 258 LINE",
"463 253 LINE",
"499 376 LINE",
"366 369 LINE"
);
},
{
closed = 1;
nodes = (
"264 356 LINE",
"64 354 LINE",
"48 233 LINE",
"264 254 LINE"
);
},
{
closed = 1;
nodes = (
"299 432 LINE",
"323 445 OFFCURVE",
"401 480 OFFCURVE",
"408 480 CURVE SMOOTH",
"425 480 OFFCURVE",
"469 456 OFFCURVE",
"472 455 CURVE",
"479 455 OFFCURVE",
"521 541 OFFCURVE",
"521 561 CURVE SMOOTH",
"521 579 OFFCURVE",
"510 604 OFFCURVE",
"508 611 CURVE",
"495 616 OFFCURVE",
"462 625 OFFCURVE",
"434 625 CURVE SMOOTH",
"427 625 OFFCURVE",
"323 539 OFFCURVE",
"293 503 CURVE"
);
},
{
closed = 1;
nodes = (
"355 452 OFFCURVE",
"348 428 OFFCURVE",
"348 417 CURVE SMOOTH",
"348 156 LINE",
"363 156 LINE",
"377 183 OFFCURVE",
"389 205 OFFCURVE",
"389 213 CURVE SMOOTH",
"389 479 LINE",
"365 479 LINE"
);
},
{
closed = 1;
nodes = (
"225 179 LINE",
"201 166 OFFCURVE",
"123 131 OFFCURVE",
"116 131 CURVE SMOOTH",
"99 131 OFFCURVE",
"55 155 OFFCURVE",
"52 156 CURVE",
"45 156 OFFCURVE",
"3 70 OFFCURVE",
"3 50 CURVE SMOOTH",
"3 32 OFFCURVE",
"14 7 OFFCURVE",
"16 0 CURVE",
"29 -5 OFFCURVE",
"62 -14 OFFCURVE",
"90 -14 CURVE SMOOTH",
"97 -14 OFFCURVE",
"201 72 OFFCURVE",
"231 108 CURVE"
);
}
);
};
layerId = "52F4C6DE-93AC-450D-9CD0-4DAC5691B9C2";
paths = (
{
closed = 1;
nodes = (
"1 503 OFFCURVE",
"5 491 OFFCURVE",
"13 483 CURVE",
"158 432 LINE",
"158 114 LINE",
"189 66 LINE",
"208 56 OFFCURVE",
"369 1 OFFCURVE",
"436 -12 CURVE",
"503 115 LINE",
"503 125 OFFCURVE",
"499 137 OFFCURVE",
"491 145 CURVE",
"303 185 LINE",
"303 483 LINE",
"294 536 LINE",
"267 552 OFFCURVE",
"146 611 OFFCURVE",
"64 641 CURVE",
"1 513 LINE"
);
},
{
closed = 1;
nodes = (
"366 258 LINE",
"460 253 LINE",
"496 376 LINE",
"366 369 LINE"
);
},
{
closed = 1;
nodes = (
"264 356 LINE",
"61 354 LINE",
"45 233 LINE",
"264 254 LINE"
);
},
{
closed = 1;
nodes = (
"285 465 LINE",
"323 475 OFFCURVE",
"397 496 OFFCURVE",
"404 496 CURVE SMOOTH",
"421 496 OFFCURVE",
"465 472 OFFCURVE",
"468 471 CURVE",
"475 471 OFFCURVE",
"517 557 OFFCURVE",
"517 577 CURVE SMOOTH",
"517 595 OFFCURVE",
"506 620 OFFCURVE",
"504 627 CURVE",
"491 632 OFFCURVE",
"458 641 OFFCURVE",
"430 641 CURVE SMOOTH",
"423 641 OFFCURVE",
"316 563 OFFCURVE",
"279 536 CURVE"
);
},
{
closed = 1;
nodes = (
"229 181 LINE",
"205 168 OFFCURVE",
"127 133 OFFCURVE",
"120 133 CURVE SMOOTH",
"103 133 OFFCURVE",
"59 157 OFFCURVE",
"56 158 CURVE",
"49 158 OFFCURVE",
"7 72 OFFCURVE",
"7 52 CURVE SMOOTH",
"7 34 OFFCURVE",
"18 9 OFFCURVE",
"20 2 CURVE",
"33 -3 OFFCURVE",
"66 -12 OFFCURVE",
"94 -12 CURVE SMOOTH",
"101 -12 OFFCURVE",
"205 74 OFFCURVE",
"235 110 CURVE"
);
},
{
closed = 1;
nodes = (
"348 462 OFFCURVE",
"341 429 OFFCURVE",
"341 418 CURVE SMOOTH",
"341 169 LINE",
"369 169 LINE",
"383 196 OFFCURVE",
"395 218 OFFCURVE",
"395 226 CURVE SMOOTH",
"395 499 LINE",
"358 489 LINE"
);
}
);
width = 522;
},
{
layerId = "4F39836F-1187-466E-8FAB-7EBF43C51BB4";
paths = (
{
closed = 1;
nodes = (
"10 582 OFFCURVE",
"11 579 OFFCURVE",
"14 576 CURVE",
"178 520 LINE",
"178 75 LINE",
"180 52 LINE",
"197 46 OFFCURVE",
"326 8 OFFCURVE",
"395 -10 CURVE",
"402 9 LINE",
"401 13 OFFCURVE",
"400 16 OFFCURVE",
"397 19 CURVE",
"208 69 LINE",
"208 518 LINE",
"207 540 LINE",
"190 546 OFFCURVE",
"77 585 OFFCURVE",
"16 605 CURVE",
"9 586 LINE"
);
},
{
closed = 1;
nodes = (
"278 297 LINE",
"391 296 LINE",
"399 322 LINE",
"278 319 LINE"
);
},
{
closed = 1;
nodes = (
"196 315 LINE",
"42 314 LINE",
"40 287 LINE",
"196 294 LINE"
);
},
{
closed = 1;
nodes = (
"204 515 LINE",
"262 543 OFFCURVE",
"337 579 OFFCURVE",
"345 579 CURVE SMOOTH",
"362 579 OFFCURVE",
"399 568 OFFCURVE",
"414 563 CURVE",
"418 566 OFFCURVE",
"421 579 OFFCURVE",
"421 584 CURVE SMOOTH",
"421 586 OFFCURVE",
"418 591 OFFCURVE",
"416 593 CURVE",
"403 596 OFFCURVE",
"361 605 OFFCURVE",
"342 605 CURVE SMOOTH",
"337 605 OFFCURVE",
"257 565 OFFCURVE",
"204 541 CURVE"
);
},
{
closed = 1;
nodes = (
"183 81 LINE",
"138 48 OFFCURVE",
"82 16 OFFCURVE",
"75 16 CURVE SMOOTH",
"58 16 OFFCURVE",
"21 27 OFFCURVE",
"6 32 CURVE",
"2 29 OFFCURVE",
"-1 16 OFFCURVE",
"-1 11 CURVE SMOOTH",
"-1 9 OFFCURVE",
"2 4 OFFCURVE",
"4 2 CURVE",
"17 -1 OFFCURVE",
"59 -10 OFFCURVE",
"78 -10 CURVE SMOOTH",
"82 -10 OFFCURVE",
"148 29 OFFCURVE",
"192 58 CURVE"
);
},
{
closed = 1;
nodes = (
"262 527 OFFCURVE",
"258 503 OFFCURVE",
"258 492 CURVE SMOOTH",
"258 49 LINE",
"274 49 LINE",
"284 67 OFFCURVE",
"288 84 OFFCURVE",
"288 95 CURVE SMOOTH",
"288 562 LINE",
"270 554 LINE"
);
}
);
width = 437;
},
{
layerId = "555729A4-F539-4650-9C4F-3880CB033E7B";
paths = (
{
closed = 1;
nodes = (
"8 547 OFFCURVE",
"10 539 OFFCURVE",
"16 532 CURVE",
"155 472 LINE",
"155 97 LINE",
"181 53 LINE",
"202 43 OFFCURVE",
"341 11 OFFCURVE",
"423 -9 CURVE",
"451 56 LINE",
"450 66 OFFCURVE",
"448 74 OFFCURVE",
"442 81 CURVE",
"248 113 LINE",
"248 488 LINE",
"237 529 LINE",
"213 541 OFFCURVE",
"116 585 OFFCURVE",
"35 622 CURVE",
"7 557 LINE"
);
},
{
closed = 1;
nodes = (
"337 277 LINE",
"435 273 LINE",
"443 341 LINE",
"337 332 LINE"
);
},
{
closed = 1;
nodes = (
"235 325 LINE",
"36 324 LINE",
"29 251 LINE",
"235 272 LINE"
);
},
{
closed = 1;
nodes = (
"214 466 LINE",
"273 498 OFFCURVE",
"367 542 OFFCURVE",
"374 542 CURVE SMOOTH",
"391 542 OFFCURVE",
"433 520 OFFCURVE",
"438 517 CURVE",
"448 520 OFFCURVE",
"465 560 OFFCURVE",
"465 589 CURVE SMOOTH",
"465 592 OFFCURVE",
"460 602 OFFCURVE",
"455 608 CURVE",
"442 613 OFFCURVE",
"413 622 OFFCURVE",
"385 622 CURVE SMOOTH",
"378 622 OFFCURVE",
"282 563 OFFCURVE",
"208 512 CURVE"
);
},
{
closed = 1;
nodes = (
"239 145 LINE",
"180 112 OFFCURVE",
"106 71 OFFCURVE",
"99 71 CURVE SMOOTH",
"82 71 OFFCURVE",
"40 93 OFFCURVE",
"35 96 CURVE",
"25 93 OFFCURVE",
"8 53 OFFCURVE",
"8 24 CURVE SMOOTH",
"8 21 OFFCURVE",
"13 11 OFFCURVE",
"18 5 CURVE",
"31 0 OFFCURVE",
"60 -9 OFFCURVE",
"88 -9 CURVE SMOOTH",
"95 -9 OFFCURVE",
"171 43 OFFCURVE",
"245 99 CURVE"
);
},
{
closed = 1;
nodes = (
"305 499 OFFCURVE",
"298 475 OFFCURVE",
"298 464 CURVE SMOOTH",
"298 93 LINE",
"326 93 LINE",
"340 120 OFFCURVE",
"352 142 OFFCURVE",
"352 150 CURVE SMOOTH",
"352 536 LINE",
"315 526 LINE"
);
}
);
width = 479;
}
);
leftKerningGroup = X;
rightKerningGroup = X;
unicode = 0058;
},
{
glyphname = Y;
layers = (
{
anchors = (
{
name = bottom;
position = "{504, 136}";
},
{
name = top;
position = "{282, 610}";
}
);
background = {
paths = (
{
closed = 1;
nodes = (
"222 480 OFFCURVE",
"231 489 OFFCURVE",
"231 499 CURVE SMOOTH",
"231 509 OFFCURVE",
"222 518 OFFCURVE",
"212 518 CURVE SMOOTH",
"202 518 OFFCURVE",
"193 509 OFFCURVE",
"193 499 CURVE SMOOTH",
"193 489 OFFCURVE",
"202 480 OFFCURVE",
"212 480 CURVE SMOOTH"
);
},
{
closed = 1;
nodes = (
"276 201 OFFCURVE",
"285 210 OFFCURVE",
"285 220 CURVE SMOOTH",
"285 230 OFFCURVE",
"276 239 OFFCURVE",
"266 239 CURVE SMOOTH",
"256 239 OFFCURVE",
"247 230 OFFCURVE",
"247 220 CURVE SMOOTH",
"247 210 OFFCURVE",
"256 201 OFFCURVE",
"266 201 CURVE SMOOTH"
);
}
);
};
layerId = "52F4C6DE-93AC-450D-9CD0-4DAC5691B9C2";
paths = (
{
closed = 1;
nodes = (
"178 31 OFFCURVE",
"250 18 OFFCURVE",
"284 16 CURVE",
"395 116 LINE",
"259 155 LINE",
"180 567 LINE",
"175 579 OFFCURVE",
"163 593 OFFCURVE",
"154 602 CURVE",
"144 612 OFFCURVE",
"65 625 OFFCURVE",
"25 625 CURVE",
"-25 536 LINE",
"18 502 LINE",
"105 109 LINE SMOOTH",
"108 97 OFFCURVE",
"152 41 OFFCURVE",
"159 38 CURVE"
);
},
{
closed = 1;
nodes = (
"302 105 LINE",
"198 -181 LINE",
"203 -193 OFFCURVE",
"225 -236 OFFCURVE",
"250 -244 CURVE SMOOTH",
"266 -249 OFFCURVE",
"390 -228 OFFCURVE",
"454 -219 CURVE",
"454 -146 LINE",
"370 -113 LINE",
"407 129 LINE",
"554 572 LINE",
"549 584 OFFCURVE",
"531 615 OFFCURVE",
"506 623 CURVE SMOOTH",
"490 628 OFFCURVE",
"391 616 OFFCURVE",
"337 610 CURVE",
"337 545 LINE",
"377 522 LINE"
);
},
{
closed = 1;
nodes = (
"230 583 OFFCURVE",
"224 550 OFFCURVE",
"227 536 CURVE SMOOTH",
"312 97 LINE",
"328 174 LINE",
"330 221 OFFCURVE",
"329 307 OFFCURVE",
"327 318 CURVE SMOOTH",
"268 610 LINE",
"235 610 LINE"
);
}
);
width = 543;
},
{
anchors = (
{
name = bottom;
position = "{331, 50}";
},
{
name = top;
position = "{215, 591}";
}
);
background = {
paths = (
{
closed = 1;
nodes = (
"208 -176 OFFCURVE",
"266 -164 OFFCURVE",
"266 -164 CURVE",
"267 -147 LINE",
"209 -147 LINE",
"253 -6 LINE",
"395 430 LINE",
"395 433 OFFCURVE",
"384 450 OFFCURVE",
"380 450 CURVE SMOOTH",
"371 450 OFFCURVE",
"282 441 OFFCURVE",
"282 441 CURVE",
"282 421 LINE",
"362 421 LINE",
"238 25 LINE",
"233 25 LINE",
"211 110 LINE",
"123 433 LINE SMOOTH",
"122 437 OFFCURVE",
"108 450 OFFCURVE",
"103 450 CURVE SMOOTH",
"94 450 OFFCURVE",
"37 438 OFFCURVE",
"37 438 CURVE",
"37 421 LINE",
"96 421 LINE",
"214 -8 LINE",
"214 -8 OFFCURVE",
"217 -11 OFFCURVE",
"218 -11 CURVE SMOOTH",
"218 -11 OFFCURVE",
"225 -10 OFFCURVE",
"225 -10 CURVE",
"179 -151 LINE SMOOTH",
"178 -155 OFFCURVE",
"196 -176 OFFCURVE",
"199 -176 CURVE SMOOTH"
);
}
);
};
layerId = "4F39836F-1187-466E-8FAB-7EBF43C51BB4";
paths = (
{
closed = 1;
nodes = (
"183 35 OFFCURVE",
"230 22 OFFCURVE",
"241 19 CURVE",
"249 43 LINE",
"192 59 LINE",
"71 575 LINE",
"68 582 OFFCURVE",
"62 591 OFFCURVE",
"55 596 CURVE",
"38 599 OFFCURVE",
"19 600 OFFCURVE",
"-7 601 CURVE",
"-9 584 LINE",
"42 570 LINE",
"166 54 LINE SMOOTH",
"167 50 OFFCURVE",
"175 40 OFFCURVE",
"179 37 CURVE"
);
},
{
closed = 1;
nodes = (
"241 40 LINE",
"191 -151 LINE SMOOTH",
"190 -155 OFFCURVE",
"208 -176 OFFCURVE",
"211 -176 CURVE SMOOTH",
"217 -176 OFFCURVE",
"264 -169 OFFCURVE",
"288 -164 CURVE",
"289 -147 LINE",
"221 -147 LINE",
"269 56 LINE",
"394 580 LINE",
"388 590 OFFCURVE",
"377 601 OFFCURVE",
"371 601 CURVE SMOOTH",
"359 601 OFFCURVE",
"330 596 OFFCURVE",
"288 589 CURVE",
"288 572 LINE",
"361 569 LINE"
);
},
{
closed = 1;
nodes = (
"149 574 OFFCURVE",
"146 550 OFFCURVE",
"149 536 CURVE SMOOTH",
"255 64 LINE",
"265 80 LINE",
"260 139 OFFCURVE",
"259 166 OFFCURVE",
"255 185 CURVE SMOOTH",
"167 591 LINE",
"152 591 LINE"
);
}
);
width = 425;
},
{
anchors = (
{
name = bottom;
position = "{393, 110}";
},
{
name = top;
position = "{231, 603}";
}
);
layerId = "555729A4-F539-4650-9C4F-3880CB033E7B";
paths = (
{
closed = 1;
nodes = (
"176 48 OFFCURVE",
"238 33 OFFCURVE",
"255 31 CURVE",
"287 100 LINE",
"200 128 LINE",
"109 567 LINE",
"105 576 OFFCURVE",
"97 589 OFFCURVE",
"89 597 CURVE",
"72 603 OFFCURVE",
"26 609 OFFCURVE",
"-14 612 CURVE",
"-30 566 LINE",
"12 535 LINE",
"117 98 LINE SMOOTH",
"120 86 OFFCURVE",
"150 58 OFFCURVE",
"157 55 CURVE"
);
},
{
closed = 1;
nodes = (
"257 86 LINE",
"167 -178 LINE",
"167 -185 OFFCURVE",
"193 -221 OFFCURVE",
"199 -221 CURVE SMOOTH",
"207 -221 OFFCURVE",
"293 -213 OFFCURVE",
"326 -209 CURVE",
"326 -159 LINE",
"277 -141 LINE",
"325 116 LINE",
"450 580 LINE",
"445 592 OFFCURVE",
"424 612 OFFCURVE",
"415 612 CURVE SMOOTH",
"400 612 OFFCURVE",
"351 604 OFFCURVE",
"297 596 CURVE",
"297 558 LINE",
"355 543 LINE"
);
},
{
closed = 1;
nodes = (
"182 576 OFFCURVE",
"173 543 OFFCURVE",
"176 529 CURVE SMOOTH",
"269 78 LINE",
"290 90 LINE",
"287 177 OFFCURVE",
"279 275 OFFCURVE",
"277 286 CURVE SMOOTH",
"213 603 LINE",
"189 603 LINE"
);
}
);
width = 447;
}
);
leftKerningGroup = V;
rightKerningGroup = Y;
unicode = 0059;
},
{
glyphname = Z;
layers = (
{
anchors = (
{
name = top;
position = "{293, 610}";
}
);
background = {
paths = (
{
closed = 1;
nodes = (
"348 345 OFFCURVE",
"385 382 OFFCURVE",
"385 429 CURVE SMOOTH",
"385 475 OFFCURVE",
"348 512 OFFCURVE",
"302 512 CURVE SMOOTH",
"255 512 OFFCURVE",
"218 475 OFFCURVE",
"218 429 CURVE SMOOTH",
"218 382 OFFCURVE",
"255 345 OFFCURVE",
"302 345 CURVE SMOOTH"
);
},
{
closed = 1;
nodes = (
"426 330 OFFCURVE",
"435 339 OFFCURVE",
"435 349 CURVE SMOOTH",
"435 359 OFFCURVE",
"426 368 OFFCURVE",
"416 368 CURVE SMOOTH",
"406 368 OFFCURVE",
"397 359 OFFCURVE",
"397 349 CURVE SMOOTH",
"397 339 OFFCURVE",
"406 330 OFFCURVE",
"416 330 CURVE SMOOTH"
);
},
{
closed = 1;
nodes = (
"410 343 OFFCURVE",
"422 355 OFFCURVE",
"422 370 CURVE SMOOTH",
"422 385 OFFCURVE",
"410 397 OFFCURVE",
"395 397 CURVE SMOOTH",
"380 397 OFFCURVE",
"368 385 OFFCURVE",
"368 370 CURVE SMOOTH",
"368 355 OFFCURVE",
"380 343 OFFCURVE",
"395 343 CURVE SMOOTH"
);
},
{
closed = 1;
nodes = (
"194 122 OFFCURVE",
"231 159 OFFCURVE",
"231 206 CURVE SMOOTH",
"231 252 OFFCURVE",
"194 289 OFFCURVE",
"148 289 CURVE SMOOTH",
"101 289 OFFCURVE",
"64 252 OFFCURVE",
"64 206 CURVE SMOOTH",
"64 159 OFFCURVE",
"101 122 OFFCURVE",
"148 122 CURVE SMOOTH"
);
},
{
closed = 1;
nodes = (
"272 107 OFFCURVE",
"281 116 OFFCURVE",
"281 126 CURVE SMOOTH",
"281 136 OFFCURVE",
"272 145 OFFCURVE",
"262 145 CURVE SMOOTH",
"252 145 OFFCURVE",
"243 136 OFFCURVE",
"243 126 CURVE SMOOTH",
"243 116 OFFCURVE",
"252 107 OFFCURVE",
"262 107 CURVE SMOOTH"
);
},
{
closed = 1;
nodes = (
"256 120 OFFCURVE",
"268 132 OFFCURVE",
"268 147 CURVE SMOOTH",
"268 162 OFFCURVE",
"256 174 OFFCURVE",
"241 174 CURVE SMOOTH",
"226 174 OFFCURVE",
"214 162 OFFCURVE",
"214 147 CURVE SMOOTH",
"214 132 OFFCURVE",
"226 120 OFFCURVE",
"241 120 CURVE SMOOTH"
);
}
);
};
layerId = "52F4C6DE-93AC-450D-9CD0-4DAC5691B9C2";
paths = (
{
closed = 1;
nodes = (
"500 594 OFFCURVE",
"481 625 OFFCURVE",
"473 625 CURVE SMOOTH",
"414 625 OFFCURVE",
"157 617 OFFCURVE",
"33 611 CURVE",
"49 441 LINE",
"131 441 LINE",
"142 540 LINE",
"300 526 LINE",
"67 181 LINE SMOOTH",
"49 154 OFFCURVE",
"40 48 OFFCURVE",
"49 -2 CURVE",
"97 -11 LINE",
"505 577 LINE"
);
},
{
closed = 1;
nodes = (
"175 22 OFFCURVE",
"186 -7 OFFCURVE",
"196 -12 CURVE",
"255 -12 OFFCURVE",
"445 -3 OFFCURVE",
"569 3 CURVE",
"560 197 LINE",
"485 197 LINE",
"459 82 LINE",
"285 100 LINE",
"568 506 LINE SMOOTH",
"575 516 OFFCURVE",
"595 564 OFFCURVE",
"599 594 CURVE",
"571 608 LINE",
"175 37 LINE"
);
},
{
closed = 1;
nodes = (
"364 292 LINE",
"538 283 LINE",
"574 406 LINE",
"430 389 LINE"
);
},
{
closed = 1;
nodes = (
"295 398 LINE",
"56 397 LINE",
"40 276 LINE",
"262 302 LINE"
);
}
);
width = 614;
},
{
anchors = (
{
name = top;
position = "{225, 591}";
}
);
background = {
paths = (
{
closed = 1;
nodes = (
"286 485 OFFCURVE",
"293 492 OFFCURVE",
"293 500 CURVE SMOOTH",
"293 508 OFFCURVE",
"286 515 OFFCURVE",
"278 515 CURVE SMOOTH",
"270 515 OFFCURVE",
"263 508 OFFCURVE",
"263 500 CURVE SMOOTH",
"263 492 OFFCURVE",
"270 485 OFFCURVE",
"278 485 CURVE SMOOTH"
);
},
{
closed = 1;
nodes = (
"364 445 OFFCURVE",
"371 452 OFFCURVE",
"371 460 CURVE SMOOTH",
"371 468 OFFCURVE",
"364 475 OFFCURVE",
"356 475 CURVE SMOOTH",
"348 475 OFFCURVE",
"341 468 OFFCURVE",
"341 460 CURVE SMOOTH",
"341 452 OFFCURVE",
"348 445 OFFCURVE",
"356 445 CURVE SMOOTH"
);
},
{
closed = 1;
nodes = (
"332 451 OFFCURVE",
"346 465 OFFCURVE",
"346 480 CURVE SMOOTH",
"346 495 OFFCURVE",
"332 509 OFFCURVE",
"317 509 CURVE SMOOTH",
"302 509 OFFCURVE",
"288 495 OFFCURVE",
"288 480 CURVE SMOOTH",
"288 465 OFFCURVE",
"302 451 OFFCURVE",
"317 451 CURVE SMOOTH"
);
},
{
closed = 1;
nodes = (
"128 185 OFFCURVE",
"135 192 OFFCURVE",
"135 200 CURVE SMOOTH",
"135 208 OFFCURVE",
"128 215 OFFCURVE",
"120 215 CURVE SMOOTH",
"112 215 OFFCURVE",
"105 208 OFFCURVE",
"105 200 CURVE SMOOTH",
"105 192 OFFCURVE",
"112 185 OFFCURVE",
"120 185 CURVE SMOOTH"
);
},
{
closed = 1;
nodes = (
"206 145 OFFCURVE",
"213 152 OFFCURVE",
"213 160 CURVE SMOOTH",
"213 168 OFFCURVE",
"206 175 OFFCURVE",
"198 175 CURVE SMOOTH",
"190 175 OFFCURVE",
"183 168 OFFCURVE",
"183 160 CURVE SMOOTH",
"183 152 OFFCURVE",
"190 145 OFFCURVE",
"198 145 CURVE SMOOTH"
);
},
{
closed = 1;
nodes = (
"174 151 OFFCURVE",
"188 165 OFFCURVE",
"188 180 CURVE SMOOTH",
"188 195 OFFCURVE",
"174 209 OFFCURVE",
"159 209 CURVE SMOOTH",
"144 209 OFFCURVE",
"130 195 OFFCURVE",
"130 180 CURVE SMOOTH",
"130 165 OFFCURVE",
"144 151 OFFCURVE",
"159 151 CURVE SMOOTH"
);
}
);
};
layerId = "4F39836F-1187-466E-8FAB-7EBF43C51BB4";
paths = (
{
closed = 1;
nodes = (
"330 582 OFFCURVE",
"316 601 OFFCURVE",
"309 601 CURVE SMOOTH",
"289 601 OFFCURVE",
"118 594 OFFCURVE",
"27 591 CURVE",
"33 469 LINE",
"52 469 LINE",
"59 564 LINE",
"300 574 LINE",
"37 75 LINE SMOOTH",
"29 59 OFFCURVE",
"20 30 OFFCURVE",
"15 8 CURVE",
"31 0 LINE",
"331 569 LINE"
);
},
{
closed = 1;
nodes = (
"109 9 OFFCURVE",
"124 -10 OFFCURVE",
"131 -10 CURVE SMOOTH",
"151 -10 OFFCURVE",
"321 -3 OFFCURVE",
"423 0 CURVE",
"420 122 LINE",
"401 122 LINE",
"391 27 LINE",
"139 17 LINE",
"402 516 LINE SMOOTH",
"410 532 OFFCURVE",
"419 561 OFFCURVE",
"424 583 CURVE",
"408 591 LINE",
"108 22 LINE"
);
},
{
closed = 1;
nodes = (
"270 297 LINE",
"398 296 LINE",
"406 322 LINE",
"270 319 LINE"
);
},
{
closed = 1;
nodes = (
"177 315 LINE",
"39 314 LINE",
"37 287 LINE",
"177 294 LINE"
);
}
);
width = 444;
},
{
anchors = (
{
name = top;
position = "{246, 603}";
}
);
background = {
paths = (
{
closed = 1;
nodes = (
"279 379 OFFCURVE",
"300 400 OFFCURVE",
"300 426 CURVE SMOOTH",
"300 451 OFFCURVE",
"279 472 OFFCURVE",
"254 472 CURVE SMOOTH",
"228 472 OFFCURVE",
"207 451 OFFCURVE",
"207 426 CURVE SMOOTH",
"207 400 OFFCURVE",
"228 379 OFFCURVE",
"254 379 CURVE SMOOTH"
);
},
{
closed = 1;
nodes = (
"378 335 OFFCURVE",
"390 347 OFFCURVE",
"390 361 CURVE SMOOTH",
"390 375 OFFCURVE",
"378 387 OFFCURVE",
"364 387 CURVE SMOOTH",
"350 387 OFFCURVE",
"338 375 OFFCURVE",
"338 361 CURVE SMOOTH",
"338 347 OFFCURVE",
"350 335 OFFCURVE",
"364 335 CURVE SMOOTH"
);
},
{
closed = 1;
nodes = (
"333 361 OFFCURVE",
"345 373 OFFCURVE",
"345 389 CURVE SMOOTH",
"345 404 OFFCURVE",
"333 416 OFFCURVE",
"318 416 CURVE SMOOTH",
"302 416 OFFCURVE",
"290 404 OFFCURVE",
"290 389 CURVE SMOOTH",
"290 373 OFFCURVE",
"302 361 OFFCURVE",
"318 361 CURVE SMOOTH"
);
},
{
closed = 1;
nodes = (
"134 128 OFFCURVE",
"155 149 OFFCURVE",
"155 175 CURVE SMOOTH",
"155 200 OFFCURVE",
"134 221 OFFCURVE",
"109 221 CURVE SMOOTH",
"83 221 OFFCURVE",
"62 200 OFFCURVE",
"62 175 CURVE SMOOTH",
"62 149 OFFCURVE",
"83 128 OFFCURVE",
"109 128 CURVE SMOOTH"
);
},
{
closed = 1;
nodes = (
"233 84 OFFCURVE",
"245 96 OFFCURVE",
"245 110 CURVE SMOOTH",
"245 124 OFFCURVE",
"233 136 OFFCURVE",
"219 136 CURVE SMOOTH",
"205 136 OFFCURVE",
"193 124 OFFCURVE",
"193 110 CURVE SMOOTH",
"193 96 OFFCURVE",
"205 84 OFFCURVE",
"219 84 CURVE SMOOTH"
);
},
{
closed = 1;
nodes = (
"188 110 OFFCURVE",
"200 122 OFFCURVE",
"200 138 CURVE SMOOTH",
"200 153 OFFCURVE",
"188 165 OFFCURVE",
"173 165 CURVE SMOOTH",
"157 165 OFFCURVE",
"145 153 OFFCURVE",
"145 138 CURVE SMOOTH",
"145 122 OFFCURVE",
"157 110 OFFCURVE",
"173 110 CURVE SMOOTH"
);
}
);
};
layerId = "555729A4-F539-4650-9C4F-3880CB033E7B";
paths = (
{
closed = 1;
nodes = (
"393 591 OFFCURVE",
"379 612 OFFCURVE",
"372 612 CURVE SMOOTH",
"326 612 OFFCURVE",
"131 606 OFFCURVE",
"19 603 CURVE",
"32 428 LINE",
"87 428 LINE",
"96 554 LINE",
"268 540 LINE",
"44 143 LINE SMOOTH",
"34 125 OFFCURVE",
"29 63 OFFCURVE",
"34 9 CURVE",
"61 0 LINE",
"395 578 LINE"
);
},
{
closed = 1;
nodes = (
"139 12 OFFCURVE",
"151 -9 OFFCURVE",
"158 -9 CURVE SMOOTH",
"204 -9 OFFCURVE",
"364 -3 OFFCURVE",
"482 0 CURVE",
"471 184 LINE",
"417 184 LINE",
"405 49 LINE",
"223 65 LINE",
"469 492 LINE SMOOTH",
"479 510 OFFCURVE",
"493 565 OFFCURVE",
"498 594 CURVE",
"471 603 LINE",
"137 25 LINE"
);
},
{
closed = 1;
nodes = (
"333 295 LINE",
"459 291 LINE",
"467 369 LINE",
"333 355 LINE"
);
},
{
closed = 1;
nodes = (
"198 359 LINE",
"43 358 LINE",
"36 274 LINE",
"198 301 LINE"
);
}
);
width = 502;
}
);
leftKerningGroup = Z;
rightKerningGroup = Z;
unicode = 005A;
},
{
glyphname = A.ss01;
layers = (
{
anchors = (
{
name = bottom;
position = "{285, 0}";
},
{
name = ogonek;
position = "{520, 0}";
},
{
name = top;
position = "{289, 603}";
}
);
layerId = "555729A4-F539-4650-9C4F-3880CB033E7B";
paths = (
{
closed = 1;
nodes = (
"227 0 LINE",
"227 43 LINE",
"156 63 LINE",
"193 202 LINE",
"379 202 LINE",
"418 63 LINE",
"350 43 LINE",
"350 0 LINE",
"579 0 LINE",
"579 38 LINE",
"517 58 LINE",
"354 602 LINE",
"354 602 OFFCURVE",
"342 610 OFFCURVE",
"338 610 CURVE SMOOTH",
"336 610 OFFCURVE",
"265 602 OFFCURVE",
"228 596 CURVE",
"198 498 OFFCURVE",
"89 129 OFFCURVE",
"68 58 CURVE",
"6 38 LINE",
"6 0 LINE"
);
},
{
closed = 1;
nodes = (
"237 365 OFFCURVE",
"269 482 OFFCURVE",
"280 523 CURVE",
"292 523 LINE",
"304 473 OFFCURVE",
"341 336 OFFCURVE",
"364 255 CURVE",
"208 255 LINE"
);
}
);
width = 575;
},
{
anchors = (
{
name = bottom;
position = "{328, 0}";
},
{
name = ogonek;
position = "{582, 0}";
},
{
name = top;
position = "{329, 612}";
}
);
layerId = "52F4C6DE-93AC-450D-9CD0-4DAC5691B9C2";
paths = (
{
closed = 1;
nodes = (
"281 0 LINE",
"281 80 LINE",
"212 97 LINE",
"227 171 LINE",
"384 171 LINE",
"404 97 LINE",
"336 80 LINE",
"336 0 LINE",
"666 0 LINE",
"666 72 LINE",
"604 92 LINE",
"433 612 LINE",
"433 612 OFFCURVE",
"412 625 OFFCURVE",
"409 625 CURVE SMOOTH",
"402 625 OFFCURVE",
"267 612 OFFCURVE",
"225 606 CURVE",
"194 512 OFFCURVE",
"77 161 OFFCURVE",
"56 92 CURVE",
"-6 72 LINE",
"-6 0 LINE"
);
},
{
closed = 1;
nodes = (
"269 348 OFFCURVE",
"289 432 OFFCURVE",
"300 471 CURVE",
"310 471 LINE",
"321 423 OFFCURVE",
"342 333 OFFCURVE",
"359 266 CURVE",
"249 266 LINE"
);
}
);
width = 664;
},
{
anchors = (
{
name = bottom;
position = "{265, 0}";
},
{
name = ogonek;
position = "{460, 0}";
},
{
name = top;
position = "{267, 591}";
}
);
layerId = "4F39836F-1187-466E-8FAB-7EBF43C51BB4";
paths = (
{
closed = 1;
nodes = (
"170 0 LINE",
"170 18 LINE",
"109 27 LINE",
"161 212 LINE",
"372 212 LINE",
"425 27 LINE",
"365 18 LINE",
"365 0 LINE",
"513 0 LINE",
"513 17 LINE",
"456 25 LINE",
"293 593 LINE",
"293 593 OFFCURVE",
"282 601 OFFCURVE",
"279 601 CURVE SMOOTH",
"274 601 OFFCURVE",
"243 596 OFFCURVE",
"243 596 CURVE",
"188 406 OFFCURVE",
"134 215 OFFCURVE",
"79 25 CURVE",
"22 17 LINE",
"22 0 LINE"
);
},
{
closed = 1;
nodes = (
"199 349 OFFCURVE",
"231 460 OFFCURVE",
"262 570 CURVE",
"271 570 LINE",
"302 460 OFFCURVE",
"334 349 OFFCURVE",
"365 239 CURVE",
"168 239 LINE"
);
}
);
width = 538;
}
);
leftKerningGroup = A.ss01;
rightKerningGroup = A.ss01;
},
{
glyphname = AE.ss01;
layers = (
{
anchors = (
{
name = top;
position = "{490, 591}";
}
);
layerId = "4F39836F-1187-466E-8FAB-7EBF43C51BB4";
paths = (
{
closed = 1;
nodes = (
"173 0 LINE",
"173 17 LINE",
"114 27 LINE",
"215 212 LINE",
"426 212 LINE",
"426 25 LINE",
"369 17 LINE",
"369 0 LINE",
"714 0 LINE",
"711 122 LINE",
"692 122 LINE",
"682 27 LINE",
"456 27 LINE",
"456 292 LINE",
"643 292 LINE",
"643 319 LINE",
"456 319 LINE",
"456 564 LINE",
"674 564 LINE",
"681 469 LINE",
"700 469 LINE",
"706 591 LINE",
"343 591 LINE",
"343 571 LINE",
"388.624 564.057 LINE",
"81 25 LINE",
"25 17 LINE",
"25 0 LINE"
);
},
{
closed = 1;
nodes = (
"415 564 LINE",
"426 564 LINE",
"426 239 LINE",
"230 239 LINE"
);
}
);
width = 753;
},
{
anchors = (
{
name = top;
position = "{449, 650}";
}
);
layerId = "555729A4-F539-4650-9C4F-3880CB033E7B";
paths = (
{
closed = 1;
nodes = (
"227 0 LINE",
"227 43 LINE",
"158 63 LINE",
"218 203 LINE",
"380 203 LINE",
"380 58 LINE",
"318 38 LINE",
"318 0 LINE",
"721 0 LINE",
"717 179 LINE",
"663 179 LINE",
"647 49 LINE",
"473 65 LINE",
"473 285 LINE",
"612 290 LINE",
"612 337 LINE",
"473 342 LINE",
"473 540 LINE",
"623 554 LINE",
"634 428 LINE",
"688 428 LINE",
"701 603 LINE",
"214 603 LINE",
"214 565 LINE",
"283 545 LINE",
"68 58 LINE",
"6 38 LINE",
"6 0 LINE"
);
},
{
closed = 1;
nodes = (
"357 540 LINE",
"380 540 LINE",
"380 256 LINE",
"231 256 LINE"
);
}
);
width = 751;
},
{
anchors = (
{
name = top;
position = "{570, 650}";
}
);
layerId = "52F4C6DE-93AC-450D-9CD0-4DAC5691B9C2";
paths = (
{
closed = 1;
nodes = (
"287 0 LINE",
"287 80 LINE",
"218 97 LINE",
"259 171 LINE",
"449 171 LINE",
"449 97 LINE",
"389 72 LINE",
"389 0 LINE",
"902 0 LINE",
"898 199 LINE",
"809 199 LINE",
"791 88 LINE",
"640 104 LINE",
"640 259 LINE",
"773 266 LINE",
"773 360 LINE",
"640 365 LINE",
"640 510 LINE",
"782 524 LINE",
"795 417 LINE",
"884 417 LINE",
"897 612 LINE",
"267 612 LINE",
"267 540 LINE",
"327 515 LINE",
"63 92 LINE",
"0 72 LINE",
"0 0 LINE"
);
},
{
closed = 1;
nodes = (
"437 500 LINE",
"449 500 LINE",
"449 266 LINE",
"312 266 LINE"
);
}
);
width = 927;
}
);
leftKerningGroup = A.ss01;
rightKerningGroup = E.ss01;
},
{
glyphname = B.ss01;
layers = (
{
background = {
paths = (
{
closed = 1;
nodes = (
"301 0 LINE SMOOTH",
"400 0 OFFCURVE",
"483 40 OFFCURVE",
"483 174 CURVE SMOOTH",
"483 250 OFFCURVE",
"429 300 OFFCURVE",
"353 313 CURVE",
"353 319 LINE",
"382 333 OFFCURVE",
"443 361 OFFCURVE",
"443 447 CURVE SMOOTH",
"443 567 OFFCURVE",
"388 603 OFFCURVE",
"289 603 CURVE SMOOTH",
"42 603 LINE",
"42 565 LINE",
"104 545 LINE",
"104 58 LINE",
"42 38 LINE",
"42 0 LINE"
);
},
{
closed = 1;
nodes = (
"197 273 LINE",
"300 273 LINE SMOOTH",
"352 273 OFFCURVE",
"385 269 OFFCURVE",
"385 186 CURVE SMOOTH",
"385 83 OFFCURVE",
"369 47 OFFCURVE",
"329 47 CURVE",
"197 61 LINE"
);
},
{
closed = 1;
nodes = (
"197 544 LINE",
"302 556 LINE",
"335 556 OFFCURVE",
"345 519 OFFCURVE",
"345 432 CURVE SMOOTH",
"345 346 OFFCURVE",
"318 330 OFFCURVE",
"266 330 CURVE SMOOTH",
"197 330 LINE"
);
}
);
};
layerId = "555729A4-F539-4650-9C4F-3880CB033E7B";
paths = (
{
closed = 1;
nodes = (
"301 0 LINE SMOOTH",
"400 0 OFFCURVE",
"483 40 OFFCURVE",
"483 174 CURVE SMOOTH",
"483 250 OFFCURVE",
"429 300 OFFCURVE",
"353 313 CURVE",
"353 319 LINE",
"382 333 OFFCURVE",
"443 361 OFFCURVE",
"443 447 CURVE SMOOTH",
"443 567 OFFCURVE",
"388 603 OFFCURVE",
"289 603 CURVE SMOOTH",
"42 603 LINE",
"42 565 LINE",
"104 545 LINE",
"104 58 LINE",
"42 38 LINE",
"42 0 LINE"
);
},
{
closed = 1;
nodes = (
"197 273 LINE",
"300 273 LINE SMOOTH",
"352 273 OFFCURVE",
"385 269 OFFCURVE",
"385 186 CURVE SMOOTH",
"385 83 OFFCURVE",
"369 47 OFFCURVE",
"329 47 CURVE SMOOTH",
"197 61 LINE"
);
},
{
closed = 1;
nodes = (
"197 544 LINE",
"302 556 LINE SMOOTH",
"335 556 OFFCURVE",
"345 519 OFFCURVE",
"345 432 CURVE SMOOTH",
"345 346 OFFCURVE",
"318 330 OFFCURVE",
"266 330 CURVE SMOOTH",
"197 330 LINE"
);
}
);
width = 511;
},
{
layerId = "52F4C6DE-93AC-450D-9CD0-4DAC5691B9C2";
paths = (
{
closed = 1;
nodes = (
"397 0 LINE SMOOTH",
"496 0 OFFCURVE",
"579 40 OFFCURVE",
"579 174 CURVE SMOOTH",
"579 252 OFFCURVE",
"529 304 OFFCURVE",
"459 317 CURVE",
"459 323 LINE",
"489 338 OFFCURVE",
"553 367 OFFCURVE",
"553 457 CURVE SMOOTH",
"553 575 OFFCURVE",
"498 612 OFFCURVE",
"399 612 CURVE SMOOTH",
"20 612 LINE",
"20 540 LINE",
"80 515 LINE",
"80 97 LINE",
"20 72 LINE",
"20 0 LINE"
);
},
{
closed = 1;
nodes = (
"271 257 LINE",
"322 257 LINE SMOOTH",
"362 257 OFFCURVE",
"387 253 OFFCURVE",
"387 186 CURVE SMOOTH",
"387 112 OFFCURVE",
"371 89 OFFCURVE",
"331 89 CURVE",
"271 98 LINE"
);
},
{
closed = 1;
nodes = (
"271 515 LINE",
"322 522 LINE",
"355 522 OFFCURVE",
"365 495 OFFCURVE",
"365 432 CURVE SMOOTH",
"365 366 OFFCURVE",
"343 352 OFFCURVE",
"302 352 CURVE SMOOTH",
"271 352 LINE"
);
}
);
width = 594;
},
{
layerId = "4F39836F-1187-466E-8FAB-7EBF43C51BB4";
paths = (
{
closed = 1;
nodes = (
"258 0 LINE SMOOTH",
"351 0 OFFCURVE",
"435 26 OFFCURVE",
"435 164 CURVE SMOOTH",
"435 240 OFFCURVE",
"393 290 OFFCURVE",
"315 304 CURVE",
"315 309 LINE",
"340 319 OFFCURVE",
"395 352 OFFCURVE",
"395 447 CURVE SMOOTH",
"395 559 OFFCURVE",
"344 591 OFFCURVE",
"251 591 CURVE SMOOTH",
"47 591 LINE",
"47 574 LINE",
"104 566 LINE",
"104 25 LINE",
"47 17 LINE",
"47 0 LINE"
);
},
{
closed = 1;
nodes = (
"134 288 LINE",
"277 288 LINE SMOOTH",
"307 288 OFFCURVE",
"405 274 OFFCURVE",
"405 165 CURVE SMOOTH",
"405 63 OFFCURVE",
"362 27 OFFCURVE",
"267 27 CURVE SMOOTH",
"134 27 LINE"
);
},
{
closed = 1;
nodes = (
"134 564 LINE",
"259 564 LINE SMOOTH",
"343 564 OFFCURVE",
"365 517 OFFCURVE",
"365 442 CURVE SMOOTH",
"365 346 OFFCURVE",
"306 315 OFFCURVE",
"248 315 CURVE SMOOTH",
"134 315 LINE"
);
}
);
width = 480;
}
);
leftKerningGroup = H.ss01;
rightKerningGroup = B.ss01;
},
{
glyphname = C.ss01;
layers = (
{
anchors = (
{
name = bottom;
position = "{235, 0}";
},
{
name = top;
position = "{261, 603}";
}
);
background = {
paths = (
{
closed = 1;
nodes = (
"209 611 OFFCURVE",
"105 544 OFFCURVE",
"73 494 CURVE",
"55 449 OFFCURVE",
"43 369 OFFCURVE",
"43 277 CURVE SMOOTH",
"43 78 OFFCURVE",
"134 -9 OFFCURVE",
"223 -9 CURVE SMOOTH",
"238 -9 OFFCURVE",
"369 4 OFFCURVE",
"405 14 CURVE",
"404 191 LINE",
"353 192 LINE",
"335.876 65 LINE",
"270 65 LINE SMOOTH",
"201 65 OFFCURVE",
"142 109 OFFCURVE",
"142 312 CURVE SMOOTH",
"142 433 OFFCURVE",
"159 518 OFFCURVE",
"192 535 CURVE SMOOTH",
"200 539 OFFCURVE",
"209 541 OFFCURVE",
"224 541 CURVE SMOOTH",
"246 541 OFFCURVE",
"304 537 OFFCURVE",
"340 530 CURVE",
"352 428 LINE",
"406 428 LINE",
"418 601 LINE",
"358 606 OFFCURVE",
"259 611 OFFCURVE",
"239 611 CURVE SMOOTH"
);
}
);
};
layerId = "555729A4-F539-4650-9C4F-3880CB033E7B";
paths = (
{
closed = 1;
nodes = (
"209 612 OFFCURVE",
"105 544 OFFCURVE",
"73 494 CURVE",
"55 449 OFFCURVE",
"43 369 OFFCURVE",
"43 277 CURVE SMOOTH",
"43 78 OFFCURVE",
"134 -9 OFFCURVE",
"223 -9 CURVE SMOOTH",
"238 -9 OFFCURVE",
"375 4 OFFCURVE",
"411 14 CURVE",
"410 191 LINE",
"359 192 LINE",
"342 65 LINE",
"270 65 LINE SMOOTH",
"201 65 OFFCURVE",
"142 109 OFFCURVE",
"142 312 CURVE SMOOTH",
"142 433 OFFCURVE",
"159 519 OFFCURVE",
"192 536 CURVE SMOOTH",
"200 540 OFFCURVE",
"209 542 OFFCURVE",
"224 542 CURVE SMOOTH",
"246 542 OFFCURVE",
"310 538 OFFCURVE",
"346 531 CURVE",
"358 429 LINE",
"412 429 LINE",
"424 602 LINE",
"364 607 OFFCURVE",
"259 612 OFFCURVE",
"239 612 CURVE SMOOTH"
);
}
);
width = 456;
},
{
anchors = (
{
name = bottom;
position = "{252, 0}";
},
{
name = top;
position = "{262, 612}";
}
);
background = {
paths = (
{
closed = 1;
nodes = (
"246 625 OFFCURVE",
"97 540 OFFCURVE",
"48 485 CURVE",
"32 442 OFFCURVE",
"15 374 OFFCURVE",
"15 287 CURVE SMOOTH",
"15 77 OFFCURVE",
"95 -13 OFFCURVE",
"276 -13 CURVE SMOOTH",
"291 -13 OFFCURVE",
"418 2 OFFCURVE",
"472 14 CURVE",
"466 224 LINE",
"379 224 LINE",
"360 101 LINE",
"323 101 LINE SMOOTH",
"249 101 OFFCURVE",
"214 151 OFFCURVE",
"214 308 CURVE SMOOTH",
"214 428 OFFCURVE",
"227 527 OFFCURVE",
"242 527 CURVE SMOOTH",
"267 527 OFFCURVE",
"328 515 OFFCURVE",
"355 510 CURVE",
"370 384 LINE",
"459 384 LINE",
"471 601 LINE",
"416 609 OFFCURVE",
"312 625 OFFCURVE",
"292 625 CURVE SMOOTH"
);
}
);
};
layerId = "52F4C6DE-93AC-450D-9CD0-4DAC5691B9C2";
paths = (
{
closed = 1;
nodes = (
"246 625 OFFCURVE",
"97 540 OFFCURVE",
"48 485 CURVE",
"32 442 OFFCURVE",
"15 374 OFFCURVE",
"15 287 CURVE SMOOTH",
"15 77 OFFCURVE",
"95 -13 OFFCURVE",
"276 -13 CURVE SMOOTH",
"291 -13 OFFCURVE",
"418 2 OFFCURVE",
"472 14 CURVE",
"466 224 LINE",
"379 224 LINE",
"360.257 101 LINE",
"323 101 LINE SMOOTH",
"249 101 OFFCURVE",
"214 151 OFFCURVE",
"214 308 CURVE SMOOTH",
"214 428 OFFCURVE",
"228 515 OFFCURVE",
"242 524 CURVE SMOOTH",
"248 528 OFFCURVE",
"255 529 OFFCURVE",
"265 529 CURVE SMOOTH",
"289 529 OFFCURVE",
"330 519 OFFCURVE",
"355 510 CURVE",
"370 384 LINE",
"459 384 LINE",
"471 601 LINE",
"416 609 OFFCURVE",
"312 625 OFFCURVE",
"292 625 CURVE SMOOTH"
);
}
);
width = 496;
},
{
anchors = (
{
name = bottom;
position = "{235, 0}";
},
{
name = top;
position = "{261, 591}";
}
);
background = {
paths = (
{
closed = 1;
nodes = (
"221 601 OFFCURVE",
"136 549 OFFCURVE",
"90 475 CURVE",
"66 426 OFFCURVE",
"55 358 OFFCURVE",
"55 280 CURVE SMOOTH",
"55 106 OFFCURVE",
"125 -10 OFFCURVE",
"272 -10 CURVE SMOOTH",
"314 -10 OFFCURVE",
"367 -4 OFFCURVE",
"368 -4 CURVE",
"369 132 LINE",
"351 132 LINE",
"339.816 15 LINE",
"279 15 LINE SMOOTH",
"156 15 OFFCURVE",
"85 96 OFFCURVE",
"85 301 CURVE SMOOTH",
"85 424 OFFCURVE",
"121 482 OFFCURVE",
"160 517 CURVE SMOOTH",
"202 555 OFFCURVE",
"236 572 OFFCURVE",
"254 572 CURVE SMOOTH",
"279 572 OFFCURVE",
"323 567 OFFCURVE",
"336 564 CURVE",
"343 461 LINE",
"362 461 LINE",
"368 587 LINE",
"340 592 OFFCURVE",
"279 601 OFFCURVE",
"250 601 CURVE SMOOTH"
);
}
);
};
layerId = "4F39836F-1187-466E-8FAB-7EBF43C51BB4";
paths = (
{
closed = 1;
nodes = (
"221 601 OFFCURVE",
"136 549 OFFCURVE",
"90 475 CURVE",
"66 426 OFFCURVE",
"55 358 OFFCURVE",
"55 280 CURVE SMOOTH",
"55 106 OFFCURVE",
"125 -10 OFFCURVE",
"272 -10 CURVE SMOOTH",
"324 -10 OFFCURVE",
"377 -4 OFFCURVE",
"378 -4 CURVE",
"379 132 LINE",
"361 132 LINE",
"350 15 LINE",
"279 15 LINE SMOOTH",
"156 15 OFFCURVE",
"85 96 OFFCURVE",
"85 301 CURVE SMOOTH",
"85 424 OFFCURVE",
"121 482 OFFCURVE",
"160 517 CURVE SMOOTH",
"202 555 OFFCURVE",
"236 572 OFFCURVE",
"254 572 CURVE SMOOTH",
"279 572 OFFCURVE",
"333 567 OFFCURVE",
"346 564 CURVE",
"353 461 LINE",
"372 461 LINE",
"378 587 LINE",
"350 592 OFFCURVE",
"279 601 OFFCURVE",
"250 601 CURVE SMOOTH"
);
}
);
width = 431;
}
);
leftKerningGroup = O.ss01;
rightKerningGroup = C.ss01;
},
{
glyphname = D.ss01;
layers = (
{
anchors = (
{
name = center;
position = "{172, 308}";
},
{
name = top;
position = "{287, 603}";
}
);
layerId = "555729A4-F539-4650-9C4F-3880CB033E7B";
paths = (
{
closed = 1;
nodes = (
"319 0 LINE SMOOTH",
"450 0 OFFCURVE",
"530 96 OFFCURVE",
"530 318 CURVE SMOOTH",
"530 535 OFFCURVE",
"420 603 OFFCURVE",
"319 603 CURVE SMOOTH",
"42 603 LINE",
"42 565 LINE",
"104 545 LINE",
"104 58 LINE",
"42 38 LINE",
"42 0 LINE"
);
},
{
closed = 1;
nodes = (
"197 542 LINE",
"338 556 LINE SMOOTH",
"396 556 OFFCURVE",
"431 442 OFFCURVE",
"431 312 CURVE SMOOTH",
"431 150 OFFCURVE",
"396 47 OFFCURVE",
"338 47 CURVE SMOOTH",
"197 63 LINE"
);
}
);
width = 574;
},
{
anchors = (
{
name = center;
position = "{190, 308}";
},
{
name = top;
position = "{308, 612}";
}
);
layerId = "52F4C6DE-93AC-450D-9CD0-4DAC5691B9C2";
paths = (
{
closed = 1;
nodes = (
"388 0 LINE SMOOTH",
"519 0 OFFCURVE",
"599 97 OFFCURVE",
"599 322 CURVE SMOOTH",
"599 542 OFFCURVE",
"489 612 OFFCURVE",
"388 612 CURVE SMOOTH",
"20 612 LINE",
"20 540 LINE",
"80 515 LINE",
"80 97 LINE",
"20 72 LINE",
"20 0 LINE"
);
},
{
closed = 1;
nodes = (
"271 515 LINE",
"337 522 LINE",
"380 522 OFFCURVE",
"404 427 OFFCURVE",
"404 312 CURVE SMOOTH",
"404 174 OFFCURVE",
"380 91 OFFCURVE",
"337 91 CURVE",
"271 98 LINE"
);
}
);
width = 614;
},
{
anchors = (
{
name = center;
position = "{155, 308}";
},
{
name = top;
position = "{254, 591}";
}
);
layerId = "4F39836F-1187-466E-8FAB-7EBF43C51BB4";
paths = (
{
closed = 1;
nodes = (
"256 0 LINE SMOOTH",
"381 0 OFFCURVE",
"457 94 OFFCURVE",
"457 310 CURVE SMOOTH",
"457 525 OFFCURVE",
"352 591 OFFCURVE",
"256 591 CURVE SMOOTH",
"47 591 LINE",
"47 574 LINE",
"104 566 LINE",
"104 25 LINE",
"47 17 LINE",
"47 0 LINE"
);
},
{
closed = 1;
nodes = (
"134 564 LINE",
"262 564 LINE SMOOTH",
"348 564 OFFCURVE",
"427 488 OFFCURVE",
"427 308 CURVE SMOOTH",
"427 87 OFFCURVE",
"349 27 OFFCURVE",
"262 27 CURVE SMOOTH",
"134 27 LINE"
);
}
);
width = 512;
}
);
leftKerningGroup = H.ss01;
rightKerningGroup = O.ss01;
},
{
glyphname = E.ss01;
layers = (
{
anchors = (
{
name = bottom;
position = "{254, 0}";
},
{
name = ogonek;
position = "{416, 0}";
},
{
name = top;
position = "{253, 603}";
}
);
layerId = "555729A4-F539-4650-9C4F-3880CB033E7B";
paths = (
{
closed = 1;
nodes = (
"445 0 LINE",
"441 179 LINE",
"387 179 LINE",
"371 49 LINE",
"197 65 LINE",
"197 285 LINE",
"343 290 LINE",
"343 337 LINE",
"197 342 LINE",
"197 540 LINE",
"362 554 LINE",
"373 428 LINE",
"427 428 LINE",
"440 603 LINE",
"42 603 LINE",
"42 565 LINE",
"104 545 LINE",
"104 58 LINE",
"42 38 LINE",
"42 0 LINE"
);
}
);
width = 475;
},
{
anchors = (
{
name = bottom;
position = "{292, 0}";
},
{
name = ogonek;
position = "{483, 0}";
},
{
name = top;
position = "{291, 612}";
}
);
layerId = "52F4C6DE-93AC-450D-9CD0-4DAC5691B9C2";
paths = (
{
closed = 1;
nodes = (
"533 0 LINE",
"529 199 LINE",
"440 199 LINE",
"422 88 LINE",
"271 104 LINE",
"271 259 LINE",
"404 266 LINE",
"404 360 LINE",
"271 365 LINE",
"271 510 LINE",
"413 524 LINE",
"426 417 LINE",
"515 417 LINE",
"528 612 LINE",
"20 612 LINE",
"20 540 LINE",
"80 515 LINE",
"80 97 LINE",
"20 72 LINE",
"20 0 LINE"
);
}
);
width = 558;
},
{
anchors = (
{
name = bottom;
position = "{233, 0}";
},
{
name = ogonek;
position = "{371, 0}";
},
{
name = top;
position = "{232, 591}";
}
);
layerId = "4F39836F-1187-466E-8FAB-7EBF43C51BB4";
paths = (
{
closed = 1;
nodes = (
"392 0 LINE",
"389 122 LINE",
"370 122 LINE",
"360 27 LINE",
"134 27 LINE",
"134 300 LINE",
"297 302 LINE",
"297 325 LINE",
"134 327 LINE",
"134 564 LINE",
"352 564 LINE",
"359 469 LINE",
"378 469 LINE",
"384 591 LINE",
"47 591 LINE",
"47 574 LINE",
"104 566 LINE",
"104 25 LINE",
"47 17 LINE",
"47 0 LINE"
);
}
);
width = 437;
}
);
leftKerningGroup = H.ss01;
rightKerningGroup = E.ss01;
},
{
glyphname = F.ss01;
layers = (
{
layerId = "555729A4-F539-4650-9C4F-3880CB033E7B";
paths = (
{
closed = 1;
nodes = (
"297 0 LINE",
"297 43 LINE",
"197 65 LINE",
"197 268 LINE",
"336 273 LINE",
"336 320 LINE",
"197 325 LINE",
"197 540 LINE",
"343 554 LINE",
"354 428 LINE",
"408 428 LINE",
"421 603 LINE",
"42 603 LINE",
"42 565 LINE",
"104 545 LINE",
"104 58 LINE",
"42 38 LINE",
"42 0 LINE"
);
}
);
width = 443;
},
{
layerId = "52F4C6DE-93AC-450D-9CD0-4DAC5691B9C2";
paths = (
{
closed = 1;
nodes = (
"371 0 LINE",
"371 74 LINE",
"271 105 LINE",
"271 240 LINE",
"424 247 LINE",
"424 341 LINE",
"271 346 LINE",
"271 510 LINE",
"393 524 LINE",
"406 407 LINE",
"495 407 LINE",
"508 612 LINE",
"20 612 LINE",
"20 540 LINE",
"80 515 LINE",
"80 97 LINE",
"20 72 LINE",
"20 0 LINE"
);
}
);
width = 520;
},
{
layerId = "4F39836F-1187-466E-8FAB-7EBF43C51BB4";
paths = (
{
closed = 1;
nodes = (
"209 0 LINE",
"209 18 LINE",
"134 27 LINE",
"134 284 LINE",
"283 286 LINE",
"283 309 LINE",
"134 311 LINE",
"134 564 LINE",
"344 564 LINE",
"351 461 LINE",
"370 461 LINE",
"376 591 LINE",
"47 591 LINE",
"47 574 LINE",
"104 566 LINE",
"104 25 LINE",
"47 17 LINE",
"47 0 LINE"
);
}
);
width = 406;
}
);
leftKerningGroup = H.ss01;
rightKerningGroup = F.ss01;
},
